<?xml version="1.0" encoding="UTF-8"?>
<svg width="120px" height="32px" viewBox="0 0 120 32" version="1.1" xmlns="http://www.w3.org/2000/svg" xmlns:xlink="http://www.w3.org/1999/xlink">
    <title>long_logo_white-120*32-svg</title>
    <g id="页面-1" stroke="none" stroke-width="1" fill="none" fill-rule="evenodd">
        <g id="long_logo_white-120*32-svg">
            <g>
                <rect id="矩形" x="0" y="0" width="120" height="32"></rect>
                <path d="M90.5430434,22.8714854 C91.5296171,22.8714854 92.386203,23.0905124 93.1128012,23.5285664 C93.8393994,23.9666203 94.2026985,24.4818099 94.2026985,25.074135 C94.2026985,25.6245593 93.8365425,26.0992765 93.1042306,26.4982865 C92.3719186,26.8972965 91.5020006,27.0968015 90.4944765,27.0968015 C89.5059982,27.0968015 88.6375087,26.8944396 87.8890078,26.4897159 C87.1405069,26.0849921 86.7662564,25.6159887 86.7662564,25.0827056 C86.7662564,24.478953 87.1381261,23.9594781 87.8818656,23.524281 C88.625605,23.089084 89.5126643,22.8714854 90.5430434,22.8714854 Z M58.6506204,23.0000447 L59.56482,23.0600391 L59.7871006,23.0943612 C60.1455325,23.1611539 60.4437848,23.2758918 60.6818576,23.4385748 C60.967545,23.6337945 61.1103886,23.8599637 61.1103886,24.1170823 C61.1103886,24.6122738 60.5456799,24.9255776 59.4162626,25.0569937 C59.7990836,25.1522229 60.0928655,25.2888767 60.2976081,25.4669551 C60.5023507,25.6450336 60.6970942,25.9350062 60.8818387,26.3368731 L60.8818387,26.3368731 L61.8274639,26.9025341 L59.0620102,26.9025341 L58.9745631,26.6974642 C58.7731238,26.2354244 58.5899119,25.888582 58.4249274,25.6569372 C58.3068433,25.489334 58.0335357,25.4055323 57.6050047,25.4055323 L57.6050047,25.4055323 L56.6565226,25.4055323 L56.6565226,25.9969052 L58.0878163,26.9025341 L53.211133,26.9025341 L54.6424267,25.9969052 L54.6424267,23.9142443 L53.211133,23.0029016 L57.936402,23.0029016 L58.6506204,23.0000447 Z M51.4210161,23.0029016 L51.4210161,24.6884571 L49.9582968,23.6456982 L47.2071275,23.6456982 L47.2071275,24.4970465 L48.7184136,24.4970465 L49.7925981,24.0399467 L49.7925981,25.7997809 L48.7184136,25.2684024 L47.2071275,25.2684024 L47.2071275,26.1311782 L49.9582968,26.1311782 L51.535291,25.0112838 L51.535291,26.9025341 L43.7617379,26.9025341 L45.1930316,25.999762 L45.1930316,23.9085305 L43.7617379,23.0029016 L51.4210161,23.0029016 Z M85.2218306,23.0029016 L83.7933938,23.9113874 L83.7933938,25.9911914 L85.2218306,26.9025341 L80.4137123,26.9025341 L81.845006,25.9911914 L81.845006,23.9113874 L80.4137123,23.0029016 L85.2218306,23.0029016 Z M78.8578589,23.0029016 L78.9892751,24.8884382 L77.4951302,23.694265 L76.5837875,23.694265 L76.5837875,25.9911914 L78.0150812,26.9025341 L73.1383979,26.9025341 L74.5696916,25.9911914 L74.5696916,23.694265 L73.6583489,23.694265 L72.164204,24.8884382 L72.2956202,23.0029016 L78.8578589,23.0029016 Z M69.0970645,23.0029016 L68.1628668,23.7142631 L69.7941417,25.9911914 L71.2682885,26.9025341 L66.3544658,26.9025341 L67.7086239,26.1026095 L67.5314978,25.8340634 L65.2859951,25.8340634 L65.1117258,26.1026095 L66.2887577,26.9025341 L62.6462439,26.9025341 L63.7947071,25.9911914 L65.40027,23.7142631 L64.4860705,23.0029016 L69.0970645,23.0029016 Z M39.074751,23.0029016 L39.3176727,23.0054378 C39.7881823,23.0155826 40.1666889,23.0561619 40.4531926,23.1271756 C40.7874468,23.2100249 41.1145588,23.3619154 41.4345286,23.582847 C42.0516133,24.0151872 42.3601557,24.4922851 42.3601557,25.0141406 C42.3601557,25.5721833 42.0430427,26.0264262 41.4088168,26.3768694 C40.7745908,26.7273125 39.9518112,26.9025341 38.940478,26.9025341 L38.940478,26.9025341 L33.9495197,26.9025341 L35.3808134,25.999762 L35.3808134,23.9113874 L33.9495197,23.0029016 L39.074751,23.0029016 Z M32.2165402,23.0029016 L32.2165402,24.6884571 L30.7538209,23.6456982 L28.0026516,23.6456982 L28.0026516,24.4970465 L29.5139378,24.4970465 L30.5881223,24.0399467 L30.5881223,25.7997809 L29.5139378,25.2684024 L28.0026516,25.2684024 L28.0026516,26.1311782 L30.7538209,26.1311782 L32.3308152,25.0112838 L32.3308152,26.9025341 L24.557262,26.9025341 L25.9885557,25.999762 L25.9885557,23.9085305 L24.557262,23.0029016 L32.2165402,23.0029016 Z M23.2442429,23.0029016 L23.2442429,24.8884382 L21.7158156,23.694265 L19.0360681,23.694265 L19.0360681,24.4970465 L20.4902168,24.4970465 L21.6215387,24.0285192 L21.6215387,25.9283402 L20.4902168,25.345538 L19.0360681,25.345538 L19.0360681,25.9940483 L20.4787893,26.9025341 L15.5906785,26.9025341 L17.0219722,25.9940483 L17.0219722,23.8942462 L15.5906785,23.0029016 L23.2442429,23.0029016 Z M99.0839527,23.0029016 L101.512295,25.1084175 L101.512295,23.9113874 L100.078145,23.0029016 L104.074911,23.0029016 L102.643617,23.9113874 L102.643617,26.9025341 L100.626664,26.9025341 L98.1697532,24.6856002 L98.1697532,25.9911914 L99.6039037,26.9025341 L95.6071375,26.9025341 L97.0384312,25.9911914 L97.0384312,23.9113874 L95.6071375,23.0029016 L99.0839527,23.0029016 Z M90.4859059,23.5457076 C90.0802298,23.5457076 89.7493086,23.6775999 89.4931423,23.9413846 C89.236976,24.2051693 89.1088928,24.5456134 89.1088928,24.9627169 C89.1088928,25.3779159 89.2345952,25.7107417 89.4860001,25.9611943 C89.737405,26.2116468 90.0707069,26.3368731 90.4859059,26.3368731 C90.9030094,26.3368731 91.2367875,26.212123 91.4872401,25.9626227 C91.7376927,25.7131224 91.862919,25.3798205 91.862919,24.9627169 C91.862919,24.547518 91.7343597,24.20755 91.477241,23.942813 C91.2201224,23.6780761 90.8896774,23.5457076 90.4859059,23.5457076 Z M38.3719601,23.694265 L37.3949093,23.694265 L37.3949093,26.1311782 L38.351962,26.1311782 C39.0261842,26.1311782 39.4742372,26.0573757 39.696121,25.9097705 C39.9180049,25.7621654 40.0289468,25.4655267 40.0289468,25.0198544 C40.0289468,24.1361281 39.4766179,23.694265 38.3719601,23.694265 L38.3719601,23.694265 Z M66.3544658,24.1342236 L65.6659593,25.1912668 L67.0886824,25.1912668 L66.3544658,24.1342236 Z M57.9392589,23.7342613 L56.6565226,23.7342613 L56.6565226,24.6341765 L57.9335452,24.6341765 L58.3306506,24.6284627 L58.4533247,24.624206 C58.8019776,24.5986655 58.976304,24.458193 58.976304,24.2027885 C58.976304,24.018044 58.9058345,23.89377 58.7648954,23.8299665 C58.6239563,23.766163 58.3487441,23.7342613 57.9392589,23.7342613 L57.9392589,23.7342613 Z M108.51462,17.9120858 L108.51462,18.6922027 L11,18.6922027 L11,17.9120858 L108.51462,17.9120858 Z M18.5861767,4.01535663 L17.987268,4.89068472 L24.5906203,4.89068472 L24.3756274,6.34956486 L17.0044435,6.34956486 L15.6377032,8.39199705 L16.7894507,8.39199705 L16.9583736,7.22489294 L19.8761339,7.22489294 L19.7072109,8.39199705 L23.5156559,8.39199705 L23.3006631,9.85087719 L19.5075747,9.85087719 L18.9240227,14.0585946 L18.8911765,14.2025631 C18.8243467,14.4350454 18.6970857,14.6302027 18.5093936,14.7880347 C18.2841629,14.9774332 18.0231002,15.0721324 17.7262053,15.0721324 L17.7262053,15.0721324 L14.6855919,15.0721324 L16.0676889,13.6439656 L16.5898144,9.85087719 L12.50495,9.85087719 L12.7199429,8.39199705 L14.0866832,6.34956486 L12.4128102,6.34956486 L12.6278031,4.89068472 L15.0695078,4.89068472 L15.4073537,4.39927246 L15.0848644,4.01535663 L18.5861767,4.01535663 Z M38.7647926,4.30713266 L38.5651563,5.75065617 L37.8280379,8.25378736 L38.5190864,8.25378736 L38.3194502,9.7126675 L37.4748354,13.8896717 L35.1559838,13.8896717 L35.3402634,12.5843579 L35.8777455,12.5843579 L36.4612976,9.7126675 L35.6781093,9.7126675 L35.8777455,8.25378736 L36.6148639,5.75065617 L35.816319,5.75065617 L34.4956486,15.0567758 L32.2382235,15.0567758 L33.7585302,4.30713266 L38.7647926,4.30713266 Z M108.898536,9.51303127 L108.698899,10.9719114 L107.577865,10.9719114 L107.255376,13.3214763 L107.731432,13.3214763 L108.437837,12.7379242 L108.115347,15.0260625 L104.859741,15.0260625 L105.41258,10.9719114 L104.614035,10.9719114 L102.801952,15.0260625 L100.605954,15.0260625 L102.40268,10.9719114 L101.143436,10.9719114 L101.343072,9.51303127 L108.898536,9.51303127 Z M101.573422,4.30713266 L101.358429,5.79672607 L100.698094,8.10022103 L101.220219,8.10022103 L101.143436,9.42089147 L100.298821,13.3521895 L98.1642492,13.3521895 L98.3485288,12.0468757 L98.8092278,12.0468757 L99.3620666,9.42089147 L98.6863747,9.42089147 L98.8706543,8.10022103 L99.5309895,5.8120827 L98.9013676,5.8120827 L97.6114104,15.0260625 L95.5996915,15.0260625 L97.1046415,4.30713266 L101.573422,4.30713266 Z M49.8062117,4.01535663 L50.1594143,6.81026385 L52.7700419,6.53384445 L52.555049,8.06950776 L50.3436939,8.29985725 L50.5586867,10.0812267 L52.4168393,8.99090574 L52.1557766,10.8951282 L50.758323,11.7090298 L50.9733158,13.3521895 L51.5261546,13.3521895 L52.2018465,12.7686375 L51.8947138,14.9185661 L48.6851775,14.9185661 L48.454828,13.0450569 L45.8288438,14.5807202 L46.1052632,12.6764977 L48.2551918,11.4172538 L47.9173459,8.56092002 L46.6273887,8.69912971 L46.8423815,7.16346641 L47.7330663,7.07132661 L47.4412902,4.59890869 L46.949878,4.01535663 L49.8062117,4.01535663 Z M80.3812681,10.4344292 L80.3505549,14.8110697 L78.0163466,14.8110697 L78.0470599,10.4344292 L80.3812681,10.4344292 Z M71.0444352,10.4344292 L69.8466179,14.8110697 L67.5124096,14.8110697 L68.710227,10.4344292 L71.0444352,10.4344292 Z M73.9929088,10.1426532 L73.5936363,13.0604135 L77.0949487,13.0604135 L77.7552839,12.4768614 L77.4327946,14.8110697 L70.7219459,14.8110697 L71.3669245,10.1426532 L73.9929088,10.1426532 Z M66.4220887,4.29177603 L66.2224525,5.68922964 L57.8684441,5.68922964 L56.7934798,13.3829028 L65.6081871,13.3829028 L65.4085509,14.795713 L53.9525026,14.795713 L55.3345996,4.95211125 L54.7203343,4.29177603 L66.4220887,4.29177603 Z M95.1236359,4.29177603 L94.9239996,5.70458627 L85.5410968,5.70458627 L84.4661325,13.3829028 L93.8490353,13.3829028 L93.6493991,14.795713 L81.7480085,14.795713 L83.1301054,4.95211125 L82.5158401,4.29177603 L95.1236359,4.29177603 Z M32.2535801,10.2808629 L31.6239582,14.7803564 L25.0973891,14.7803564 L25.7270111,10.2808629 L32.2535801,10.2808629 Z M45.0302988,4.0460699 L44.7999493,5.68922964 L46.6273887,5.68922964 L46.4277525,7.11739651 L44.5849565,7.11739651 L44.3392504,8.92947921 L46.0745499,8.92947921 L45.2606483,14.7342865 L39.332988,14.7342865 L40.1468895,8.92947921 L41.7746926,8.92947921 L42.388958,4.62962196 L41.9129023,4.0460699 L45.0302988,4.0460699 Z M22.9013906,10.5726389 L23.8381452,14.3810839 L21.2275176,14.3810839 L20.290763,10.5726389 L22.9013906,10.5726389 Z M15.6223465,10.5726389 L13.6106276,14.3810839 L11,14.3810839 L13.0117189,10.5726389 L15.6223465,10.5726389 Z M29.7350923,11.61689 L27.8769397,11.61689 L27.6312336,13.4289727 L29.4893862,13.4289727 L29.7350923,11.61689 Z M43.6328452,10.3269328 L42.1893217,10.3269328 L41.759336,13.3521895 L43.2028595,13.3521895 L43.6328452,10.3269328 Z M88.8734862,6.05778883 L88.6584933,6.56455772 L94.4940139,6.56455772 L94.2943777,8.00808123 L91.6376802,8.00808123 L91.0234148,8.97554911 L94.4633006,8.97554911 L94.2636644,10.3883593 L91.5916103,10.3883593 L92.8662108,13.0297002 L90.7623521,13.0297002 L89.7641709,11.0026247 L88.504927,13.0143436 L86.1400055,13.0143436 L87.752452,10.3883593 L85.2493208,10.3883593 L85.448957,8.97554911 L88.6277801,8.97554911 L89.2266888,8.00808123 L88.0595847,8.00808123 L87.9060183,8.39199705 L85.8789428,8.39199705 L86.7389142,6.05778883 L88.8734862,6.05778883 Z M60.970484,6.28813832 L61.7997421,7.7623751 L63.1664825,6.33420822 L65.7003269,6.33420822 L62.936133,9.2058986 L62.8900631,9.22125524 L65.193558,12.7532808 L62.6597136,12.7532808 L61.4926095,10.7722752 L60.1105125,12.7532808 L57.5613114,12.7532808 L60.340862,9.32875167 L60.2794355,9.2980384 L58.4366395,6.28813832 L60.970484,6.28813832 Z M77.0949487,9.85087719 L77.0181655,12.4768614 L74.6993139,12.4768614 L74.7760971,9.85087719 L77.0949487,9.85087719 Z M28.8136943,6.56455772 L28.7829811,8.34592715 L29.5661694,8.34592715 L30.0575816,6.62598425 L31.885021,6.62598425 L31.4089653,8.34592715 L32.8064189,8.34592715 L32.6067827,9.77409403 L25.5120182,9.77409403 L25.7116545,8.34592715 L26.8480453,8.34592715 L26.8787586,6.56455772 L28.8136943,6.56455772 Z M73.6857761,4 L74.1004052,5.18246075 L76.4039002,5.18246075 L76.9413823,4.38391583 L76.6035364,4 L80.1048487,4 L79.3216605,5.18246075 L81.1183865,5.18246075 L80.5041212,9.55910116 L68.8330801,9.55910116 L69.3552056,5.7660128 L68.8637933,5.18246075 L71.1826449,5.18246075 L70.7680158,4 L73.6857761,4 Z M108.637473,7.45524244 L108.437837,8.91412258 L101.988051,8.91412258 L102.187687,7.45524244 L108.637473,7.45524244 Z M77.9856334,6.64134089 L72.1501128,6.64134089 L71.9504766,8.10022103 L77.7859971,8.10022103 L77.9856334,6.64134089 Z M106.932887,4.03071327 L106.810034,4.93675462 L109.528158,4.93675462 L109.221025,7.11739651 L107.00967,7.11739651 L107.117166,6.38027812 L104.04584,6.38027812 L103.938343,7.11739651 L101.665562,7.11739651 L101.972694,4.93675462 L104.306902,4.93675462 L104.352972,4.61426532 L103.846203,4.03071327 L106.932887,4.03071327 Z M30.9175531,4.03071327 L30.7947,4.82925818 L33.1135516,4.82925818 L32.929272,6.16528526 L26.2184234,6.16528526 L26.402703,4.82925818 L28.5526316,4.82925818 L28.5833448,4.61426532 L28.199429,4.03071327 L30.9175531,4.03071327 Z M52.5089791,4.32248929 L52.7546853,6.0885021 L50.7429663,6.0885021 L50.4358337,4.32248929 L52.5089791,4.32248929 Z" id="形状结合" fill="#026E3A" fill-rule="nonzero"></path>
            </g>
            <g id="编组-10" transform="translate(11.000000, 4.000000)"></g>
        </g>
    </g>
</svg>