<?xml version="1.0" encoding="UTF-8"?>
<svg width="150px" height="40px" viewBox="0 0 150 40" version="1.1" xmlns="http://www.w3.org/2000/svg" xmlns:xlink="http://www.w3.org/1999/xlink">
    <title>short_logo-150x40-svg</title>
    <g id="页面-1" stroke="none" stroke-width="1" fill="none" fill-rule="evenodd">
        <g id="short_logo-150x40-svg">
            <g id="编组-10">
                <rect id="矩形" x="0" y="0" width="150" height="40"></rect>
                <path d="M96.1757193,30.2679355 L94.3287056,31.5390628 L94.3287056,33.6176357 L94.334519,33.7623265 C94.3655239,34.1360616 94.5205485,34.4129415 94.7995926,34.592966 C95.1135173,34.7954937 95.6155261,34.8967575 96.3056191,34.8967575 C97.0173621,34.8967575 97.5349318,34.7948274 97.8583284,34.5909674 C98.1817249,34.3871074 98.3434232,34.0626635 98.3434232,33.6176357 L98.3434232,33.6176357 L98.3434232,31.5390628 L96.4964095,30.2679355 L101.944085,30.2679355 L99.9103402,31.5390628 L99.9103402,33.87346 L99.9045874,34.0367917 C99.8585652,34.6768256 99.5364097,35.1573478 98.938121,35.4783581 C98.2899748,35.8261194 97.2947524,36 95.9524539,36 C94.629099,36 93.5506596,35.8028021 92.7171355,35.4084062 C91.8836114,35.0140103 91.4668493,34.5023616 91.4668493,33.87346 L91.4668493,33.87346 L91.4668493,31.5390628 L89.4331047,30.2679355 L96.1757193,30.2679355 Z M69.843434,29.9881276 C70.8934579,29.9881276 71.8352319,30.1306964 72.668756,30.415834 L72.668756,30.415834 L72.9001401,30.4957791 L74.454879,30.0241029 L74.454879,32.3305194 L74.1629652,32.1501987 C72.794807,31.3377195 71.3441382,30.9314799 69.8109591,30.9314799 C68.8204726,30.9314799 68.3252294,31.0767136 68.3252294,31.3671808 C68.3252294,31.5030875 68.4456574,31.6056837 68.6865134,31.6749695 C68.9273694,31.7442552 69.3806658,31.8055465 70.0464026,31.8588432 L70.0464026,31.8588432 L71.22362,31.9507801 L71.5126292,31.9750124 C72.8309444,32.0917441 73.7237413,32.2595459 74.19102,32.4784178 C75.0299566,32.8728137 75.4494249,33.4004515 75.4494249,34.061331 C75.4494249,34.6529249 75.117233,35.1239348 74.4528494,35.4743609 C73.7884657,35.824787 72.8960807,36 71.7756944,36 C70.5741207,36 69.3427783,35.8041345 68.0816672,35.4124034 L68.0816672,35.4124034 L66.6405906,35.9400412 L66.6405906,33.2059184 L66.8125626,33.3879169 C67.2895303,33.8611393 67.913504,34.2375064 68.6844837,34.5170182 C69.5518359,34.831469 70.5091708,34.9886943 71.5564884,34.9886943 C72.657931,34.9886943 73.2086523,34.8434607 73.2086523,34.5529935 C73.2086523,34.4170868 73.134907,34.3258161 72.9874166,34.2791815 C72.8399261,34.2325468 72.4860843,34.1879108 71.9258912,34.1452734 L71.9258912,34.1452734 L70.7161987,34.0533365 L70.3987751,34.0282413 C69.1583852,33.9234139 68.2696473,33.7652267 67.7325613,33.5536796 C66.8070248,33.1885969 66.3442566,32.6716185 66.3442566,32.0027444 C66.3442566,31.3738429 66.6547984,30.880848 67.2758821,30.5237599 C67.8969658,30.1666717 68.7528165,29.9881276 69.843434,29.9881276 Z M132.832588,30.0840618 C134.234424,30.0840618 135.451558,30.390518 136.483992,31.0034305 C137.516425,31.6163431 138.032641,32.3371815 138.032641,33.1659458 C138.032641,33.9360837 137.512365,34.6002943 136.471813,35.1585777 C135.431261,35.7168611 134.195183,35.9960027 132.763578,35.9960027 C131.359036,35.9960027 130.124987,35.7128638 129.061432,35.1465859 C127.997877,34.5803081 127.4661,33.9240919 127.4661,33.1779376 C127.4661,32.3331842 127.994494,31.6063499 129.051284,30.9974347 C130.108073,30.3885194 131.368508,30.0840618 132.832588,30.0840618 Z M124.984221,30.2679355 L122.954535,31.5390628 L122.954535,34.4490648 L124.984221,35.7241894 L118.1523,35.7241894 L120.186044,34.4490648 L120.186044,31.5390628 L118.1523,30.2679355 L124.984221,30.2679355 Z M111.014323,30.2679355 L111.317539,30.2706524 C112.005581,30.2833312 112.557391,30.3403858 112.972969,30.4418161 C113.447915,30.5577365 113.912713,30.7702573 114.367363,31.0793784 C115.244187,31.6842964 115.682599,32.3518381 115.682599,33.0820034 C115.682599,33.8628007 115.232009,34.4983643 114.330828,34.9886943 C113.429648,35.4790244 112.260549,35.7241894 110.823532,35.7241894 L110.823532,35.7241894 L103.731812,35.7241894 L105.765556,34.4610566 L105.765556,31.5390628 L103.731812,30.2679355 L111.014323,30.2679355 Z M87.405875,30.2679355 L87.5926061,32.9061242 L85.4695552,31.2352714 L84.174616,31.2352714 L84.174616,34.4490648 L86.2083607,35.7241894 L79.279015,35.7241894 L81.3127597,34.4490648 L81.3127597,31.2352714 L80.0178205,31.2352714 L77.8947697,32.9061242 L78.0815007,30.2679355 L87.405875,30.2679355 Z M56.8705375,30.2679355 L55.5431233,31.2632522 L57.8610239,34.4490648 L59.9556592,35.7241894 L52.9735417,35.7241894 L54.8976834,34.6049578 L54.6460024,34.2292158 L51.4553371,34.2292158 L51.2077155,34.6049578 L52.8801762,35.7241894 L47.7044787,35.7241894 L49.3363456,34.4490648 L51.6177119,31.2632522 L50.3187133,30.2679355 L56.8705375,30.2679355 Z M45.9532862,30.2679355 L46.1400173,32.9061242 L44.0169664,31.2352714 L42.7220272,31.2352714 L42.7220272,34.4490648 L44.7557719,35.7241894 L37.8264262,35.7241894 L39.8601709,34.4490648 L39.8601709,31.2352714 L38.5652317,31.2352714 L36.4421809,32.9061242 L36.6289119,30.2679355 L45.9532862,30.2679355 Z M31.7966572,30.2679355 L30.469243,31.2632522 L32.7871436,34.4490648 L34.8817788,35.7241894 L27.8996614,35.7241894 L29.8238031,34.6049578 L29.5721221,34.2292158 L26.3814568,34.2292158 L26.1338352,34.6049578 L27.8062959,35.7241894 L22.6305983,35.7241894 L24.2624653,34.4490648 L26.5438316,31.2632522 L25.244833,30.2679355 L31.7966572,30.2679355 Z M16.2395453,30.2679355 L16.5427612,30.2706524 C17.2308034,30.2833312 17.7826135,30.3403858 18.1981916,30.4418161 C18.673138,30.5577365 19.1379359,30.7702573 19.5925854,31.0793784 C20.4694095,31.6842964 20.9078215,32.3518381 20.9078215,33.0820034 C20.9078215,33.8628007 20.4572313,34.4983643 19.5560511,34.9886943 C18.6548708,35.4790244 17.485772,35.7241894 16.0487549,35.7241894 L16.0487549,35.7241894 L8.95703438,35.7241894 L10.9907791,34.4610566 L10.9907791,31.5390628 L8.95703438,30.2679355 L16.2395453,30.2679355 Z M132.7514,31.0274141 C132.17497,31.0274141 131.704759,31.211954 131.340769,31.581034 C130.976779,31.9501139 130.794784,32.4264535 130.794784,33.0100528 C130.794784,33.5909873 130.973396,34.0566676 131.330621,34.4070937 C131.687845,34.7575197 132.161438,34.9327328 132.7514,34.9327328 C133.344068,34.9327328 133.818338,34.7581859 134.17421,34.4090923 C134.530081,34.0599986 134.708017,33.5936521 134.708017,33.0100528 C134.708017,32.4291184 134.525345,31.9534449 134.160002,31.5830326 C133.794658,31.2126202 133.325125,31.0274141 132.7514,31.0274141 Z M110.015717,31.2352714 L108.627413,31.2352714 L108.627413,34.6449304 L109.987302,34.6449304 C110.945313,34.6449304 111.581958,34.5416679 111.897236,34.3351431 C112.212513,34.1286182 112.370152,33.7135698 112.370152,33.0899979 C112.370152,31.8535136 111.585341,31.2352714 110.015717,31.2352714 L110.015717,31.2352714 Z M15.2409401,31.2352714 L13.8526353,31.2352714 L13.8526353,34.6449304 L15.2125245,34.6449304 C16.170536,34.6449304 16.8071806,34.5416679 17.1224584,34.3351431 C17.4377362,34.1286182 17.5953751,33.7135698 17.5953751,33.0899979 C17.5953751,31.8535136 16.8105634,31.2352714 15.2409401,31.2352714 L15.2409401,31.2352714 Z M52.9735417,31.8508487 L51.9952334,33.3298333 L54.0168,33.3298333 L52.9735417,31.8508487 Z M27.8996614,31.8508487 L26.9213531,33.3298333 L28.9429196,33.3298333 L27.8996614,31.8508487 Z M143.55985,24.465391 L143.55985,25.5569083 L5,25.5569083 L5,24.465391 L143.55985,24.465391 Z M15.7793017,5.02148656 L14.9283042,6.24622049 L24.3110973,6.24622049 L24.005611,8.2874437 L13.5317955,8.2874437 L11.5897756,11.1451562 L13.2263092,11.1451562 L13.4663342,9.51217762 L17.6122195,9.51217762 L17.3721945,11.1451562 L22.7836658,11.1451562 L22.4781796,13.1863794 L17.0885287,13.1863794 L16.2593516,19.0736969 L16.2206092,19.2471241 C16.1279836,19.5847701 15.9445137,19.8671648 15.6701995,20.0943085 C15.3501663,20.3593094 14.9792186,20.4918098 14.5573566,20.4918098 L14.5573566,20.4918098 L10.2369077,20.4918098 L12.2007481,18.4935598 L12.9426434,13.1863794 L7.13840399,13.1863794 L7.44389027,11.1451562 L9.38591022,8.2874437 L7.0074813,8.2874437 L7.31296758,6.24622049 L10.782419,6.24622049 L11.2624688,5.55865056 L10.8042394,5.02148656 L15.7793017,5.02148656 Z M44.4513716,5.4297312 L44.1677057,7.44946785 L43.1203242,10.9517772 L44.1022444,10.9517772 L43.8185786,12.9930004 L42.6184539,18.8373447 L39.3235661,18.8373447 L39.5854115,17.0109871 L40.3491272,17.0109871 L41.1783042,12.9930004 L40.0654613,12.9930004 L40.3491272,10.9517772 L41.3965087,7.44946785 L40.2618454,7.44946785 L38.3852868,20.4703233 L35.1776808,20.4703233 L37.3379052,5.4297312 L44.4513716,5.4297312 Z M144.105362,12.7136751 L143.821696,14.7548983 L142.228803,14.7548983 L141.770574,18.042342 L142.447007,18.042342 L143.450748,17.2258527 L142.992519,20.4273502 L138.366584,20.4273502 L139.15212,14.7548983 L138.017456,14.7548983 L135.442643,20.4273502 L132.322319,20.4273502 L134.875312,14.7548983 L133.086035,14.7548983 L133.369701,12.7136751 L144.105362,12.7136751 Z M133.697007,5.4297312 L133.391521,7.51392753 L132.453242,10.7369116 L133.195137,10.7369116 L133.086035,12.5847557 L131.88591,18.0853151 L128.852868,18.0853151 L129.114713,16.2589575 L129.769327,16.2589575 L130.554863,12.5847557 L129.594763,12.5847557 L129.856608,10.7369116 L130.794888,7.53541409 L129.900249,7.53541409 L128.067332,20.4273502 L125.208853,20.4273502 L127.347257,5.4297312 L133.697007,5.4297312 Z M60.1402743,5.02148656 L60.6421446,8.9320405 L64.3516209,8.54528242 L64.0461347,10.6939384 L60.90399,11.0162368 L61.2094763,13.5086778 L63.8497506,11.983132 L63.478803,14.6474655 L61.4931421,15.7862532 L61.7986284,18.0853151 L62.5841646,18.0853151 L63.5442643,17.2688258 L63.1078554,20.2769442 L58.5473815,20.2769442 L58.2200748,17.6555839 L54.4887781,19.8042399 L54.8815461,17.1399065 L57.936409,15.3780085 L57.4563591,11.3815084 L55.6234414,11.5748874 L55.9289277,9.42623138 L57.1945137,9.29731202 L56.7799252,5.83797584 L56.0816708,5.02148656 L60.1402743,5.02148656 Z M103.584788,14.0028687 L103.541147,20.1265383 L100.224439,20.1265383 L100.26808,14.0028687 L103.584788,14.0028687 Z M90.3179551,14.0028687 L88.6159601,20.1265383 L85.2992519,20.1265383 L87.0012469,14.0028687 L90.3179551,14.0028687 Z M94.5074813,13.594624 L93.9401496,17.6770705 L98.915212,17.6770705 L99.8534913,16.8605812 L99.3952618,20.1265383 L89.8597257,20.1265383 L90.7761845,13.594624 L94.5074813,13.594624 Z M83.75,5.40824464 L83.4663342,7.36352161 L71.59601,7.36352161 L70.0685786,18.1282882 L82.5935162,18.1282882 L82.3098504,20.1050518 L66.0317955,20.1050518 L67.9956359,6.33216673 L67.122818,5.40824464 L83.75,5.40824464 Z M124.532419,5.40824464 L124.248753,7.38500817 L110.916459,7.38500817 L109.389027,18.1282882 L122.721322,18.1282882 L122.437656,20.1050518 L105.526808,20.1050518 L107.490648,6.33216673 L106.61783,5.40824464 L124.532419,5.40824464 Z M35.1995012,13.7880031 L34.3048628,20.0835652 L25.0311721,20.0835652 L25.9258105,13.7880031 L35.1995012,13.7880031 Z M53.3541147,5.06445968 L53.026808,7.36352161 L55.6234414,7.36352161 L55.3397756,9.3617717 L52.7213217,9.3617717 L52.3721945,11.8971858 L54.8379052,11.8971858 L53.6814214,20.0191055 L45.2587282,20.0191055 L46.415212,11.8971858 L48.7281796,11.8971858 L49.6009975,5.88094896 L48.9245636,5.06445968 L53.3541147,5.06445968 Z M11.5679551,14.1962477 L8.70947631,19.5249146 L5,19.5249146 L7.8584788,14.1962477 L11.5679551,14.1962477 Z M21.9108479,14.1962477 L23.2418953,19.5249146 L19.532419,19.5249146 L18.2013716,14.1962477 L21.9108479,14.1962477 Z M31.6209476,15.6573338 L28.9806733,15.6573338 L28.6315461,18.1927479 L31.2718204,18.1927479 L31.6209476,15.6573338 Z M51.3684539,13.8524628 L49.3173317,13.8524628 L48.7063591,18.0853151 L50.7574813,18.0853151 L51.3684539,13.8524628 Z M115.651496,7.87919906 L115.34601,8.58825554 L123.637781,8.58825554 L123.354115,10.6079922 L119.579177,10.6079922 L118.706359,11.9616455 L123.59414,11.9616455 L123.310474,13.938409 L119.513716,13.938409 L121.324813,17.6340973 L118.335411,17.6340973 L116.917082,14.7978714 L115.127805,17.6126108 L111.767456,17.6126108 L114.058603,13.938409 L110.50187,13.938409 L110.785536,11.9616455 L115.302369,11.9616455 L116.153367,10.6079922 L114.495012,10.6079922 L114.276808,11.1451562 L111.396509,11.1451562 L112.618454,7.87919906 L115.651496,7.87919906 Z M76.0037406,8.20149746 L77.1820449,10.2642072 L79.1240648,8.26595714 L82.7244389,8.26595714 L78.7967581,12.2839439 L78.7312968,12.3054304 L82.0043641,17.2473393 L78.40399,17.2473393 L76.7456359,14.475573 L74.7817955,17.2473393 L71.159601,17.2473393 L75.1091022,12.4558364 L75.0218204,12.4128632 L72.4033666,8.20149746 L76.0037406,8.20149746 Z M98.915212,13.1863794 L98.8061097,16.8605812 L95.5112219,16.8605812 L95.6203242,13.1863794 L98.915212,13.1863794 Z M30.3117207,8.58825554 L30.2680798,11.0806965 L31.3809227,11.0806965 L32.0791771,8.67420178 L34.6758105,8.67420178 L33.9993766,11.0806965 L35.9850374,11.0806965 L35.7013716,13.0789466 L25.6203242,13.0789466 L25.90399,11.0806965 L27.5187032,11.0806965 L27.5623441,8.58825554 L30.3117207,8.58825554 Z M94.0710723,5 L94.6602244,6.65446513 L97.9332918,6.65446513 L98.6970075,5.537164 L98.2169576,5 L103.19202,5 L102.079177,6.65446513 L104.63217,6.65446513 L103.759352,12.7781348 L87.1758105,12.7781348 L87.9177057,7.47095441 L87.2194514,6.65446513 L90.5143392,6.65446513 L89.925187,5 L94.0710723,5 Z M143.734414,9.83447603 L143.450748,11.8756992 L134.28616,11.8756992 L134.569825,9.83447603 L143.734414,9.83447603 Z M100.180798,8.69568834 L91.8890274,8.69568834 L91.6053616,10.7369116 L99.8971322,10.7369116 L100.180798,8.69568834 Z M141.312344,5.04297312 L141.137781,6.31068017 L145,6.31068017 L144.563591,9.3617717 L141.421446,9.3617717 L141.57419,8.33041682 L137.2101,8.33041682 L137.057357,9.3617717 L133.82793,9.3617717 L134.264339,6.31068017 L137.581047,6.31068017 L137.646509,5.8594624 L136.926434,5.04297312 L141.312344,5.04297312 Z M33.3011222,5.04297312 L33.1265586,6.16027425 L36.4214464,6.16027425 L36.159601,8.02960498 L26.6240648,8.02960498 L26.8859102,6.16027425 L29.9407731,6.16027425 L29.984414,5.8594624 L29.4389027,5.04297312 L33.3011222,5.04297312 Z M63.9806733,5.45121776 L64.3298005,7.92217218 L61.4713217,7.92217218 L61.0349127,5.45121776 L63.9806733,5.45121776 Z" id="形状结合" fill="#026E3A" fill-rule="nonzero"></path>
            </g>
        </g>
    </g>
</svg>