<svg xmlns="http://www.w3.org/2000/svg">
    <symbol id="angle-left" viewBox="0 0 137.065 137.064">
       <g> <g id="_x34_83._Back"> <g> <path d="M55.12,68.532l51.606-51.614c2.738-2.734,2.738-7.173,0-9.911l-4.955-4.956c-2.737-2.736-7.173-2.736-9.91,0
				L30.337,63.577c-2.736,2.736-2.736,7.173,0,9.911l61.524,61.523c2.737,2.737,7.173,2.737,9.91,0l4.955-4.955
				c2.738-2.738,2.738-7.177,0-9.911L55.12,68.532z"/> </g> </g> </g> 
    </symbol>
    <symbol id="angle-right" viewBox="0 0 284.935 284.936">
       <g> <path d="M222.701,135.9L89.652,2.857C87.748,0.955,85.557,0,83.084,0c-2.474,0-4.664,0.955-6.567,2.857L62.244,17.133
		c-1.906,1.903-2.855,4.089-2.855,6.567c0,2.478,0.949,4.664,2.855,6.567l112.204,112.204L62.244,254.677
		c-1.906,1.903-2.855,4.093-2.855,6.564c0,2.477,0.949,4.667,2.855,6.57l14.274,14.271c1.903,1.905,4.093,2.854,6.567,2.854
		c2.473,0,4.663-0.951,6.567-2.854l133.042-133.044c1.902-1.902,2.854-4.093,2.854-6.567S224.603,137.807,222.701,135.9z"/> </g> 
    </symbol>
    <symbol id="arrow-left" viewBox="0 0 16 16">
       <path d="M0.023 8.113l6.958-7.241v4.705h8.996v4.705h-8.996v4.846z"/> 
    </symbol>
    <symbol id="arrow-right" viewBox="0 0 16 16">
       <path d="M15.977 8.113l-6.958-7.241v4.705h-8.996v4.705h8.996v4.846z"/> 
    </symbol>
    <symbol id="calendar" viewBox="0 0 511.634 511.634">
       <g> <path d="M482.513,83.942c-7.225-7.233-15.797-10.85-25.694-10.85h-36.541v-27.41c0-12.56-4.477-23.315-13.422-32.261
		C397.906,4.475,387.157,0,374.591,0h-18.268c-12.565,0-23.318,4.475-32.264,13.422c-8.949,8.945-13.422,19.701-13.422,32.261v27.41
		h-109.63v-27.41c0-12.56-4.475-23.315-13.422-32.261C178.64,4.475,167.886,0,155.321,0H137.05
		c-12.562,0-23.317,4.475-32.264,13.422c-8.945,8.945-13.421,19.701-13.421,32.261v27.41H54.823c-9.9,0-18.464,3.617-25.697,10.85
		c-7.233,7.232-10.85,15.8-10.85,25.697v365.453c0,9.89,3.617,18.456,10.85,25.693c7.232,7.231,15.796,10.849,25.697,10.849h401.989
		c9.897,0,18.47-3.617,25.694-10.849c7.234-7.234,10.852-15.804,10.852-25.693V109.639
		C493.357,99.739,489.743,91.175,482.513,83.942z M137.047,475.088H54.823v-82.23h82.224V475.088z M137.047,374.59H54.823v-91.358
		h82.224V374.59z M137.047,264.951H54.823v-82.223h82.224V264.951z M130.627,134.333c-1.809-1.809-2.712-3.946-2.712-6.423V45.686
		c0-2.474,0.903-4.617,2.712-6.423c1.809-1.809,3.946-2.712,6.423-2.712h18.271c2.474,0,4.617,0.903,6.423,2.712
		c1.809,1.807,2.714,3.949,2.714,6.423v82.224c0,2.478-0.909,4.615-2.714,6.423c-1.807,1.809-3.946,2.712-6.423,2.712H137.05
		C134.576,137.046,132.436,136.142,130.627,134.333z M246.683,475.088h-91.365v-82.23h91.365V475.088z M246.683,374.59h-91.365
		v-91.358h91.365V374.59z M246.683,264.951h-91.365v-82.223h91.365V264.951z M356.323,475.088h-91.364v-82.23h91.364V475.088z
		 M356.323,374.59h-91.364v-91.358h91.364V374.59z M356.323,264.951h-91.364v-82.223h91.364V264.951z M349.896,134.333
		c-1.807-1.809-2.707-3.946-2.707-6.423V45.686c0-2.474,0.9-4.617,2.707-6.423c1.808-1.809,3.949-2.712,6.427-2.712h18.268
		c2.478,0,4.617,0.903,6.427,2.712c1.808,1.807,2.707,3.949,2.707,6.423v82.224c0,2.478-0.903,4.615-2.707,6.423
		c-1.807,1.809-3.949,2.712-6.427,2.712h-18.268C353.846,137.046,351.697,136.142,349.896,134.333z M456.812,475.088h-82.228v-82.23
		h82.228V475.088z M456.812,374.59h-82.228v-91.358h82.228V374.59z M456.812,264.951h-82.228v-82.223h82.228V264.951z"/> </g> 
    </symbol>
    <symbol id="close-sign" viewBox="0 0 16 16">
       <path d="M2.008 13.998h11.984v-11.996z"/> 
    </symbol>
    <symbol id="code" viewBox="0 0 1024 1024">
      <path d="M434.12811 654.18527l-16.884181 16.884181c-4.707105 4.707105-12.279404 4.707105-16.884181 0l-118.496253-118.496253c-4.707105-4.707105-4.707105-12.279404 0-16.884181l118.496253-118.496253c4.707105-4.707105 12.279404-4.707105 16.884181 0l16.884181 16.884181c4.707105 4.707105 4.707105 12.279404 0 16.884181l-93.118817 93.118817 93.118817 93.118817C438.835215 642.008194 438.835215 649.580494 434.12811 654.18527zM473.115219 744.848206l-21.591286-6.037374c-5.935045-1.637254-9.618867-7.572299-8.18627-13.20036l96.188668-369.917058c1.534926-5.730389 7.981613-9.004897 14.325972-7.265314l23.126212 6.242031c6.344359 1.739582 10.335165 7.776956 8.80024 13.507345l-99.258519 369.610073C485.087639 743.313281 479.050265 746.48546 473.115219 744.848206zM749.401819 552.675527l-118.496253 118.496253c-4.707105 4.707105-12.279404 4.707105-16.884181 0l-16.884181-16.884181c-4.707105-4.707105-4.707105-12.279404 0-16.884181l93.118817-93.118817-93.118817-93.118817c-4.707105-4.707105-4.707105-12.279404 0-16.884181l16.884181-16.884181c4.707105-4.707105 12.279404-4.707105 16.884181 0l118.496253 118.496253C754.006595 540.396123 754.006595 547.968422 749.401819 552.675527zM823.794544 919.522734l-628.500849 0 0-814.533826 455.668232 0 0 128.012791c0 16.065554 14.121315 29.061257 31.41481 29.061257L823.794544 262.062956 823.794544 919.522734 823.794544 919.522734zM722.080144 145.203957l59.759768 58.634156-59.759768 0L722.080144 145.203957zM886.624163 231.364445c0-0.102328 0-0.102328 0-0.204657 0-0.61397-0.102328-1.22794-0.204657-1.841911 0-0.102328 0-0.204657 0-0.306985-0.409313-2.865194-1.22794-5.525732-2.455881-7.981613l0 0c-0.61397-1.22794-1.330269-2.455881-2.046567-3.581493-0.102328-0.102328-0.204657-0.204657-0.204657-0.409313-0.306985-0.511642-0.716299-0.920955-1.023284-1.432597-0.102328-0.204657-0.306985-0.306985-0.409313-0.511642-0.306985-0.306985-0.511642-0.61397-0.818627-1.023284-0.204657-0.204657-0.409313-0.511642-0.61397-0.716299-0.204657-0.204657-0.409313-0.409313-0.61397-0.61397-0.204657-0.204657-0.409313-0.409313-0.716299-0.716299l-171.40002-156.767063c-4.809433-4.604777-11.358449-7.674628-18.521435-8.493255 0 0 0 0-0.102328 0-0.716299-0.102328-1.432597-0.102328-2.148896-0.204657-0.204657 0-0.306985 0-0.511642 0-0.306985 0-0.61397 0-1.023284 0l-515.223344 0c-17.293495 0-31.210153 12.995703-31.210153 29.061257l0 872.758669c0 16.065554 14.018987 29.061257 31.210153 29.061257l686.82802 0c17.293495 0 31.210153-12.995703 31.210153-29.061257l0-715.684621C886.624163 232.490057 886.624163 231.876087 886.624163 231.364445z" p-id="4836"/>
    </symbol>
    <symbol id="column-family" viewBox="0 0 1024 1024">
        <path d="M0 39.36v945.216h1024v-945.216h-1024zM315.072 905.856h-236.288v-787.712h236.288v787.712zM393.856 905.856v-787.712h236.288v787.712h-236.288zM945.216 905.856h-236.288v-787.712h236.288v787.712z"/> 
    </symbol>
    <symbol id="column" viewBox="0 0 1024 1024">
        <path d="M426.688 1024h256v-1024h-256v1024zM768 0v1024h256v-1024h-256zM0 1024h341.312v-1024h-341.312v1024zM85.312 85.312h170.688v853.312h-170.688v-853.312z"/> 
    </symbol>
    <symbol id="configure" viewBox="0 0 16 16">
       <path d="M15.188 6.288h-1.405c-0.132-0.285-0.32-0.879-0.56-1.302l0.992-0.964c0.313-0.313 0.314-0.806 0.001-1.119l-1.132-1.126c-0.313-0.313-0.82-0.309-1.133 0.004l-0.937 0.994c-0.422-0.24-1.016-0.426-1.301-0.559v-1.404c0-0.443-0.469-0.801-0.911-0.801h-1.603c-0.442 0-0.911 0.358-0.911 0.801v1.405c-0.285 0.132-0.879 0.32-1.301 0.56l-0.965-0.992c-0.313-0.314-0.806-0.314-1.118-0.001l-1.126 1.133c-0.312 0.312-0.31 0.819 0.004 1.133l0.994 0.937c-0.24 0.423-0.426 1.016-0.559 1.301h-1.405c-0.443 0-0.802 0.469-0.802 0.911v1.602c0 0.442 0.358 0.911 0.802 0.911h1.405c0.132 0.285 0.32 0.878 0.56 1.301l-0.992 0.965c-0.313 0.313-0.313 0.806-0.001 1.119l1.132 1.126c0.312 0.312 0.82 0.309 1.133-0.004l0.937-0.994c0.423 0.24 1.016 0.426 1.301 0.559v1.405c0 0.443 0.469 0.801 0.911 0.801h1.602c0.442 0 0.911-0.358 0.911-0.802v-1.405c0.285-0.132 0.878-0.32 1.302-0.56l0.964 0.992c0.313 0.313 0.806 0.313 1.118 0.001l1.126-1.132c0.312-0.313 0.309-0.82-0.004-1.133l-0.994-0.937c0.24-0.423 0.426-1.016 0.559-1.301h1.405c0.443 0 0.801-0.469 0.801-0.911v-1.603c0.001-0.442-0.357-0.911-0.8-0.911v0 0zM8 11.603c-1.99 0-3.603-1.613-3.603-3.603s1.613-3.603 3.603-3.603c1.991 0 3.603 1.613 3.603 3.603s-1.613 3.603-3.603 3.603v0 0z"/> 
    </symbol>
    <symbol id="copy" viewBox="0 0 511.627 511.627">
       <g> <path d="M503.633,117.628c-5.332-5.327-11.8-7.993-19.41-7.993H365.446c-11.417,0-23.603,3.806-36.542,11.42V27.412
		c0-7.616-2.662-14.092-7.994-19.417C315.578,2.666,309.11,0,301.492,0H182.725c-7.614,0-15.99,1.903-25.125,5.708
		c-9.136,3.806-16.368,8.376-21.7,13.706L19.414,135.901c-5.33,5.329-9.9,12.563-13.706,21.698C1.903,166.738,0,175.108,0,182.725
		v191.858c0,7.618,2.663,14.093,7.992,19.417c5.33,5.332,11.803,7.994,19.414,7.994h155.318v82.229c0,7.61,2.662,14.085,7.992,19.41
		c5.327,5.332,11.8,7.994,19.414,7.994h274.091c7.61,0,14.085-2.662,19.41-7.994c5.332-5.325,7.994-11.8,7.994-19.41V137.046
		C511.627,129.432,508.965,122.958,503.633,117.628z M328.904,170.449v85.364h-85.366L328.904,170.449z M146.178,60.813v85.364
		H60.814L146.178,60.813z M202.139,245.535c-5.33,5.33-9.9,12.564-13.706,21.701c-3.805,9.141-5.708,17.508-5.708,25.126v73.083
		H36.547V182.725h118.766c7.616,0,14.087-2.664,19.417-7.994c5.327-5.33,7.994-11.801,7.994-19.412V36.547h109.637v118.771
		L202.139,245.535z M475.078,475.085H219.263V292.355h118.775c7.614,0,14.082-2.662,19.41-7.994
		c5.328-5.325,7.994-11.797,7.994-19.41V146.178h109.629v328.907H475.078z"/> </g> 
    </symbol>
    <symbol id="dashboard" viewBox="0 0 16 16">
       <g> <path d="M7.428,6.705c0,0.624-0.511,1.135-1.135,1.135H2.259c-0.624,0-1.135-0.511-1.135-1.135V2.499
		c0-0.624,0.511-1.135,1.135-1.135h4.034c0.624,0,1.135,0.511,1.135,1.135V6.705L7.428,6.705L7.428,6.705z M7.428,6.705"/> <path d="M7.428,14.22c0,0.624-0.511,1.135-1.135,1.135H2.259c-0.624,0-1.135-0.511-1.135-1.135v-4.205
		c0-0.625,0.511-1.136,1.135-1.136h4.034c0.624,0,1.135,0.511,1.135,1.135V14.22L7.428,14.22L7.428,14.22z M7.428,14.22"/> <path d="M14.876,6.705c0,0.624-0.511,1.135-1.135,1.135H9.707c-0.624,0-1.135-0.511-1.135-1.135V2.499
		c0-0.624,0.511-1.135,1.135-1.135h4.034c0.624,0,1.135,0.511,1.135,1.135V6.705L14.876,6.705L14.876,6.705z M14.876,6.705"/> <path d="M14.876,14.22c0,0.624-0.511,1.135-1.135,1.135H9.707c-0.624,0-1.135-0.511-1.135-1.135v-4.205
		c0-0.624,0.511-1.135,1.135-1.135h4.034c0.625,0,1.135,0.511,1.135,1.135V14.22L14.876,14.22L14.876,14.22z M14.876,14.22"/> </g> 
    </symbol>
    <symbol id="database" viewBox="0 0 1024 1024">
        <path d="M950.72 766.080c0.128 0.768 0.704 1.472 0.704 2.24 0 40.448-196.736 73.216-439.424 73.216s-439.424-32.768-439.424-73.216c0-0.768 0.512-1.472 0.704-2.24-46.656 22.080-73.92 47.808-73.92 75.52 0 80.896 229.504 146.496 512.64 146.496s512.64-65.6 512.64-146.496c0-27.712-27.264-53.44-73.92-75.52zM950.72 326.656c0.128 0.768 0.704 1.472 0.704 2.24 0 40.448-196.736 73.216-439.424 73.216s-439.424-32.768-439.424-73.216c0-0.768 0.512-1.472 0.704-2.24-46.656 22.080-73.92 47.808-73.92 75.456 0 80.896 229.504 146.496 512.64 146.496s512.64-65.6 512.64-146.496c0-27.648-27.264-53.376-73.92-75.456zM950.72 546.368c0.128 0.768 0.704 1.472 0.704 2.24 0 40.448-196.736 73.216-439.424 73.216s-439.424-32.768-439.424-73.216c0-0.768 0.512-1.472 0.704-2.24-46.656 22.080-73.92 47.808-73.92 75.456 0 80.896 229.504 146.496 512.64 146.496s512.64-65.6 512.64-146.496c0-27.648-27.264-53.376-73.92-75.456zM512 328.896c283.136 0 512.64-65.6 512.64-146.496s-229.504-146.496-512.64-146.496c-283.136 0-512.64 65.6-512.64 146.496 0 80.96 229.504 146.496 512.64 146.496z"/> 
    </symbol>
    <symbol id="discover" viewBox="0 0 1024 1024">
       <title/>  <path d="M86.848 482.56l84.16-43.84c-3.456 25.664 0.576 52.608 13.312 77.248 12.864 24.704 32.448 43.584 55.488 55.616l-84.288 43.84c-36.672 19.008-81.856 4.672-100.736-32.064-19.008-36.736-4.608-81.856 32.064-100.8z"/> <path d="M903.296 312.896c-57.024-1.344-108.864-38.144-141.376-101.056-29.248-56.64-35.584-123.968-12.16-170.432l-195.52 103.808c-20.672 16.32-34.368 40.128-40.512 67.456l-41.6 21.44-216 111.808c-58.112 30.016-80.896 101.568-50.88 159.616 21.248 41.024 63.168 63.808 106.432 63.36 16.064 0 49.024-12.544 86.464-29.568 0-0.768-0.256-1.472-0.256-2.304 0-1.472 0.384-2.816 0.448-4.224 0-0.512-0.192-1.024-0.192-1.536 0-0.832-0.256-1.536-0.256-2.304 0-47.872 38.848-86.784 86.848-86.784 19.968 0 38.144 6.976 52.8 18.304 1.984 1.536 3.52 3.456 5.376 5.184 22.528-12.352 37.76-20.992 37.76-20.992 0.128 0 0.192-0.064 0.32-0.064l51.072-26.496c21.376 6.144 43.136 6.656 63.616 0.64l207.616-105.856z"/> <path d="M952.064 282.816c38.528-33.92 32.832-119.488-12.608-191.040-45.44-71.616-113.536-102.144-151.936-68.16-38.528 33.92-32.832 119.488 12.608 191.040 45.44 71.616 113.472 102.144 151.936 68.16zM824.384 193.28c-32.192-50.56-38.464-111.68-13.824-133.376 24.576-21.696 72.512 2.624 104.64 53.248 32.064 50.56 38.4 111.616 13.888 133.376-24.704 21.696-72.576-2.624-104.704-53.248z"/> <path d="M571.584 550.4c0 42.097-34.127 76.224-76.224 76.224s-76.224-34.127-76.224-76.224c0-42.097 34.127-76.224 76.224-76.224s76.224 34.127 76.224 76.224z"/> <path d="M344.32 1014.272h50.496l100.608-396.672-47.872-11.264z"/> <path d="M649.472 1014.272h-50.496l-103.552-396.672 47.808-11.264z"/> 
    </symbol>
    <symbol id="edit" viewBox="0 0 16 16">
       <path d="M13.753 0c1.241 0 2.247 1.006 2.247 2.247 0 0.506-0.167 0.973-0.449 1.348l-0.899 0.899-3.146-3.146 0.899-0.899c0.375-0.282 0.842-0.449 1.348-0.449zM2.517 10.337l-0.899 4.045 4.045-0.899 8.314-8.314-3.146-3.146-8.314 8.314zM11.668 5.106l-6.292 6.292-0.775-0.775 6.292-6.292 0.775 0.775z"/> <path d="M0 15h14v1h-14v-1z"/> 
    </symbol>
    <symbol id="elasticsearch" viewBox="0 0 16 16">
        <g> <g> <path class="st1" d="M12.195,4.528c-0.005,0.021-0.011,0.041-0.017,0.062c-0.002,0.006-0.004,0.012-0.006,0.018
			c-0.004,0.015-0.01,0.03-0.015,0.045c-0.002,0.006-0.004,0.013-0.007,0.019c-0.002,0.005-0.004,0.011-0.006,0.016
			c-0.005,0.014-0.01,0.028-0.016,0.042c-0.002,0.005-0.004,0.01-0.006,0.015c-0.004,0.01-0.009,0.021-0.014,0.031
			c-0.002,0.004-0.004,0.009-0.006,0.013c-0.004,0.008-0.008,0.016-0.012,0.025c-0.002,0.003-0.004,0.007-0.005,0.01
			c-0.004,0.009-0.009,0.017-0.013,0.025s-0.008,0.016-0.012,0.024c-0.002,0.004-0.004,0.007-0.007,0.011
			c-0.007,0.014-0.015,0.027-0.023,0.04c-0.006,0.01-0.012,0.019-0.017,0.029c-0.006,0.011-0.012,0.02-0.018,0.03
			c-0.007,0.01-0.014,0.021-0.021,0.032c-0.005,0.007-0.01,0.015-0.015,0.022c-0.013,0.02-0.027,0.039-0.042,0.058v0.001
			c-0.015,0.019-0.029,0.038-0.045,0.058c-0.001,0.002-0.003,0.004-0.004,0.005c-0.003,0.004-0.006,0.007-0.008,0.011
			c-0.01,0.012-0.021,0.025-0.031,0.037c-0.001,0.001-0.002,0.002-0.003,0.003c-0.002,0.002-0.004,0.005-0.006,0.007
			c-0.024,0.027-0.048,0.054-0.073,0.081l0,0c-0.049,0.052-0.102,0.103-0.158,0.153h-0.001c-0.027,0.025-0.055,0.049-0.083,0.073
			L11.498,5.53c-0.059,0.049-0.121,0.097-0.186,0.143c0.32,0.07,0.628,0.172,0.921,0.304V4.528H12.195L12.195,4.528L12.195,4.528z
			 M0.032,3.224C0.162,4.47,2.134,5.499,4.75,5.77c0.277,0.029,0.561,0.049,0.851,0.06c0.174,0.007,0.35,0.01,0.528,0.01
			c0.059,0,0.118,0,0.177-0.001C6.718,5.834,7.12,5.811,7.507,5.77C7.99,5.72,8.451,5.644,8.883,5.546
			C8.92,5.538,8.957,5.529,8.993,5.52c0.281-0.067,0.549-0.144,0.802-0.23c0.049-0.016,0.098-0.034,0.146-0.051
			c0.103-0.037,0.204-0.076,0.301-0.116c0.07-0.029,0.138-0.058,0.204-0.088c0.066-0.03,0.13-0.06,0.193-0.091
			c0.029-0.014,0.057-0.028,0.085-0.043c0.093-0.048,0.183-0.097,0.269-0.148c0.001-0.001,0.002-0.001,0.003-0.002
			c0.124-0.074,0.239-0.15,0.346-0.228c0.026-0.019,0.051-0.039,0.076-0.058c0.099-0.077,0.191-0.157,0.273-0.239
			c0.021-0.021,0.041-0.042,0.061-0.063c0.078-0.083,0.147-0.167,0.207-0.254c0.029-0.042,0.055-0.084,0.08-0.127
			c0.027-0.047,0.051-0.094,0.073-0.142c0.012-0.027,0.023-0.054,0.033-0.081c0.041-0.11,0.069-0.221,0.08-0.334
			c0.002-0.02,0.004-0.04,0.005-0.059c0.001-0.024,0.002-0.047,0.002-0.071c0-1.517-2.733-2.747-6.104-2.747
			s-6.104,1.23-6.104,2.747c0,0.024,0.001,0.047,0.002,0.071C0.029,3.185,0.03,3.205,0.032,3.224L0.032,3.224z M6.857,13.45
			c-0.055,0.003-0.11,0.006-0.166,0.008c-0.015,0.001-0.029,0.001-0.044,0.002c-0.077,0.003-0.155,0.005-0.233,0.007
			c-0.013,0-0.026,0-0.039,0.001c-0.082,0.001-0.164,0.002-0.247,0.002s-0.165-0.001-0.247-0.002c-0.013,0-0.026-0.001-0.039-0.001
			c-0.078-0.002-0.156-0.004-0.233-0.007c-0.015-0.001-0.029-0.001-0.044-0.002c-0.078-0.003-0.156-0.007-0.233-0.011
			c-0.01-0.001-0.019-0.001-0.028-0.002c-0.077-0.005-0.153-0.01-0.229-0.016c-0.006-0.001-0.012-0.001-0.018-0.001
			c-0.077-0.006-0.154-0.013-0.231-0.021c-0.013-0.001-0.025-0.003-0.038-0.004c-0.075-0.008-0.149-0.016-0.223-0.025
			c-0.012-0.001-0.024-0.003-0.035-0.004c-0.076-0.009-0.152-0.019-0.227-0.03c-0.002,0-0.005,0-0.007-0.001
			c-0.075-0.011-0.15-0.022-0.225-0.034c-0.007-0.001-0.015-0.002-0.022-0.004c-0.073-0.012-0.145-0.024-0.217-0.037
			c-0.011-0.002-0.021-0.004-0.032-0.006c-0.068-0.012-0.139-0.026-0.209-0.04c-0.007-0.001-0.014-0.003-0.021-0.004
			c-0.146-0.03-0.289-0.063-0.428-0.098c-0.007-0.002-0.014-0.004-0.02-0.005c-0.068-0.017-0.134-0.035-0.2-0.054
			c-0.007-0.002-0.015-0.004-0.023-0.006c-0.067-0.019-0.133-0.038-0.199-0.058c-0.002-0.001-0.003-0.001-0.005-0.002
			c-0.068-0.021-0.135-0.042-0.201-0.064c-0.001,0-0.002-0.001-0.002-0.001c-0.065-0.022-0.127-0.044-0.189-0.066
			C2.3,12.863,2.296,12.862,2.292,12.86l0,0c-1.218-0.443-2.049-1.093-2.23-1.831H0.025v1.831c0,1.232,1.803,2.274,4.286,2.623l0,0
			h0.001c0.064,0.009,0.128,0.017,0.193,0.025c0.016,0.002,0.031,0.004,0.047,0.006c0.064,0.008,0.129,0.015,0.194,0.022
			c0.001,0,0.002,0,0.003,0c0.066,0.007,0.132,0.013,0.199,0.019c0.016,0.001,0.032,0.003,0.049,0.004
			c0.066,0.006,0.132,0.011,0.2,0.016c0,0,0.001,0,0.002,0c0.068,0.005,0.135,0.009,0.204,0.012c0.017,0.001,0.034,0.002,0.05,0.003
			c0.068,0.003,0.136,0.006,0.205,0.009h0.001c0.069,0.002,0.138,0.004,0.208,0.005c0.017,0,0.035,0.001,0.052,0.001
			c0.07,0.001,0.14,0.002,0.21,0.002s0.141-0.001,0.21-0.002c0.017,0,0.035-0.001,0.052-0.001c0.069-0.001,0.139-0.003,0.208-0.005
			c0.001,0,0.001,0,0.001,0c0.069-0.003,0.137-0.006,0.205-0.009c0.017-0.001,0.034-0.002,0.051-0.003
			c0.068-0.004,0.136-0.008,0.204-0.012c0,0,0.001,0,0.002,0c0.067-0.005,0.134-0.01,0.2-0.016c0.016-0.001,0.032-0.003,0.049-0.004
			c0.067-0.006,0.133-0.012,0.199-0.019c0,0,0.001,0,0.003,0c0.065-0.007,0.129-0.014,0.194-0.022
			c0.016-0.002,0.031-0.004,0.047-0.006c0.065-0.008,0.129-0.016,0.194-0.025h0.001c0.786-0.11,1.504-0.29,2.118-0.524
			C8.8,14.892,7.665,14.325,6.857,13.45L6.857,13.45z M0.029,9.694C0.03,9.708,0.031,9.722,0.032,9.738
			C0.033,9.746,0.034,9.753,0.035,9.76c0.001,0.014,0.003,0.028,0.006,0.042c0.001,0.008,0.002,0.015,0.004,0.023
			c0.003,0.015,0.006,0.03,0.009,0.045C0.055,9.877,0.056,9.883,0.058,9.89c0.003,0.02,0.009,0.041,0.014,0.062
			c0.001,0.002,0.001,0.004,0.002,0.006c0.005,0.019,0.011,0.037,0.017,0.056c0.002,0.007,0.004,0.013,0.007,0.02
			c0.005,0.014,0.01,0.028,0.015,0.042c0.003,0.007,0.006,0.015,0.009,0.022c0.006,0.014,0.011,0.027,0.017,0.041
			c0.003,0.007,0.006,0.014,0.009,0.021c0.007,0.015,0.014,0.03,0.021,0.045c0.002,0.005,0.005,0.011,0.007,0.016
			c0.01,0.02,0.021,0.04,0.032,0.06c0.002,0.003,0.004,0.006,0.005,0.009c0.01,0.017,0.02,0.034,0.03,0.051
			c0.004,0.006,0.008,0.012,0.012,0.019c0.009,0.014,0.017,0.027,0.026,0.041c0.004,0.007,0.009,0.013,0.014,0.02
			c0.009,0.013,0.019,0.027,0.028,0.04c0.004,0.006,0.009,0.012,0.014,0.019c0.012,0.016,0.024,0.031,0.036,0.047
			c0.003,0.004,0.006,0.007,0.009,0.011c0.016,0.019,0.032,0.039,0.048,0.058c0.002,0.003,0.005,0.006,0.008,0.009
			c0.014,0.016,0.028,0.032,0.043,0.048c0.005,0.005,0.01,0.011,0.015,0.016c0.013,0.014,0.025,0.027,0.038,0.041
			c0.006,0.006,0.012,0.012,0.017,0.017c0.013,0.014,0.027,0.027,0.041,0.041c0.005,0.005,0.01,0.01,0.015,0.015
			c0.018,0.017,0.036,0.034,0.055,0.05c0.001,0.001,0.003,0.003,0.004,0.004c0.021,0.019,0.042,0.037,0.064,0.056
			c0.003,0.002,0.006,0.005,0.009,0.007c0.018,0.016,0.037,0.031,0.056,0.046c0.006,0.004,0.011,0.009,0.017,0.014
			c0.017,0.013,0.034,0.027,0.052,0.04c0.006,0.005,0.012,0.009,0.018,0.014c0.018,0.014,0.037,0.028,0.056,0.042
			c0.005,0.003,0.01,0.007,0.015,0.01c0.049,0.035,0.1,0.07,0.153,0.104c0.002,0.001,0.005,0.003,0.007,0.004
			c0.024,0.015,0.047,0.03,0.071,0.045c0.006,0.003,0.011,0.007,0.016,0.01c0.022,0.014,0.044,0.027,0.066,0.04
			c0.006,0.003,0.011,0.007,0.017,0.01c0.024,0.014,0.049,0.028,0.074,0.042c0.003,0.002,0.006,0.004,0.01,0.005
			c0.059,0.033,0.119,0.065,0.181,0.097c0.001,0.001,0.003,0.001,0.004,0.002c0.029,0.015,0.058,0.029,0.087,0.043
			c0.004,0.002,0.009,0.004,0.014,0.007c0.027,0.013,0.055,0.026,0.083,0.039c0.004,0.002,0.009,0.004,0.013,0.006
			c0.13,0.06,0.266,0.118,0.409,0.172c0.003,0.001,0.006,0.003,0.009,0.004c0.033,0.013,0.067,0.025,0.101,0.038
			c0.002,0.001,0.004,0.002,0.006,0.002c0.147,0.054,0.3,0.105,0.458,0.152l0.004,0.001c0.48,0.145,1.009,0.26,1.572,0.339l0,0
			h0.001c0.019,0.002,0.038,0.005,0.056,0.007c0.037,0.005,0.074,0.01,0.111,0.015c0.009,0.001,0.017,0.002,0.026,0.003
			c0.016,0.002,0.031,0.004,0.047,0.006c0.004,0.001,0.009,0.001,0.013,0.001c0.047,0.006,0.094,0.011,0.141,0.016
			c0.013,0.001,0.026,0.003,0.039,0.004c0.001,0,0.002,0,0.003,0c0.02,0.002,0.04,0.004,0.06,0.006
			c0.036,0.004,0.072,0.007,0.108,0.01c0.01,0.001,0.02,0.002,0.03,0.003c0.016,0.001,0.032,0.003,0.049,0.004
			c0.004,0,0.008,0.001,0.011,0.001c0.054,0.005,0.109,0.009,0.164,0.013c0.008,0.001,0.016,0.001,0.024,0.002c0,0,0.001,0,0.002,0
			c0.02,0.001,0.04,0.002,0.06,0.004c0.037,0.002,0.074,0.004,0.111,0.007c0.011,0,0.021,0.001,0.032,0.002
			c0.017,0.001,0.034,0.002,0.05,0.003c0.003,0,0.005,0,0.008,0c0.056,0.003,0.112,0.005,0.168,0.007
			c0.01,0,0.019,0.001,0.029,0.001c0.001,0,0.001,0,0.001,0c0.02,0.001,0.04,0.001,0.059,0.001c0.037,0.001,0.074,0.002,0.111,0.003
			c0.013,0,0.025-0.006,0.038-0.006c0.017,0,0.035-0.006,0.052-0.006h0.003c0.001,0-0.006,0.007-0.006,0.007v0.003
			c0.079,0.001,0.13,0.003,0.186,0.003c-0.314-0.63-0.491-1.342-0.491-2.092c0-0.018,0.001-0.027,0.001-0.058l0,0
			c-0.015,0-0.029,0.001-0.044,0.001c-0.078-0.003-0.156-0.006-0.233-0.01c-0.01-0.001-0.019-0.001-0.028-0.001
			c-0.077-0.004-0.153-0.009-0.229-0.015c-0.006-0.001-0.012-0.001-0.017-0.001c-0.078-0.006-0.155-0.013-0.231-0.02
			c-0.013-0.001-0.025-0.003-0.038-0.004c-0.075-0.008-0.149-0.016-0.223-0.025c-0.012-0.001-0.024-0.003-0.035-0.004
			C4.451,10.11,4.375,10.1,4.3,10.09c-0.002,0-0.005-0.001-0.007-0.001c-0.076-0.011-0.151-0.022-0.225-0.034
			c-0.007-0.001-0.015-0.002-0.022-0.004c-0.073-0.012-0.145-0.024-0.217-0.038c-0.011-0.002-0.021-0.004-0.032-0.006
			C3.732,10,3.662,9.986,3.591,9.97C3.584,9.97,3.578,9.969,3.571,9.967c-0.146-0.03-0.289-0.063-0.428-0.098
			C3.136,9.866,3.129,9.865,3.122,9.864c-0.068-0.017-0.134-0.035-0.2-0.053C2.914,9.807,2.907,9.806,2.899,9.804
			C2.832,9.785,2.766,9.765,2.7,9.746C2.699,9.745,2.697,9.745,2.695,9.744C2.627,9.722,2.56,9.701,2.494,9.68
			c-0.001,0-0.001-0.001-0.001-0.001c-0.065-0.022-0.128-0.036-0.19-0.058c-0.001,0-0.002,0-0.003,0l0,0
			C2.298,9.622,2.295,9.623,2.293,9.623l0,0C2.22,9.597,2.149,9.569,2.079,9.541C2.076,9.54,2.072,9.538,2.069,9.537
			C2,9.508,1.932,9.479,1.866,9.449C1.862,9.448,1.859,9.446,1.855,9.444c-0.066-0.03-0.132-0.06-0.195-0.092
			C1.657,9.351,1.654,9.35,1.651,9.347c-0.066-0.033-0.131-0.066-0.194-0.1H1.456C1.397,9.215,1.34,9.184,1.284,9.151
			C1.28,9.149,1.276,9.147,1.273,9.145c-0.119-0.07-0.23-0.143-0.334-0.218l0,0C0.527,8.628,0.24,8.293,0.108,7.937
			C0.09,7.889,0.075,7.842,0.063,7.794H0.025V9.61c0,0.021,0.001,0.043,0.002,0.064C0.028,9.68,0.028,9.687,0.029,9.694L0.029,9.694
			z M0.029,6.444C0.03,6.459,0.031,6.473,0.032,6.488c0.001,0.007,0.002,0.015,0.003,0.023c0.001,0.014,0.004,0.028,0.006,0.042
			C0.042,6.56,0.043,6.568,0.044,6.575C0.047,6.59,0.05,6.606,0.053,6.621c0.001,0.006,0.002,0.011,0.003,0.016
			c0.01,0.043,0.021,0.085,0.035,0.127c0.001,0.004,0.003,0.008,0.004,0.012c0.007,0.019,0.013,0.036,0.02,0.054
			C0.117,6.834,0.118,6.839,0.12,6.843C0.127,6.86,0.135,6.879,0.143,6.897c0.001,0.002,0.002,0.005,0.003,0.007
			c0.441,0.987,2.058,1.782,4.165,2.078l0,0h0.001C4.376,8.991,4.44,8.999,4.505,9.007C4.521,9.009,4.536,9.01,4.552,9.012
			c0.064,0.008,0.129,0.015,0.194,0.022c0.001,0,0.002,0,0.003,0c0.065,0.007,0.132,0.014,0.199,0.019
			C4.964,9.055,4.98,9.057,4.997,9.057c0.066,0.006,0.133,0.011,0.2,0.015c0,0,0.001,0,0.002,0c0.068,0.005,0.135,0.009,0.204,0.012
			C5.42,9.086,5.437,9.087,5.454,9.087c0,0,0.002,0,0.003,0c0.1,0.005,0.2,0.009,0.301,0.012C5.97,8.269,6.404,7.527,6.991,6.94
			c-0.015,0.003-0.027,0.004-0.04,0.005c-0.008,0-0.017,0.001-0.025,0.001c-0.001,0-0.002,0-0.002,0
			C6.898,6.948,6.872,6.949,6.846,6.95C6.795,6.953,6.743,6.956,6.692,6.958c-0.013,0-0.026,0.001-0.039,0.001
			c-0.002,0-0.004,0-0.005,0c-0.002,0-0.004,0-0.005,0C6.567,6.963,6.491,6.965,6.414,6.967c-0.013,0-0.026,0-0.039,0.001
			C6.294,6.969,6.212,6.97,6.129,6.97S5.964,6.969,5.882,6.968c-0.013,0-0.026,0-0.039-0.001C5.766,6.965,5.688,6.963,5.611,6.96
			c-0.004,0-0.007,0-0.011,0C5.589,6.959,5.577,6.958,5.567,6.958C5.508,6.956,5.45,6.953,5.392,6.949
			C5.373,6.948,5.353,6.948,5.334,6.947c-0.002,0-0.004,0-0.006,0C5.321,6.946,5.313,6.945,5.306,6.945
			C5.28,6.943,5.255,6.941,5.229,6.939c-0.051-0.003-0.102-0.006-0.152-0.01c-0.004,0-0.009-0.001-0.013-0.001
			c-0.002,0-0.003,0-0.005,0C5.015,6.924,4.971,6.92,4.926,6.916C4.894,6.913,4.861,6.91,4.828,6.907
			c-0.004,0-0.009-0.001-0.013-0.001C4.807,6.905,4.798,6.904,4.79,6.903C4.715,6.896,4.641,6.887,4.567,6.879
			C4.562,6.878,4.556,6.877,4.551,6.877C4.544,6.876,4.538,6.875,4.532,6.875C4.456,6.866,4.38,6.856,4.305,6.845
			c0,0-0.002,0-0.003,0s-0.003,0-0.004,0C4.263,6.84,4.228,6.834,4.193,6.829C4.176,6.825,4.157,6.823,4.139,6.82
			C4.117,6.816,4.095,6.813,4.074,6.81C4.067,6.809,4.059,6.807,4.052,6.806C4.03,6.803,4.008,6.799,3.986,6.795
			c-0.05-0.009-0.101-0.017-0.151-0.026C3.83,6.768,3.825,6.767,3.819,6.766c-0.005-0.001-0.01-0.002-0.016-0.003
			C3.732,6.75,3.661,6.736,3.591,6.722C3.584,6.72,3.578,6.719,3.57,6.717C3.498,6.702,3.425,6.686,3.354,6.67
			C3.283,6.653,3.212,6.636,3.142,6.619c-0.007-0.001-0.013-0.003-0.02-0.005c-0.068-0.017-0.134-0.035-0.2-0.054
			C2.914,6.558,2.907,6.556,2.899,6.554C2.832,6.535,2.766,6.516,2.7,6.495c-0.002,0-0.003-0.001-0.005-0.002
			C2.627,6.473,2.56,6.452,2.494,6.43c-0.001,0-0.001-0.001-0.001-0.001c-0.065-0.022-0.128-0.044-0.19-0.066
			C2.3,6.362,2.296,6.361,2.292,6.359l0,0C2.248,6.343,2.205,6.327,2.162,6.31C2.15,6.305,2.137,6.3,2.124,6.295
			c-0.03-0.012-0.06-0.024-0.09-0.036C2.02,6.254,2.006,6.248,1.992,6.242C1.961,6.229,1.931,6.216,1.9,6.203
			C1.89,6.198,1.879,6.194,1.868,6.189C1.827,6.171,1.787,6.153,1.747,6.135C1.744,6.133,1.741,6.132,1.738,6.13
			C1.702,6.113,1.665,6.096,1.63,6.079C1.62,6.074,1.61,6.069,1.6,6.064c-0.03-0.015-0.059-0.03-0.087-0.045
			c-0.01-0.005-0.019-0.01-0.029-0.015C1.45,5.987,1.418,5.969,1.386,5.951C1.382,5.949,1.378,5.947,1.374,5.945
			C1.337,5.924,1.3,5.903,1.263,5.881C1.262,5.88,1.261,5.88,1.26,5.879c-0.034-0.02-0.067-0.04-0.1-0.061
			C1.154,5.814,1.148,5.81,1.142,5.806C1.113,5.788,1.084,5.769,1.056,5.75c-0.005-0.003-0.01-0.006-0.014-0.01
			c-0.1-0.068-0.193-0.137-0.279-0.209c-0.004-0.002-0.007-0.004-0.01-0.007C0.726,5.502,0.7,5.479,0.674,5.456
			C0.673,5.455,0.672,5.454,0.67,5.453C0.615,5.403,0.562,5.352,0.514,5.3C0.487,5.272,0.461,5.244,0.437,5.215
			C0.435,5.214,0.434,5.212,0.433,5.211C0.432,5.209,0.431,5.208,0.43,5.207C0.419,5.194,0.408,5.182,0.398,5.169
			C0.397,5.167,0.396,5.166,0.395,5.165C0.392,5.161,0.389,5.158,0.386,5.154C0.37,5.135,0.355,5.115,0.341,5.096
			c0,0,0,0-0.001-0.001C0.326,5.076,0.312,5.056,0.298,5.036c-0.005-0.007-0.01-0.015-0.015-0.022
			c-0.007-0.01-0.014-0.021-0.021-0.032C0.257,4.973,0.251,4.964,0.245,4.955c-0.006-0.01-0.012-0.02-0.018-0.029
			C0.22,4.912,0.212,4.899,0.205,4.885C0.203,4.882,0.201,4.878,0.199,4.874C0.194,4.866,0.19,4.858,0.186,4.849
			C0.184,4.846,0.182,4.843,0.181,4.84C0.176,4.831,0.172,4.822,0.168,4.814C0.164,4.806,0.16,4.798,0.156,4.79
			C0.155,4.787,0.154,4.784,0.153,4.781C0.147,4.77,0.142,4.758,0.137,4.746C0.134,4.741,0.132,4.736,0.13,4.73
			C0.124,4.717,0.119,4.702,0.113,4.688C0.111,4.683,0.109,4.677,0.107,4.672C0.105,4.666,0.103,4.659,0.101,4.653
			c-0.005-0.015-0.01-0.029-0.015-0.045C0.084,4.602,0.082,4.596,0.08,4.59C0.074,4.57,0.068,4.549,0.063,4.528H0.025v1.831
			c0,0.022,0.001,0.043,0.002,0.064C0.028,6.431,0.028,6.437,0.029,6.444L0.029,6.444z"/> </g> <path class="st1" d="M6.688,10.17c0,1.105,0.371,2.092,1.118,2.837c0.55,0.549,1.534,1.155,2.615,1.155
		c0.899,0,1.596-0.151,2.254-0.592l2.064,2.083l1.238-1.22l-2.073-2.091c0.694-1.048,0.777-2.611,0.213-3.761
		C12.95,6.203,9.899,5.684,8.084,7.28C7.59,7.714,7.377,7.986,7.057,8.618C6.866,8.997,6.688,9.606,6.688,10.17L6.688,10.17z
		 M10.665,7.945c1.304,0,2.361,1.057,2.361,2.361s-1.057,2.361-2.361,2.361s-2.361-1.057-2.361-2.361
		C8.304,9.002,9.361,7.945,10.665,7.945z"/> </g> 
    </symbol>
    <symbol id="file-check" viewBox="0 0 434.168 434.168">
       <g> <path d="M332.318,230.196V34.967H40.93v364.235h134.038c9.616,0,17.483,7.867,17.483,17.483s-7.867,17.483-17.483,17.483H23.446
		c-9.616,0-17.483-7.867-17.483-17.483V17.483C5.963,7.867,13.831,0,23.446,0h326.354c9.616,0,17.483,7.867,17.483,17.483v212.713
		c0,9.616-7.867,17.483-17.483,17.483S332.318,239.812,332.318,230.196z M422.357,272.739c-7.285-6.411-18.357-5.828-24.768,1.457
		l-95.867,106.648l-48.079-46.331c-6.993-6.702-18.066-6.411-24.768,0.583s-6.411,18.066,0.583,24.768l61.191,58.86
		c3.205,3.205,7.576,4.954,12.238,4.954c0.291,0,0.291,0,0.583,0c4.662-0.291,9.324-2.331,12.238-5.828l107.814-120.052
		C430.224,290.222,429.641,279.15,422.357,272.739z M268.212,101.986H110.863c-9.616,0-17.483,7.867-17.483,17.483
		s7.867,17.483,17.483,17.483h157.349c9.616,0,17.483-7.867,17.483-17.483S277.828,101.986,268.212,101.986z M285.696,215.627
		c0-9.616-7.867-17.483-17.483-17.483H110.863c-9.616,0-17.483,7.867-17.483,17.483c0,9.616,7.867,17.483,17.483,17.483h157.349
		C277.828,233.11,285.696,225.243,285.696,215.627z M110.863,291.388c-9.616,0-17.483,7.867-17.483,17.483
		c0,9.616,7.867,17.483,17.483,17.483h46.622c9.616,0,17.483-7.867,17.483-17.483c0-9.616-7.867-17.483-17.483-17.483H110.863z"/> </g> 
    </symbol>
    <symbol id="filepath" viewBox="0 0 1024 1024">
        <path d="M899.52 256l-227.52-227.52v-28.48h-576v1024h832v-768h-28.48zM672 99.52l156.48 156.48h-156.48v-156.48zM864 960h-704v-896h448v256h256v640zM608 704h-64v-448h-128v-64h-192v192h192v-64h64v448h128v64h192v-192h-192v64zM352 320h-64v-64h64v64zM672 704h64v64h-64v-64z"/> 
    </symbol>
    <symbol id="folder" viewBox="0 0 1024 1024">
       <title/>  <path d="M40.576 396.608v455.808c0 31.424 25.856 57.088 57.728 57.088h827.328c31.872 0 57.728-25.536 57.728-57.088v-463.36h-942.784v7.552z"/> <path d="M925.696 200h-402.56v-12.416c0-40.32-32.256-73.088-71.744-73.088h-339.136c-39.488 0-71.744 32.768-71.744 73.088v139.136h942.912v-69.632c0-31.488-25.856-57.088-57.728-57.088v0z"/> 
    </symbol>
    <symbol id="forward-play" viewBox="0 0 1024 1024">
        <path d="M804.544 0h-585.088c-121.216 0-219.456 98.24-219.456 219.456v585.152c0 121.152 98.24 219.392 219.456 219.392h585.152c121.152 0 219.392-98.24 219.392-219.456v-585.088c0-121.216-98.24-219.456-219.456-219.456zM365.696 730.368v-436.864l365.696 218.432-365.696 218.432z"/> 
    </symbol>
    <symbol id="gear" viewBox="0 0 268.765 268.765">
       <g id="Settings"> <g> <path d="M267.92,119.461c-0.425-3.778-4.83-6.617-8.639-6.617
			c-12.315,0-23.243-7.231-27.826-18.414c-4.682-11.454-1.663-24.812,7.515-33.231c2.889-2.641,3.24-7.062,0.817-10.133
			c-6.303-8.004-13.467-15.234-21.289-21.5c-3.063-2.458-7.557-2.116-10.213,0.825c-8.01,8.871-22.398,12.168-33.516,7.529
			c-11.57-4.867-18.866-16.591-18.152-29.176c0.235-3.953-2.654-7.39-6.595-7.849c-10.038-1.161-20.164-1.197-30.232-0.08
			c-3.896,0.43-6.785,3.786-6.654,7.689c0.438,12.461-6.946,23.98-18.401,28.672c-10.985,4.487-25.272,1.218-33.266-7.574
			c-2.642-2.896-7.063-3.252-10.141-0.853c-8.054,6.319-15.379,13.555-21.74,21.493c-2.481,3.086-2.116,7.559,0.802,10.214
			c9.353,8.47,12.373,21.944,7.514,33.53c-4.639,11.046-16.109,18.165-29.24,18.165c-4.261-0.137-7.296,2.723-7.762,6.597
			c-1.182,10.096-1.196,20.383-0.058,30.561c0.422,3.794,4.961,6.608,8.812,6.608c11.702-0.299,22.937,6.946,27.65,18.415
			c4.698,11.454,1.678,24.804-7.514,33.23c-2.875,2.641-3.24,7.055-0.817,10.126c6.244,7.953,13.409,15.19,21.259,21.508
			c3.079,2.481,7.559,2.131,10.228-0.81c8.04-8.893,22.427-12.184,33.501-7.536c11.599,4.852,18.895,16.575,18.181,29.167
			c-0.233,3.955,2.67,7.398,6.595,7.85c5.135,0.599,10.301,0.898,15.481,0.898c4.917,0,9.835-0.27,14.752-0.817
			c3.897-0.43,6.784-3.786,6.653-7.696c-0.451-12.454,6.946-23.973,18.386-28.657c11.059-4.517,25.286-1.211,33.281,7.572
			c2.657,2.89,7.047,3.239,10.142,0.848c8.039-6.304,15.349-13.534,21.74-21.494c2.48-3.079,2.13-7.559-0.803-10.213
			c-9.353-8.47-12.388-21.946-7.529-33.524c4.568-10.899,15.612-18.217,27.491-18.217l1.662,0.043
			c3.853,0.313,7.398-2.655,7.865-6.588C269.044,139.917,269.058,129.639,267.92,119.461z M134.595,179.491
			c-24.718,0-44.824-20.106-44.824-44.824c0-24.717,20.106-44.824,44.824-44.824c24.717,0,44.823,20.107,44.823,44.824
			C179.418,159.385,159.312,179.491,134.595,179.491z"/> </g> </g> 
    </symbol>
    <symbol id="global" viewBox="0 0 1024 1024">
        <path d="M512 0c-272.576 0-494.784 213.184-510.464 481.856h-1.536v60.224h1.536c15.68 268.736 237.888 481.92 510.464 481.92 282.752 0 512-229.248 512-512s-229.248-512-512-512zM961.6 481.856h-119.488c-3.136-82.56-19.2-159.552-44.544-227.008 7.232-4.096 14.4-8.128 21.696-12.992 15.616-10.432 21.824-24.576 22.528-36.736 68.352 73.728 112.704 169.92 119.808 276.736zM782.208 481.856h-240.064v-180.8c86.976-0.448 147.456-3.968 201.024-21.824 21.76 60.096 36.096 128.512 39.040 202.624zM542.144 542.144h240.064c-2.944 74.112-17.28 142.592-39.040 202.624-53.568-17.856-114.048-21.312-201.024-21.824v-180.8zM819.456 182.528c-0.064 0-0.128 0-0.128 0.064-14.784 8.896-28.992 16-43.2 22.336-17.28-35.584-37.184-67.968-59.84-95.488 37.952 19.328 72.384 44.288 103.168 73.088zM719.872 224.96c-49.28 12.544-103.936 15.040-177.728 15.488v-177.28c71.616 13.248 134.080 74.048 177.728 161.792zM481.856 63.168v177.152c-72-0.704-128.64-4.48-177.344-16.256 43.648-87.232 105.92-147.712 177.344-160.896zM307.776 109.44c-22.72 27.52-42.624 59.968-59.968 95.552-14.656-6.4-29.056-13.568-43.136-22.464-0.064-0.064-0.128 0-0.128-0.064 30.784-28.736 65.216-53.696 103.232-73.024zM180.16 207.168c0.128 13.12 6.592 27.52 24.512 34.688 8.256 3.328 15.616 6.144 23.232 9.088-26.304 68.416-42.88 146.752-46.080 230.912h-119.424c7.040-105.792 50.56-201.216 117.76-274.688zM180.16 816.832c-67.2-73.472-110.72-168.896-117.824-274.688h119.488c3.2 84.16 19.776 162.496 46.080 230.912-7.616 3.008-14.976 5.824-23.232 9.088-17.92 7.168-24.32 21.568-24.512 34.688zM204.544 841.472c0.064-0.064 0.128 0 0.192-0.064 14.080-8.896 28.416-16 43.136-22.464 17.344 35.648 37.248 68.032 59.904 95.616-38.016-19.328-72.448-44.288-103.232-73.088zM481.856 960.832c-71.424-13.184-133.696-73.664-177.344-160.96 48.64-11.712 105.344-15.488 177.344-16.256v177.216zM481.856 723.264c-88.96 1.472-140.352 10.048-198.4 29.376-23.424-61.824-38.592-133.248-41.664-210.496h240.064v181.12zM241.792 481.856c3.072-77.248 18.24-148.672 41.664-210.496 58.048 19.392 109.44 27.904 198.4 29.376v181.12h-240.064zM542.144 960.832v-177.28c73.792 0.448 128.512 2.944 177.728 15.488-43.648 87.744-106.112 148.544-177.728 161.792zM716.224 914.56c22.656-27.52 42.56-59.904 59.84-95.488 14.144 6.4 28.416 13.504 43.2 22.336 0.064 0.064 0.128 0 0.192 0.064-30.784 28.8-65.216 53.76-103.232 73.088zM841.792 818.88c-0.704-12.16-6.912-26.304-22.528-36.736-7.296-4.864-14.528-8.896-21.696-12.992 25.408-67.52 41.408-144.448 44.544-227.008h119.488c-7.104 106.816-51.456 203.008-119.808 276.736z"/> 
    </symbol>
    <symbol id="hdfs" viewBox="0 0 32 32">
       <path d="M-0.008 30.94h23.478v-21.342h-23.478v21.342zM4.262 13.866h14.94v12.806h-14.94v-12.806zM4.262 5.328v2.134h21.344v19.208h2.134v-21.342h-23.478zM29.872 1.060h-21.342v2.134h21.342v19.208h2.134v-21.342h-2.134z"/> 
    </symbol>
    <symbol id="home" viewBox="0 0 32 32">
       <path d="M22.342 25.512h-12.684v-9.512h-1.586l7.928-7.928 7.928 7.928h4.756l-12.684-12.684-12.684 12.684v1.586h3.172v11.098h19.024v-7.928h-3.17z"/> 
    </symbol>
    <symbol id="hyperbase" viewBox="0 0 32 32">
       <path d="M15.296 16.52l0.1-6.098-4.486 3.492z"/> <path d="M15.56 18.482l-5.454 3.136 5.454 2.71z"/> <path d="M14.898 17.28l-4.474-2.658-0.45 5.712z"/> <path d="M16.416 18.42v5.94l5.54-2.754z"/> <path d="M16.58 10.394l0.1 6.19 4.442-2.64z"/> <path d="M17.186 17.28l4.964 3.080-0.452-5.762z"/> <path d="M30.116 25.972l-2.050-15.556-12.078-10.408-12.032 10.346-2.070 15.628h0.006l14.106 6.010 14.118-6.020zM16.416 24.36v-5.94l5.542 3.186-5.542 2.754zM16.58 10.394l4.542 3.55-4.442 2.64-0.1-6.19zM15.296 16.52l-4.386-2.606 4.486-3.492-0.1 6.098zM10.424 14.622l4.474 2.658-4.924 3.054 0.45-5.712zM15.56 18.482v5.846l-5.452-2.71 5.452-3.136zM16.416 25.316l6.432-3.198 6.046 3.478-12.478 5.318v-5.598zM17.186 17.28l4.512-2.682 0.454 5.762-4.966-3.080zM21.912 13.476l-5.35-4.184-0.128-7.812 10.474 9.026-4.996 2.97zM15.414 9.322l-5.294 4.122-5.024-2.984 10.448-8.982-0.13 7.844zM4.674 11.204l4.93 2.93-0.532 6.762-6.192 3.842 1.794-13.534zM3.266 25.552l5.95-3.422 6.344 3.152v5.628l-12.41-5.29 0.116-0.068zM29.114 24.682l-6.060-3.76-0.536-6.81 4.826-2.868 1.77 13.438z"/> 
    </symbol>
    <symbol id="inceptor" viewBox="0 0 32 32">
       <path d="M25.752 22.812c0-0.66 0-1.318 0-1.978-0.008-0.034-0.054-1.074-0.152-1.554-0.202-0.982-0.54-1.918-0.954-2.828-0.008-0.018-0.018-0.032-0.034-0.060-0.358 0.774-0.644 1.56-0.864 2.386-0.034-0.036-0.054-0.054-0.072-0.076-1.298-1.502-2.596-3.004-3.892-4.508-0.032-0.036-0.052-0.096-0.052-0.144-0.004-0.382-0.008-0.762-0.002-1.146 0.016-0.88-0.026-1.758-0.156-2.63-0.12-0.818-0.288-1.628-0.5-2.428-0.72-2.7-1.768-5.274-3.044-7.758-0.012-0.024-0.028-0.046-0.048-0.078-0.022 0.038-0.034 0.062-0.048 0.088-0.92 1.788-1.708 3.632-2.356 5.536-0.528 1.548-0.952 3.12-1.176 4.744-0.084 0.602-0.136 1.206-0.144 1.814-0.008 0.622-0.002 1.244-0.006 1.866-0.002 0.050-0.024 0.11-0.056 0.15-0.214 0.258-2.8 3.256-3.872 4.504-0.020 0.024-0.032 0.058-0.046 0.088-0.012-0.010-0.024-0.020-0.036-0.030-0.216-0.81-0.502-1.594-0.872-2.354-0.162 0.368-0.32 0.732-0.456 1.104-0.386 1.058-0.688 2.132-0.642 3.276 0 0.018-0.022 1.374-0.022 2.034 0.030 0.012 0.058 0.022 0.088 0.034 0.356 0.134 0.72 0.224 1.102 0.214 0.34-0.008 0.666-0.094 0.984-0.212 0.064-0.024 0.088-0.054 0.086-0.124-0.006-0.27-0.002-0.54-0.008-0.81-0.002-0.072 0.020-0.114 0.080-0.152 0.234-0.15 0.464-0.306 0.696-0.46 0.966-0.642 1.934-1.286 2.902-1.926 0.032-0.022 0.088-0.038 0.12-0.026 0.684 0.248 1.384 0.436 2.096 0.568 0.538 0.1 1.078 0.162 1.624 0.154 0.392-0.006 0.782-0.046 1.17-0.096 0.852-0.11 1.676-0.332 2.482-0.628 0.058-0.022 0.1-0.010 0.148 0.020 1.2 0.794 2.4 1.588 3.602 2.38 0.058 0.038 0.078 0.080 0.078 0.146-0.004 0.276 0 0.55 0 0.826 0 0.044 0.002 0.082 0.054 0.102 0.328 0.124 0.664 0.212 1.016 0.22 0.412 0.010 0.802-0.094 1.182-0.248zM17.49 8.83c0 0.83-0.674 1.504-1.504 1.504s-1.504-0.674-1.504-1.504 0.674-1.504 1.504-1.504c0.832-0.002 1.504 0.672 1.504 1.504z"/> <path d="M18.306 24.716c0.084 0.272 0.176 0.544 0.252 0.818 0.224 0.788 0.348 1.592 0.296 2.412-0.102 1.618-0.826 2.878-2.208 3.742-0.154 0.096-0.322 0.166-0.48 0.258-0.112 0.064-0.206 0.050-0.316-0.008-0.732-0.386-1.324-0.926-1.774-1.618-0.388-0.596-0.624-1.25-0.734-1.952-0.098-0.622-0.092-1.244-0.018-1.868 0.068-0.582 0.2-1.148 0.368-1.708 0.002-0.008 0.008-0.016 0.022-0.040-0.014 0.14-0.026 0.262-0.038 0.382-0.044 0.408-0.046 0.816-0.018 1.224 0.040 0.55 0.156 1.082 0.386 1.586 0.38 0.828 0.972 1.442 1.822 1.796 0.098 0.042 0.186 0.042 0.282 0 0.888-0.364 1.502-1 1.882-1.872 0.184-0.424 0.282-0.872 0.33-1.332 0.060-0.594 0.024-1.184-0.068-1.772-0.002-0.016-0.002-0.032-0.002-0.048 0.004 0.004 0.010 0.002 0.016 0z"/> <path d="M19.73 20.114c0.002 0.038 0.006 0.066 0.006 0.094 0.002 0.426 0.002 0.852 0.008 1.278 0 0.070-0.022 0.102-0.084 0.124-0.724 0.258-1.464 0.456-2.224 0.586-0.636 0.106-1.274 0.154-1.916 0.114-0.574-0.036-1.146-0.116-1.702-0.262-0.496-0.13-0.984-0.288-1.474-0.432-0.050-0.014-0.086-0.032-0.086-0.096 0.002-0.448 0-0.898 0-1.346 0-0.014 0.004-0.028 0.008-0.052 0.030 0.008 0.056 0.016 0.082 0.024 0.744 0.266 1.504 0.462 2.284 0.588 0.53 0.086 1.064 0.136 1.602 0.118 0.912-0.030 1.8-0.202 2.672-0.462 0.258-0.078 0.51-0.17 0.766-0.254 0.014-0.008 0.030-0.012 0.058-0.022z"/> <path d="M16.004 28.264c-0.014-0.024-0.026-0.040-0.034-0.056-0.472-0.974-0.912-1.958-1.232-2.994-0.1-0.324-0.184-0.654-0.222-0.994-0.006-0.056 0.004-0.078 0.056-0.1 0.346-0.144 0.704-0.234 1.076-0.268 0.614-0.056 1.204 0.026 1.774 0.262 0.050 0.020 0.072 0.040 0.064 0.104-0.058 0.51-0.212 0.996-0.38 1.478-0.3 0.858-0.668 1.686-1.064 2.502-0.010 0.022-0.022 0.040-0.038 0.066z"/> 
    </symbol>
    <symbol id="index" viewBox="0 0 16 16">
        <path class="st0" d="M16,6.999V0h-5.998v2.996h-3v5.003H5.998V5H0v6.999h5.998V9h1.004v4.004h3V16H16V9.001h-5.998v3H8V3.999h2.002
	v2.999H16z M4.998,10.998H1V6h3.998V10.998z M11.002,10.001H15V15h-3.998V10.001z M11.002,1H15v4.999h-3.998V1z"/> 
    </symbol>
    <symbol id="infor" viewBox="0 0 32 32">
       <path d="M16 3.6c6.838 0 12.4 5.562 12.4 12.4s-5.562 12.4-12.4 12.4c-6.838 0-12.4-5.562-12.4-12.4s5.562-12.4 12.4-12.4zM16 0.012c-8.83 0-15.988 7.158-15.988 15.988s7.158 15.988 15.988 15.988c8.83 0 15.988-7.158 15.988-15.988s-7.158-15.988-15.988-15.988v0 0z"/> <path d="M18.156 25.602h-4.312c-0.026 0-0.046-0.020-0.046-0.046v-13.124c0-0.026 0.020-0.046 0.046-0.046h4.312c0.026 0 0.046 0.020 0.046 0.046v13.124c0 0.024-0.020 0.046-0.046 0.046v0z"/> <path d="M18.048 8.524c0 1.174-0.952 2.126-2.126 2.126s-2.126-0.952-2.126-2.126c0-1.174 0.952-2.126 2.126-2.126s2.126 0.952 2.126 2.126z"/> 
    </symbol>
    <symbol id="kafka" viewBox="0 0 16 16">
       <path fill="#616B77" d="M9.934,8.594c0.251,0.691,0.919,1.189,1.711,1.189c1.006,0,1.823-0.799,1.823-1.784
	s-0.816-1.784-1.823-1.784c-0.792,0-1.46,0.498-1.711,1.189H8.541C8.462,7.028,8.304,6.68,8.095,6.368l1.554-1.519
	c0.238,0.111,0.5,0.178,0.781,0.178c1.006,0,1.823-0.799,1.823-1.784S11.437,1.46,10.43,1.46S8.608,2.259,8.608,3.244
	c0,0.275,0.069,0.532,0.182,0.765L7.238,5.525C6.92,5.32,6.564,5.163,6.177,5.087V3.729C6.884,3.483,7.392,2.83,7.392,2.055
	c0-0.985-0.816-1.784-1.822-1.784S3.747,1.07,3.747,2.055c0,0.776,0.509,1.429,1.215,1.674v1.358C3.577,5.362,2.532,6.561,2.532,8
	s1.044,2.638,2.43,2.913v1.358c-0.707,0.245-1.215,0.899-1.215,1.674c0,0.985,0.816,1.784,1.822,1.784s1.823-0.799,1.823-1.784
	c0-0.776-0.509-1.429-1.215-1.674v-1.358c0.372-0.074,0.715-0.221,1.024-0.416l1.568,1.532c-0.102,0.223-0.162,0.468-0.162,0.728
	c0,0.985,0.816,1.784,1.822,1.784s1.823-0.799,1.823-1.784s-0.816-1.784-1.823-1.784c-0.266,0-0.517,0.058-0.745,0.159L8.116,9.6
	c0.199-0.303,0.349-0.64,0.425-1.004L9.934,8.594L9.934,8.594z M11.645,7.406c0.335,0,0.608,0.267,0.608,0.594
	c0,0.329-0.272,0.594-0.608,0.594c-0.335,0-0.608-0.266-0.608-0.594C11.037,7.671,11.31,7.406,11.645,7.406z M10.43,2.649
	c0.335,0,0.608,0.267,0.608,0.594c0,0.329-0.272,0.594-0.608,0.594c-0.335,0-0.608-0.267-0.608-0.594S10.095,2.649,10.43,2.649z
	 M5.57,1.459c0.335,0,0.608,0.267,0.608,0.594c0,0.328-0.271,0.595-0.608,0.595c-0.335,0-0.608-0.267-0.608-0.594
	S5.234,1.459,5.57,1.459z M5.57,14.541c-0.335,0-0.608-0.267-0.608-0.594s0.272-0.594,0.608-0.594c0.335,0,0.608,0.267,0.608,0.594
	S5.906,14.541,5.57,14.541z M5.57,9.784C4.563,9.784,3.747,8.985,3.747,8S4.563,6.216,5.57,6.216c0.395,0,0.758,0.126,1.057,0.334
	l0.425,0.415C7.264,7.258,7.392,7.613,7.392,8C7.392,8.985,6.577,9.784,5.57,9.784z M10.43,12.162c0.335,0,0.608,0.267,0.608,0.594
	c0,0.329-0.272,0.594-0.608,0.594c-0.335,0-0.608-0.267-0.608-0.594C9.823,12.428,10.095,12.162,10.43,12.162z"/> 
    </symbol>
    <symbol id="lock" viewBox="0 0 32 32">
       <path d="M12.888 15.182h6.222v-2.454c0-0.904-0.304-1.674-0.912-2.314-0.606-0.64-1.34-0.96-2.198-0.96s-1.592 0.32-2.2 0.958c-0.608 0.64-0.912 1.41-0.912 2.314v2.456zM23 16.41v7.364c0 0.34-0.114 0.63-0.34 0.868-0.228 0.238-0.502 0.358-0.826 0.358h-11.668c-0.324 0-0.6-0.12-0.826-0.358s-0.34-0.528-0.34-0.868v-7.364c0-0.34 0.114-0.63 0.34-0.868 0.228-0.238 0.502-0.358 0.826-0.358h0.388v-2.456c0-1.568 0.534-2.914 1.604-4.040 1.072-1.124 2.352-1.688 3.842-1.688s2.77 0.562 3.84 1.688c1.070 1.126 1.604 2.472 1.604 4.040v2.454h0.388c0.324 0 0.6 0.12 0.826 0.358 0.228 0.24 0.342 0.528 0.342 0.87v0z"/> 
    </symbol>
    <symbol id="midas" viewBox="0 0 1024 1024">
       <title/>  <path d="M998.528 381.184c-5.376-19.968-11.84-39.552-19.584-58.56-22.464-55.296-54.656-106.176-94.784-150.272-16.192-17.792-33.728-34.432-52.416-49.792-60.48-49.728-133.504-86.144-215.424-103.424-225.728-47.744-447.872 63.744-550.144 258.304-9.472 18.048-18.048 36.736-25.344 56.128-8.96 23.808-16.256 48.576-21.696 74.176-52.544 248.384 87.808 492.608 319.552 577.216 22.208 8.128 45.248 14.848 69.056 19.904 0.192 0.064 0.448 0.064 0.64 0.128 272 57.152 538.944-116.8 596.48-388.8 17.088-80.512 13.696-160.576-6.336-235.008zM937.536 373.312c-59.904 64.768-136.192 115.392-224.256 145.28-10.432-13.504-25.344-23.744-43.392-27.584-39.488-8.32-78.016 16.256-87.744 55.040-75.264 6.272-149.248-3.2-218.048-26.368 28.672-73.28 73.6-139.264 130.368-194.112 4.352 1.856 8.96 3.392 13.76 4.416 40.384 8.512 80-17.28 88.512-57.6 1.792-8.384 1.728-16.64 0.704-24.704 45.44-26.56 94.976-47.744 148.864-60.48 20.544-4.864 41.152-8.384 61.632-10.88 59.904 52.864 104.768 121.088 129.6 196.992zM604.608 74.112c53.632 11.328 102.912 31.936 146.688 59.584-5.632 1.152-11.2 2.24-16.832 3.52-57.984 13.824-111.424 36.48-160.512 64.832-9.536-8.768-21.248-15.36-34.816-18.24-40.384-8.512-80 17.28-88.512 57.6-3.712 17.344-0.768 34.368 6.656 49.024-61.248 59.712-109.824 131.2-140.864 210.688-83.904-37.312-157.952-95.424-214.080-169.536 83.456-190.016 291.2-302.080 502.272-257.472zM74.112 419.392c2.24-10.624 4.992-20.992 7.936-31.296 59.456 70.080 134.208 125.184 217.792 161.6-7.36 24.96-13.056 50.432-17.088 76.352-27.264 6.464-49.792 27.84-56 57.024-8.064 38.144 14.656 75.264 51.2 86.464 2.496 28.608 6.912 57.408 13.76 86.144 4.416 18.56 9.728 36.608 15.68 54.336-175.168-89.856-275.968-288.704-233.28-490.624zM949.888 604.608c-51.136 241.856-288.64 396.416-530.496 345.28-15.872-3.392-31.36-7.552-46.464-12.48-12.992-29.696-23.68-60.864-31.424-93.504-6.080-25.664-10.112-51.264-12.416-76.8 21.568-9.28 38.528-28.416 43.776-53.12 7.168-33.792-9.92-66.816-39.296-81.728 3.456-21.696 8.192-43.072 14.144-64 75.648 25.472 157.12 35.904 240.064 28.8 9.792 19.776 27.968 35.2 51.2 40.128 40.384 8.512 80-17.28 88.512-57.6 0.832-4.096 1.152-8.128 1.344-12.16 85.888-28.992 161.536-76.032 223.488-136 10.24 55.68 10.048 114.304-2.432 173.184z"/> 
    </symbol>
    <symbol id="namespace" viewBox="0 0 1024 1024">
        <path d="M512 1.216l-493.312 246.656v526.272l493.312 248.64 493.312-248.704v-526.208l-493.312-246.656zM939.584 280.768l-427.584 213.76-427.584-213.76 427.584-213.824 427.584 213.824zM84.416 346.496l394.688 197.312v396.608l-394.688-198.976v-394.944zM939.584 741.44l-394.688 198.976v-396.544l394.688-197.312v394.88z"/> 
    </symbol>
    <symbol id="next-page" viewBox="0 0 32 32">
       <path d="M10 7.028v17.944l12-8.972-12-8.972z"/> 
    </symbol>
    <symbol id="ok" viewBox="0 0 16 16">
       <path d="M1.023 8.39l-0.997 1.328 6.646 4.984 9.302-12.406-1.33-0.998-8.305 11.078-5.316-3.986z"/> 
    </symbol>
    <symbol id="open-sign" viewBox="0 0 16 16">
       <path d="M-0.007 3.501l8.007 8.998 8.007-8.998h-16.014z"/> 
    </symbol>
    <symbol id="permission" viewBox="0 0 32 32">
       <path d="M3.296 4.142v6.776h25.408v-6.776h-25.408zM27.010 9.224h-5.082v-3.388h5.082v3.388zM3.296 27.858h25.408v-6.776h-25.408v6.776zM21.928 22.776h5.082v3.388h-5.082v-3.388zM3.296 19.388h25.408v-6.776h-25.408v6.776zM15.154 14.306h11.858v3.388h-11.858v-3.388z"/> 
    </symbol>
    <symbol id="pilot" viewBox="0 0 16 16">
        <g> <g> <path class="st0" d="M7,6.6l-4.3,5.1L9,9.4l4.3-5.1L7,6.6z M8.8,8.7c-0.4,0.4-1,0.5-1.4,0.1c-0.4-0.4-0.5-1-0.1-1.4
			c0.4-0.4,1-0.5,1.4-0.1C9.1,7.6,9.1,8.2,8.8,8.7z"/> </g> <g> <path class="st0" d="M8,0C3.6,0,0,3.6,0,8c0,4.4,3.6,8,8,8s8-3.6,8-8C16,3.6,12.4,0,8,0z M8,15c-3.9,0-7-3.1-7-7s3.1-7,7-7
			s7,3.1,7,7S11.9,15,8,15z"/> </g> </g> 
    </symbol>
    <symbol id="plus" viewBox="0 0 16 16">
       <path d="M15.5 6h-5.5v-5.5c0-0.276-0.224-0.5-0.5-0.5h-3c-0.276 0-0.5 0.224-0.5 0.5v5.5h-5.5c-0.276 0-0.5 0.224-0.5 0.5v3c0 0.276 0.224 0.5 0.5 0.5h5.5v5.5c0 0.276 0.224 0.5 0.5 0.5h3c0.276 0 0.5-0.224 0.5-0.5v-5.5h5.5c0.276 0 0.5-0.224 0.5-0.5v-3c0-0.276-0.224-0.5-0.5-0.5z"/> 
    </symbol>
    <symbol id="pre-page" viewBox="0 0 32 32">
       <path d="M10 16l12 8.972v-17.944l-12 8.972z"/> 
    </symbol>
    <symbol id="question-bold" viewBox="0 0 1024 1024">
        <path d="M512 2.688c-281.28 0-509.312 228.032-509.312 509.312s228.032 509.312 509.312 509.312 509.312-228.032 509.312-509.312-228.032-509.312-509.312-509.312zM508.544 875.456c-45.184 0-81.92-35.968-81.92-80.256s36.608-80.256 81.92-80.256c45.184 0 81.92 35.968 81.92 80.256s-36.608 80.256-81.92 80.256zM728.576 421.248v0c-16.064 25.28-50.176 59.584-102.464 103.104-27.072 22.464-43.904 40.64-50.432 54.4-6.528 13.632-9.6 38.144-8.96 73.536h-116.608c-0.256-16.768-0.512-26.944-0.512-30.656 0-37.76 6.272-68.8 18.752-93.184s37.504-51.84 74.944-82.176c37.376-30.528 59.84-50.432 67.136-59.84 11.2-14.912 16.96-31.36 16.96-49.28 0-24.896-10.048-46.208-30.016-64.064-19.904-17.728-46.976-26.688-80.768-26.688-32.64 0-59.968 9.344-81.92 27.84s-41.472 59.264-45.312 84.608c-12.288 79.936-117.824 62.4-117.824-14.4 0-48.384 26.56-100.8 69.696-138.816s99.776-57.024 169.856-57.024c73.792 0 132.352 19.264 176 57.792s65.344 83.328 65.344 134.528c0.128 28.288-7.936 55.040-23.872 80.32z"/> 
    </symbol>
    <symbol id="question" viewBox="0 0 1024 1024">
        <path d="M512 0c-282.752 0-512 229.248-512 512s229.248 512 512 512 512-229.248 512-512-229.248-512-512-512zM503.424 816.192c-25.856 0-46.784-20.928-46.784-46.784s20.928-46.784 46.784-46.784 46.784 20.928 46.784 46.784c0 25.856-20.928 46.784-46.784 46.784zM603.456 524.608c-47.232 23.808-66.496 36.416-66.432 65.408v65.6c0 18.496-15.040 33.536-33.536 33.536s-33.536-15.040-33.536-33.536v-65.6c0-73.088 59.712-103.232 103.232-125.248 49.984-25.216 78.272-41.664 78.272-86.848 0-60.672-58.176-103.104-141.44-103.104-70.656 0-117.568 42.048-132.8 83.648-4.032 11.264-5.824 26.752-3.968 35.072 1.92 8.704 0.384 17.728-4.416 25.28s-12.288 12.8-20.992 14.72c-17.664 3.84-36.096-7.872-40-25.408-5.632-25.152 0-54.912 6.464-72.704 27.84-76.352 106.56-127.744 195.776-127.744 122.752 0 208.448 69.952 208.448 170.112 0 88.704-66.496 122.304-115.072 146.816z"/> 
    </symbol>
    <symbol id="queue" viewBox="0 0 1024 1024">
        <path d="M136.896 68.672h-68.224v954.816h818.368v-68.224h-750.144v-886.592zM818.88 409.728h-477.376v68.224h477.376v-68.224zM818.88 205.12h-477.376v68.16h477.376v-68.16zM205.12 0.512v886.592h750.208v-886.592h-750.208zM887.104 818.88h-613.824v-750.208h613.824v750.208zM818.88 614.272h-477.376v68.224h477.376v-68.224z"/> 
    </symbol>
    <symbol id="remove" viewBox="0 0 16 16">
       <path d="M13.389 14.929l-5.389-5.389-5.389 5.389-1.54-1.54 5.389-5.389-5.389-5.389 1.54-1.54 5.389 5.389 5.389-5.389 1.54 1.54-5.389 5.389 5.389 5.389-1.54 1.54z"/> 
    </symbol>
    <symbol id="rubik" viewBox="0 0 16 16">
       <g> <g> <g> <g> <path fill="#616B77" d="M7.439,2.203c0,0.361-0.259,0.798-0.575,0.972L4.948,4.23C4.632,4.404,4.386,4.252,4.402,3.891
					L4.47,2.269c0.015-0.36,0.284-0.802,0.597-0.982L6.87,0.254c0.313-0.179,0.569-0.031,0.569,0.33V2.203z"/> </g> <g> <path fill="#616B77" d="M7.439,6.691c0,0.361-0.262,0.791-0.583,0.957L4.767,8.727c-0.321,0.166-0.57,0.006-0.555-0.354
					l0.084-1.989C4.311,6.023,4.583,5.587,4.9,5.415l1.961-1.063C7.178,4.18,7.438,4.335,7.438,4.695L7.439,6.691L7.439,6.691z"/> </g> <g> <path fill="#616B77" d="M3.027,8.99c-0.021,0.36-0.3,0.79-0.62,0.956l-1.874,0.968c-0.321,0.166-0.555,0.007-0.521-0.352
					L0.2,8.582c0.034-0.359,0.321-0.794,0.639-0.966L2.603,6.66c0.317-0.172,0.56-0.018,0.539,0.342L3.027,8.99z"/> </g> <g> <path fill="#616B77" d="M3.284,4.513C3.263,4.873,2.988,5.31,2.672,5.484l-1.724,0.95C0.631,6.608,0.401,6.457,0.435,6.098
					l0.154-1.626c0.034-0.359,0.318-0.8,0.631-0.979L2.846,2.56c0.313-0.179,0.552-0.032,0.531,0.329L3.284,4.513z"/> </g> </g> <g> <g> <path fill="#616B77" d="M8.561,2.203c0,0.361,0.259,0.798,0.575,0.972l1.916,1.055c0.316,0.174,0.562,0.022,0.547-0.339
					L11.53,2.269c-0.015-0.36-0.284-0.802-0.597-0.982L9.13,0.254c-0.313-0.179-0.569-0.031-0.569,0.33V2.203z"/> </g> <g> <path fill="#616B77" d="M8.561,6.691c0,0.361,0.262,0.791,0.583,0.957l2.089,1.079c0.321,0.166,0.57,0.006,0.555-0.354
					l-0.084-1.989c-0.015-0.36-0.287-0.796-0.605-0.968L9.138,4.353C8.821,4.181,8.561,4.335,8.561,4.696V6.691z"/> </g> <g> <path fill="#616B77" d="M12.973,8.99c0.021,0.36,0.3,0.79,0.62,0.956l1.874,0.968c0.321,0.166,0.555,0.007,0.521-0.352
					L15.8,8.582c-0.034-0.359-0.321-0.794-0.639-0.966L13.397,6.66c-0.317-0.172-0.56-0.018-0.539,0.342L12.973,8.99z"/> </g> <g> <path fill="#616B77" d="M12.716,4.513c0.021,0.36,0.296,0.797,0.612,0.971l1.724,0.95c0.316,0.174,0.547,0.023,0.513-0.337
					l-0.154-1.626c-0.034-0.359-0.318-0.8-0.631-0.979L13.154,2.56c-0.313-0.179-0.552-0.032-0.531,0.329L12.716,4.513z"/> </g> </g> <g> <g> <path fill="#616B77" d="M12.91,13.5c-0.325,0.157-0.855,0.154-1.177-0.007l-2.094-1.046c-0.323-0.161-0.322-0.423,0.002-0.583
					l2.141-1.054c0.324-0.159,0.853-0.159,1.177,0l2.143,1.054c0.324,0.159,0.323,0.418-0.002,0.575L12.91,13.5z"/> </g> <g> <path fill="#616B77" d="M8.348,15.708c-0.325,0.157-0.853,0.152-1.175-0.012l-2.029-1.034c-0.321-0.164-0.32-0.428,0.004-0.587
					l2.067-1.017c0.324-0.159,0.852-0.157,1.175,0.005l2.076,1.042c0.322,0.162,0.321,0.423-0.004,0.58L8.348,15.708z"/> </g> <g> <path fill="#616B77" d="M3.945,13.46c-0.323,0.16-0.851,0.157-1.172-0.007l-1.965-1.001c-0.321-0.164-0.321-0.431,0.002-0.593
					l2.005-1.008c0.322-0.162,0.85-0.162,1.172,0l2.01,1.009c0.322,0.162,0.322,0.425-0.002,0.585L3.945,13.46z"/> </g> <g> <path fill="#616B77" d="M8.41,11.249c-0.323,0.16-0.852,0.159-1.175-0.002l-2.028-1.012c-0.323-0.161-0.323-0.426-0.001-0.588
					l2.076-1.044C7.605,8.44,8.134,8.438,8.458,8.597l2.075,1.02c0.324,0.159,0.324,0.42,0.001,0.58L8.41,11.249z"/> </g> </g> </g> </g> 
    </symbol>
    <symbol id="search" viewBox="0 0 16 16">
       <path d="M15.856 14.647l-4.568-4.598c1.857-2.453 1.668-5.963-0.569-8.2-2.445-2.445-6.409-2.445-8.854 0-2.445 2.444-2.445 6.408 0 8.853 2.236 2.236 5.743 2.427 8.196 0.572l4.569 4.599c0.15 0.15 0.394 0.15 0.544 0l0.681-0.681c0.151-0.151 0.151-0.395 0.001-0.545v0zM3.025 9.576c-1.795-1.795-1.795-4.706 0-6.501s4.706-1.795 6.501 0c1.795 1.795 1.795 4.706 0 6.501-1.796 1.795-4.706 1.795-6.501 0v0z"/> 
    </symbol>
    <symbol id="setting" viewBox="0 0 32 32">
       <path d="M22.224 13.046l3.684 3.684 2.82-2.93-2.918-5.692-4.562-4.562-4.262 4.262 3.704 3.704-4.554 4.11-1.642-1.45c1.57-2.282 1.348-5.426-0.682-7.454-1.618-1.618-3.942-2.068-5.976-1.398l4.788 4.722-3.774 3.774-4.758-4.664c-0.614 2.006-0.152 4.268 1.434 5.854 2.028 2.030 5.172 2.25 7.454 0.682l1.368 1.548-9.066 8.184 3.034 3.034 8.056-8.924 7.882 8.924 3.008-3.008-9.032-7.976 3.994-4.424z"/> 
    </symbol>
    <symbol id="sliders" viewBox="0 0 1024 1024">
      <path d="M881.008308 539.64871l0 380.215558c0 21.451568-17.392112 38.844703-38.844703 38.844703s-38.844703-17.392112-38.844703-38.844703L803.318902 539.64871c0-21.451568 17.392112-38.844703 38.844703-38.844703S881.008308 518.197142 881.008308 539.64871zM842.163605 176.219467c21.451568 0 38.844703-17.393135 38.844703-38.844703L881.008308 104.134709c0-21.451568-17.392112-38.844703-38.844703-38.844703s-38.844703 17.392112-38.844703 38.844703l0 33.240055C803.318902 158.825308 820.712037 176.219467 842.163605 176.219467zM297.095465 512c0 64.439638-51.993165 116.869754-115.90273 116.869754S65.290005 576.439638 65.290005 512s51.993165-116.869754 115.90273-116.869754S297.095465 447.560362 297.095465 512zM219.407082 512c0-21.603017-17.142425-39.181371-38.214347-39.181371s-38.214347 17.578354-38.214347 39.181371 17.142425 39.181371 38.214347 39.181371S219.407082 533.603017 219.407082 512zM627.90273 703.05843c0 64.440661-51.993165 116.869754-115.90273 116.869754-63.908542 0-115.901707-52.429093-115.901707-116.869754 0-64.449871 51.993165-116.878964 115.901707-116.878964C575.909565 586.179466 627.90273 638.608559 627.90273 703.05843zM550.213323 703.05843c0-21.608134-17.141402-39.189557-38.214347-39.189557-21.071921 0-38.213323 17.581424-38.213323 39.189557 0 21.603017 17.141402 39.181371 38.213323 39.181371C533.072945 742.239801 550.213323 724.661448 550.213323 703.05843zM958.708971 343.335602c0 64.440661-51.993165 116.869754-115.901707 116.869754-63.909565 0-115.90273-52.429093-115.90273-116.869754 0-64.439638 51.993165-116.868731 115.90273-116.868731C906.715807 226.466871 958.708971 278.895965 958.708971 343.335602zM881.020588 343.335602c0-21.603017-17.141402-39.180348-38.213323-39.180348-21.071921 0-38.214347 17.577331-38.214347 39.180348s17.142425 39.181371 38.214347 39.181371C863.879186 382.516973 881.020588 364.939643 881.020588 343.335602zM511.986697 858.681814c-21.451568 0-38.844703 17.392112-38.844703 38.844703l0 22.338774c0 21.451568 17.392112 38.844703 38.844703 38.844703s38.844703-17.392112 38.844703-38.844703l0-22.338774C550.8314 876.074949 533.439288 858.681814 511.986697 858.681814zM511.986697 538.278503c21.451568 0 38.844703-17.393135 38.844703-38.844703L550.8314 104.134709c0-21.451568-17.392112-38.844703-38.844703-38.844703s-38.844703 17.392112-38.844703 38.844703l0 395.300115C473.143017 520.885368 490.535129 538.278503 511.986697 538.278503zM181.810812 679.781284c-21.451568 0-38.844703 17.393135-38.844703 38.844703l0 201.239304c0 21.451568 17.392112 38.844703 38.844703 38.844703s38.844703-17.392112 38.844703-38.844703L220.655516 718.624964C220.654492 697.17442 203.26238 679.781284 181.810812 679.781284zM181.810812 346.162997c21.451568 0 38.844703-17.393135 38.844703-38.844703L220.655516 104.134709c0-21.451568-17.392112-38.844703-38.844703-38.844703s-38.844703 17.392112-38.844703 38.844703l0 203.183586C142.966109 328.768839 160.359244 346.162997 181.810812 346.162997z" p-id="3130"/>
    </symbol>
    <symbol id="slim-arrow-down" viewBox="0 0 16 16">
       <path d="M8 11.404c-0.214 0-0.428-0.082-0.591-0.245l-5.136-5.136c-0.327-0.327-0.327-0.856 0-1.183s0.856-0.327 1.183 0l4.544 4.544 4.544-4.544c0.327-0.327 0.856-0.327 1.183 0s0.327 0.856 0 1.183l-5.136 5.136c-0.163 0.163-0.377 0.245-0.591 0.245z"/> 
    </symbol>
    <symbol id="slim-arrow-left" viewBox="0 0 32 32">
       <path d="M24.714 0.010v31.986l-11.62-16.008 11.598-15.978-5.798-0.030-11.62 16.008 11.62 16.008 5.832 0.024v-32.010z"/> 
    </symbol>
    <symbol id="slim-arrow-right" viewBox="0 0 16 16">
       <path d="M11.159 8.591l-5.136 5.136c-0.327 0.327-0.856 0.327-1.183 0s-0.327-0.856 0-1.183l4.544-4.544-4.544-4.544c-0.327-0.327-0.327-0.856 0-1.183s0.856-0.327 1.183 0l5.136 5.136c0.163 0.163 0.245 0.377 0.245 0.591s-0.082 0.428-0.245 0.591z"/> 
    </symbol>
    <symbol id="slipstream" viewBox="0 0 16 16">
       <g> <rect x="0.931" y="7.903" fill-rule="evenodd" clip-rule="evenodd" fill="#616B77" width="14.079" height="0.259"/> <g> <g opacity="0.5"> <g> <path fill-rule="evenodd" clip-rule="evenodd" fill="#616B77" d="M0.297,9.7c0.002-0.008,0.005-0.017,0.006-0.026
					c0.007-0.148,0.036-0.295,0.078-0.44c0.113-0.402,0.292-0.831,0.461-1.182c0.035-0.073,0.536,0.023,0.524,0.045
					C0.949,8.84,0.444,9.741,1.254,9.961C1.42,9.979,1.586,9.969,1.751,9.948C2.149,9.899,2.526,9.805,2.899,9.7
					C3.46,9.542,4.001,9.356,4.535,9.159c0.737-0.27,1.457-0.562,2.168-0.863c0.351-0.148,0.699-0.299,1.045-0.452
					c0.139-0.062,0.352,0.337,0.216,0.395C7.092,8.602,6.209,8.954,5.31,9.286c-0.688,0.255-1.385,0.498-2.101,0.714
					c-0.373,0.112-0.751,0.217-1.139,0.303c-0.211,0.046-0.424,0.087-0.643,0.113c-0.138,0.017-0.276,0.027-0.416,0.022
					c-0.185-0.006-0.352-0.043-0.481-0.139c-0.091-0.068-0.144-0.15-0.178-0.238c-0.03-0.076-0.044-0.154-0.049-0.233
					C0.302,9.816,0.299,9.803,0.297,9.791C0.297,9.761,0.297,9.731,0.297,9.7z"/> </g> <polygon fill-rule="evenodd" clip-rule="evenodd" fill="#616B77" points="6.358,7.943 6.729,7.961 3.896,9.686 3.607,9.619 			
				"/> <polygon fill-rule="evenodd" clip-rule="evenodd" fill="#616B77" points="5.173,7.93 5.462,7.998 2.271,10.135 1.982,10.068 			
				"/> <polygon fill-rule="evenodd" clip-rule="evenodd" fill="#616B77" points="3.988,7.909 4.276,7.976 0.926,10.21 0.83,10.014 			
				"/> <polygon fill-rule="evenodd" clip-rule="evenodd" fill="#616B77" points="2.775,7.934 3.064,8.001 0.654,9.52 0.497,9.356 			"/> </g> <g opacity="0.5"> <g> <path fill-rule="evenodd" clip-rule="evenodd" fill="#616B77" d="M15.703,6.323c-0.002,0.009-0.005,0.017-0.006,0.026
					c-0.007,0.149-0.037,0.295-0.079,0.44c-0.185,0.638-0.537,1.341-0.752,1.698c-0.222,0.53-0.349-0.389-0.272-0.519
					c0.397-0.672,0.95-1.688,0.128-1.906c-0.171-0.018-0.341-0.008-0.51,0.013c-0.409,0.049-0.796,0.143-1.178,0.248
					c-0.576,0.158-1.131,0.344-1.679,0.541C10.599,7.134,9.86,7.425,9.13,7.726C8.886,7.827,8.643,7.929,8.401,8.032
					c-0.258,0.11-0.704-0.19-0.564-0.248c0.894-0.364,1.8-0.715,2.722-1.048c0.706-0.255,1.421-0.498,2.156-0.714
					c0.383-0.113,0.77-0.217,1.169-0.303c0.217-0.047,0.436-0.087,0.66-0.113c0.141-0.016,0.284-0.027,0.427-0.022
					c0.19,0.006,0.361,0.043,0.493,0.139c0.094,0.068,0.148,0.15,0.183,0.238c0.03,0.076,0.045,0.154,0.05,0.233
					c0.001,0.012,0.004,0.025,0.006,0.037C15.703,6.262,15.703,6.293,15.703,6.323z"/> </g> <polygon fill-rule="evenodd" clip-rule="evenodd" fill="#616B77" points="9.744,8.054 9.448,7.987 12.353,6.262 12.65,6.33 			
				"/> <polygon fill-rule="evenodd" clip-rule="evenodd" fill="#616B77" points="11.047,8.043 10.751,7.975 14.024,5.838 14.321,5.905 
							"/> <polygon fill-rule="evenodd" clip-rule="evenodd" fill="#616B77" points="12.138,8.114 11.842,8.047 15.28,5.813 15.378,6.009 
							"/> <polygon fill-rule="evenodd" clip-rule="evenodd" fill="#616B77" points="13.259,8.164 12.963,8.096 15.435,6.577 15.596,6.742 
							"/> </g> <g> <rect x="2.427" y="3.75" fill-rule="evenodd" clip-rule="evenodd" fill="#616B77" width="0.294" height="4.282"/> <rect x="3.623" y="1.856" fill-rule="evenodd" clip-rule="evenodd" fill="#616B77" width="0.294" height="6.176"/> <rect x="4.82" y="1.856" fill-rule="evenodd" clip-rule="evenodd" fill="#616B77" width="0.294" height="6.176"/> <rect x="6.016" y="3.368" fill-rule="evenodd" clip-rule="evenodd" fill="#616B77" width="0.294" height="4.664"/> <g> <path fill-rule="evenodd" clip-rule="evenodd" fill="#616B77" d="M7.772,8.119C7.704,7.894,7.635,7.669,7.563,7.445
					C7.272,6.54,6.94,5.648,6.537,4.777c-0.22-0.476-0.46-0.943-0.76-1.384C5.622,3.166,5.452,2.948,5.242,2.757
					C5.139,2.664,5.028,2.581,4.9,2.516C4.664,2.397,4.425,2.391,4.182,2.496C3.984,2.58,3.825,2.709,3.681,2.852
					C3.43,3.104,3.235,3.388,3.058,3.682C2.727,4.234,2.466,4.814,2.233,5.404C2.06,5.84,1.816,6.481,1.645,7.032
					c-0.192,0.621-0.301,1.13-0.301,1.13H0.79c0,0,0.179-0.598,0.216-0.722c0.118-0.388,0.239-0.775,0.371-1.16
					c0.301-0.884,0.64-1.755,1.053-2.603c0.233-0.48,0.489-0.95,0.807-1.391C3.416,2.036,3.612,1.8,3.863,1.604
					c0.16-0.125,0.336-0.227,0.553-0.26C4.451,1.34,4.486,1.336,4.522,1.332c0.003,0,0.006,0,0.008,0
					C4.602,1.344,4.676,1.35,4.746,1.369c0.205,0.055,0.369,0.169,0.52,0.298C5.502,1.87,5.69,2.106,5.862,2.351
					c0.301,0.43,0.547,0.886,0.772,1.35c0.437,0.902,0.789,1.832,1.111,2.77C7.932,7.018,8.08,7.573,8.246,8.124"/> </g> </g> <g> <rect x="13.22" y="7.968" fill-rule="evenodd" clip-rule="evenodd" fill="#616B77" width="0.294" height="4.282"/> <rect x="12.024" y="7.968" fill-rule="evenodd" clip-rule="evenodd" fill="#616B77" width="0.294" height="6.176"/> <rect x="10.827" y="7.968" fill-rule="evenodd" clip-rule="evenodd" fill="#616B77" width="0.295" height="6.176"/> <rect x="9.631" y="7.968" fill-rule="evenodd" clip-rule="evenodd" fill="#616B77" width="0.294" height="4.664"/> <g> <path fill-rule="evenodd" clip-rule="evenodd" fill="#616B77" d="M8.17,7.881c0.068,0.225,0.137,0.45,0.209,0.675
					c0.291,0.904,0.623,1.797,1.026,2.667c0.22,0.476,0.46,0.943,0.761,1.384c0.155,0.227,0.325,0.445,0.535,0.636
					c0.102,0.093,0.214,0.176,0.342,0.241c0.235,0.119,0.475,0.124,0.718,0.021c0.198-0.085,0.357-0.213,0.501-0.357
					c0.251-0.251,0.446-0.535,0.623-0.829c0.332-0.552,0.592-1.132,0.825-1.722c0.205-0.518,0.467-1.299,0.649-1.886
					c0.144-0.466,0.232-0.807,0.232-0.807h0.589c0,0-0.136,0.325-0.243,0.658c-0.118,0.388-0.239,0.775-0.37,1.16
					c-0.301,0.884-0.641,1.755-1.053,2.603c-0.233,0.48-0.489,0.95-0.807,1.391c-0.179,0.248-0.375,0.484-0.626,0.68
					c-0.16,0.125-0.336,0.227-0.553,0.26c-0.035,0.005-0.071,0.009-0.107,0.013c-0.003,0-0.006,0-0.008,0
					c-0.072-0.012-0.146-0.019-0.216-0.037c-0.205-0.055-0.37-0.169-0.52-0.298c-0.235-0.203-0.423-0.438-0.595-0.684
					c-0.301-0.43-0.547-0.886-0.772-1.35c-0.437-0.902-0.789-1.832-1.111-2.77C8.01,8.982,7.862,8.427,7.696,7.876"/> </g> </g> </g> <path fill-rule="evenodd" clip-rule="evenodd" fill="#616B77" d="M4.661,10.064"/> <path fill-rule="evenodd" clip-rule="evenodd" fill="#616B77" d="M15.079,8.912"/> </g> 
    </symbol>
    <symbol id="sophon" viewBox="0 0 1024 1024">
       <title/>  <path d="M998.528 381.184c-5.376-19.968-11.84-39.552-19.584-58.56-22.464-55.296-54.656-106.176-94.784-150.272-16.192-17.792-33.728-34.432-52.416-49.792-60.48-49.728-133.504-86.144-215.424-103.424-225.728-47.744-447.872 63.744-550.144 258.304-9.472 18.048-18.048 36.736-25.344 56.128-8.96 23.808-16.256 48.576-21.696 74.176-52.544 248.384 87.808 492.608 319.552 577.216 22.208 8.128 45.248 14.848 69.056 19.904 0.192 0.064 0.448 0.064 0.64 0.128 272 57.152 538.944-116.8 596.48-388.8 17.088-80.512 13.696-160.576-6.336-235.008zM937.536 373.312c-59.904 64.768-136.192 115.392-224.256 145.28-10.432-13.504-25.344-23.744-43.392-27.584-39.488-8.32-78.016 16.256-87.744 55.040-75.264 6.272-149.248-3.2-218.048-26.368 28.672-73.28 73.6-139.264 130.368-194.112 4.352 1.856 8.96 3.392 13.76 4.416 40.384 8.512 80-17.28 88.512-57.6 1.792-8.384 1.728-16.64 0.704-24.704 45.44-26.56 94.976-47.744 148.864-60.48 20.544-4.864 41.152-8.384 61.632-10.88 59.904 52.864 104.768 121.088 129.6 196.992zM604.608 74.112c53.632 11.328 102.912 31.936 146.688 59.584-5.632 1.152-11.2 2.24-16.832 3.52-57.984 13.824-111.424 36.48-160.512 64.832-9.536-8.768-21.248-15.36-34.816-18.24-40.384-8.512-80 17.28-88.512 57.6-3.712 17.344-0.768 34.368 6.656 49.024-61.248 59.712-109.824 131.2-140.864 210.688-83.904-37.312-157.952-95.424-214.080-169.536 83.456-190.016 291.2-302.080 502.272-257.472zM74.112 419.392c2.24-10.624 4.992-20.992 7.936-31.296 59.456 70.080 134.208 125.184 217.792 161.6-7.36 24.96-13.056 50.432-17.088 76.352-27.264 6.464-49.792 27.84-56 57.024-8.064 38.144 14.656 75.264 51.2 86.464 2.496 28.608 6.912 57.408 13.76 86.144 4.416 18.56 9.728 36.608 15.68 54.336-175.168-89.856-275.968-288.704-233.28-490.624zM949.888 604.608c-51.136 241.856-288.64 396.416-530.496 345.28-15.872-3.392-31.36-7.552-46.464-12.48-12.992-29.696-23.68-60.864-31.424-93.504-6.080-25.664-10.112-51.264-12.416-76.8 21.568-9.28 38.528-28.416 43.776-53.12 7.168-33.792-9.92-66.816-39.296-81.728 3.456-21.696 8.192-43.072 14.144-64 75.648 25.472 157.12 35.904 240.064 28.8 9.792 19.776 27.968 35.2 51.2 40.128 40.384 8.512 80-17.28 88.512-57.6 0.832-4.096 1.152-8.128 1.344-12.16 85.888-28.992 161.536-76.032 223.488-136 10.24 55.68 10.048 114.304-2.432 173.184z"/> 
    </symbol>
    <symbol id="table" viewBox="0 0 1024 1024">
        <path d="M0 73.152v877.696h1024v-877.696h-1024zM73.152 292.544h146.304v146.304h-146.304v-146.304zM73.152 512h146.304v146.304h-146.304v-146.304zM73.152 877.696v-146.304h146.304v146.304h-146.304zM950.848 877.696h-658.304v-146.304h658.304v146.304zM950.848 658.304h-658.304v-146.304h658.304v146.304zM950.848 438.848h-658.304v-146.304h658.304v146.304z"/> 
    </symbol>
    <symbol id="tenant" viewBox="0 0 32 32">
       <path d="M25.454 13.792c0.922-0.91 1.494-2.172 1.494-3.57 0-2.774-2.248-5.024-5.024-5.024-0.502 0-0.978 0.096-1.436 0.234v0c0.438 0.358 0.836 0.754 1.194 1.194 0.044 0.052 0.088 0.104 0.13 0.158 0.024 0.030 0.042 0.064 0.066 0.094 0.016 0 0.030-0.004 0.046-0.004 1.85 0 3.348 1.5 3.348 3.348 0 1.294-0.742 2.404-1.818 2.962-0.026 0.16-0.020 0.328-0.054 0.486 0 0.014-0.008 0.030-0.012 0.046-0.124 0.558-0.306 1.092-0.536 1.602 0.248-0.028 0.492-0.076 0.748-0.076 3.7 0 6.698 2.998 6.698 6.698 0 0.58-0.084 1.14-0.226 1.674h1.71c0.112-0.542 0.188-1.098 0.188-1.674 0.002-3.984-2.788-7.302-6.516-8.148zM7.612 15.336c-0.306-0.678-0.51-1.402-0.628-2.162-1.066-0.56-1.802-1.664-1.802-2.954 0-1.85 1.5-3.348 3.348-3.348 0.012 0 0.024 0.004 0.036 0.004 0.406-0.538 0.878-1.018 1.402-1.444-0.46-0.138-0.936-0.234-1.438-0.234-2.774 0-5.024 2.248-5.024 5.024 0 1.612 0.772 3.030 1.952 3.948-3.1 1.226-5.3 4.236-5.3 7.772 0 0.576 0.076 1.132 0.188 1.674h1.732c-0.142-0.538-0.244-1.090-0.244-1.674-0.002-3.386 2.518-6.154 5.778-6.606zM20.048 16.528c1.156-1.204 1.876-2.832 1.876-4.632 0-3.7-2.998-6.698-6.698-6.698-3.698 0-6.698 2.998-6.698 6.698 0 1.802 0.72 3.428 1.876 4.632-3.1 1.71-5.226 4.972-5.226 8.762 0 0.574 0.076 1.128 0.168 1.674h3.416c-0.14-0.538-0.236-1.092-0.236-1.674 0-3.698 2.998-6.698 6.698-6.698s6.698 2.998 6.698 6.698c0 0.582-0.098 1.136-0.236 1.674h3.416c0.092-0.548 0.168-1.1 0.168-1.674 0.004-3.792-2.12-7.052-5.222-8.762zM15.228 15.244c-1.85 0-3.348-1.5-3.348-3.348 0-1.85 1.5-3.348 3.348-3.348s3.348 1.5 3.348 3.348c0 1.848-1.5 3.348-3.348 3.348z"/> 
    </symbol>
    <symbol id="tick-circle" viewBox="0 0 18 18">
       <g> <g> <path d="M9,0C4.027,0,0,4.027,0,9c0,4.971,4.027,8.998,9,9c4.971-0.002,8.998-4.029,9-9
			C17.998,4.027,13.971,0,9,0z M9,15.883C5.199,15.874,2.124,12.799,2.115,9C2.124,5.199,5.199,2.124,9,2.116
			C12.799,2.124,15.874,5.199,15.883,9C15.874,12.799,12.799,15.874,9,15.883z"/> <polygon points="12,5 8,9 6,7 4,9 8,13 14,7 		"/> </g> </g> 
    </symbol>
    <symbol id="trash" viewBox="0 0 16 16">
       <path d="M7.478 4.519c0-0.316 0.259-0.571 0.571-0.571v0c0.312 0 0.571 0.259 0.571 0.571v8.657c0 0.316-0.259 0.571-0.571 0.571v0c-0.316 0-0.571-0.259-0.571-0.571v-8.657zM4.786 4.519c0-0.316 0.255-0.571 0.571-0.571v0c0.316 0 0.571 0.259 0.571 0.571v8.657c0 0.316-0.259 0.571-0.571 0.571v0c-0.316 0-0.571-0.259-0.571-0.571v-8.657zM10.164 4.519c0-0.316 0.259-0.571 0.571-0.571v0c0.316 0 0.571 0.259 0.571 0.571v8.657c0 0.316-0.259 0.571-0.571 0.571v0c-0.312 0-0.571-0.259-0.571-0.571v-8.657zM14.897 1.713h-3.069v-0.72c0-0.558-0.5-0.997-1.141-0.997h-5.282c-0.641 0-1.141 0.439-1.141 0.997v0.716h-3.161c-0.316 0-0.571 0.255-0.571 0.571s0.255 0.571 0.571 0.571h1.203v12.038c0 0.615 0.514 1.115 1.141 1.115h9.206c0.628 0 1.141-0.5 1.141-1.115v-12.034h1.102c0.316 0 0.571-0.255 0.571-0.571s-0.254-0.571-0.57-0.571v0zM5.405 1.143h5.281v0.571h-5.281v-0.571zM12.048 14.866c0 0-7.384 0.026-8.012 0.026s-0.593-0.645-0.593-0.645v-10.843c0-0.659 0.558-0.549 0.558-0.549h7.977c0 0 0.672-0.040 0.672 0.549s0.009 10.348 0.009 10.901c-0.001 0.548-0.611 0.561-0.611 0.561v0z"/> 
    </symbol>
    <symbol id="view" viewBox="0 0 1024 1024">
      <path d="M954 871.6L775.6 693.1c27.3-42.5 43.6-92.8 43.6-147 0-150.8-122.3-273-273.1-273S273 395.4 273 546.1s122.3 273 273.1 273c71.8 0 136.6-28.3 185.3-73.6l171.7 171.7c6.3 7.3 15.5 11.9 25.9 11.9 18.9 0 34.1-15.3 34.1-34.1.1-9-3.4-17.2-9.1-23.4zM546.1 750.9c-113.1 0-204.8-91.7-204.8-204.8S433 341.3 546.1 341.3 750.9 433 750.9 546.1s-91.6 204.8-204.8 204.8z"/><path d="M887.5 0H127.6C57.1.1.1 57.1 0 127.6v768.8c.2 70.5 57.4 127.5 127.9 127.6h392.7l.3-.2c58.8-39 55.6-98-.3-127.8H213.2c-47 0-76.6-29.8-76.7-76.9V204.8c0-47 21.2-68.3 68.3-68.3h614.4c39 .1 60.3 14.7 66.4 46.5-.6-25.7 9.4-1.9 1.9 21.8v273c34.5 58.9 101.1 57.7 136.5 0V136.5C1024.1 65.9 958.1.1 887.5 0z"/><path d="M887.5 204.8c0-8-.6-15.2-1.9-21.8.1 5.2.7 12.3 1.9 21.8z"/>
    </symbol>
    <symbol id="workflow" viewBox="0 0 1024 1024">
       <title/>  <path d="M894.976 1.344h127.68v446.848h-127.68v-446.848z"/> <path d="M577.6 161.344h-510.656v126.784h510.656v126.784l253.568-190.144-253.568-190.208v126.784z"/> <path d="M1.344 575.808h127.68v446.848h-127.68v-446.848z"/> <path d="M448.192 862.656h510.656v-126.784h-510.656v-126.784l-253.632 190.144 253.632 190.208v-126.784z"/> 
    </symbol>
    <symbol id="yarn" viewBox="0 0 32 32">
       <path d="M1.184 23.144c-1.572 1.572-1.572 4.122 0 5.694s4.122 1.572 5.694 0c1.572-1.572 1.572-4.122 0-5.694-1.572-1.574-4.122-1.574-5.694 0zM29.432 13.44c0.786-0.786 0.786-2.060 0-2.848-0.786-0.786-2.062-0.786-2.848 0s-0.786 2.062 0 2.848c0.786 0.786 2.062 0.786 2.848 0zM18.808 6.814c1.56-1.56 1.56-4.090 0-5.65s-4.090-1.56-5.65 0c-1.56 1.56-1.56 4.090 0 5.65 1.562 1.56 4.090 1.56 5.65 0zM30.826 23.168c-1.56-1.56-4.090-1.56-5.65 0s-1.56 4.090 0 5.65c1.56 1.56 4.090 1.56 5.65 0 1.56-1.562 1.56-4.090 0-5.65zM10.364 12.35c-3.112 3.112-3.112 8.158 0 11.272 3.112 3.112 8.158 3.112 11.272 0 3.112-3.112 3.112-8.158 0-11.272s-8.16-3.114-11.272 0zM18.834 20.82c-1.556 1.556-4.080 1.556-5.636 0s-1.556-4.080 0-5.636c1.556-1.556 4.080-1.556 5.636 0s1.556 4.078 0 5.636zM14.6 28.57c-0.786 0.786-0.786 2.060 0 2.848 0.786 0.786 2.060 0.786 2.848 0 0.786-0.786 0.786-2.060 0-2.848-0.788-0.786-2.062-0.786-2.848 0zM5.462 13.44c0.786-0.786 0.786-2.060 0-2.848-0.786-0.786-2.062-0.786-2.848 0s-0.786 2.062 0 2.848c0.788 0.786 2.062 0.786 2.848 0z"/> 
    </symbol></svg>