<?xml version="1.0" encoding="UTF-8"?>
<svg width="168px" height="36px" viewBox="0 0 168 36" version="1.1" xmlns="http://www.w3.org/2000/svg" xmlns:xlink="http://www.w3.org/1999/xlink">
    <title>long_logo_white-168X36-svg</title>
    <g id="页面-1" stroke="none" stroke-width="1" fill="none" fill-rule="evenodd">
        <g id="long_logo_white-168X36-svg">
            <g>
                <rect id="矩形" x="0" y="0" width="168" height="36"></rect>
                <path d="M71.3395675,26.3589024 L69.8572449,27.3880997 L69.8572449,29.071064 L69.8631497,29.2023433 C69.8907057,29.497806 70.0147077,29.7172792 70.2351557,29.8607626 C70.4870963,30.0247438 70.889984,30.1067343 71.4438188,30.1067343 C72.0150289,30.1067343 72.430405,30.0242044 72.6899472,29.8591444 C72.9494894,29.6940845 73.0792605,29.431391 73.0792605,29.071064 L73.0792605,29.071064 L73.0792605,27.3880997 L71.5969379,26.3589024 L75.9689753,26.3589024 L74.3367914,27.3880997 L74.3367914,29.2781981 L74.330343,29.4339097 C74.2873537,29.9404217 74.029418,30.3216654 73.5565359,30.5776407 C73.0363655,30.8592136 72.2376488,31 71.1603857,31 C70.0983259,31 69.2328232,30.8403342 68.5638776,30.5210025 C67.894932,30.2016708 67.5604592,29.7874027 67.5604592,29.2781981 L67.5604592,29.2781981 L67.5604592,27.3880997 L65.9282753,26.3589024 L71.3395675,26.3589024 Z M107.313856,26.3589024 L106.134513,27.3168974 L106.134513,28.5305736 L108.691927,27.2424586 L107.551679,26.3589024 L112.44823,26.3589024 L109.457522,27.948009 L111.011518,29.7442497 L112.523161,30.7766836 L107.440912,30.7766836 L108.783147,29.8186885 L107.86769,28.7797817 L106.134513,29.5662439 L106.134513,29.7442497 L107.365981,30.7766836 L102.205544,30.7766836 L103.837727,29.7442497 L103.837727,27.3880997 L102.205544,26.3589024 L107.313856,26.3589024 Z M98.2479774,26.3589024 L96.6190514,27.3880997 L96.6190514,29.7442497 L98.2479774,30.7766836 L92.7650124,30.7766836 L94.3971963,29.7442497 L94.3971963,27.3880997 L92.7650124,26.3589024 L98.2479774,26.3589024 Z M86.0317562,26.3589024 L86.290221,26.3639088 C86.8787553,26.387272 87.3654394,26.4924067 87.7502732,26.6793129 C88.1900832,26.8929199 88.4099882,27.1723351 88.4099882,27.5175585 C88.4099882,28.0181325 87.7562459,28.3439372 86.4487613,28.4949724 C87.9712641,28.6870029 88.7325156,29.089404 88.7325156,29.7021756 C88.7325156,30.4185143 87.8268327,30.7766836 86.015467,30.7766836 L86.015467,30.7766836 L79.5453728,30.7766836 L81.1775567,29.7636686 L81.1775567,27.3913362 L79.5453728,26.3589024 L86.0317562,26.3589024 Z M58.7780141,26.3556659 L59.8205267,26.4236318 L60.0388028,26.4561616 C60.4632544,26.5307985 60.8151024,26.6628993 61.0943469,26.852464 C61.4201321,27.0736228 61.5830247,27.3298433 61.5830247,27.6211256 C61.5830247,28.1821137 60.9390559,28.5370465 59.6511184,28.6859241 C60.0876706,28.7938064 60.4226864,28.9486176 60.6561658,29.1503575 C60.8896452,29.3520975 61.1117221,29.6805992 61.3223965,30.1358626 L61.3223965,30.1358626 L62.4007455,30.7766836 L59.2471448,30.7766836 L59.147424,30.5443657 C58.9177115,30.0209342 58.7087847,29.6280065 58.5206438,29.3655828 C58.3859859,29.1757099 58.074318,29.0807734 57.5856402,29.0807734 L57.5856402,29.0807734 L56.5040334,29.0807734 L56.5040334,29.7507227 L58.1362172,30.7766836 L52.5750638,30.7766836 L54.2072477,29.7507227 L54.2072477,27.3913362 L52.5750638,26.3589024 L57.9635511,26.3589024 L58.7780141,26.3556659 Z M85.5398206,28.9707335 L83.4743424,28.9707335 L83.4743424,29.9934579 L85.3085131,29.9934579 C85.9209893,29.9934579 86.2272274,29.8305556 86.2272274,29.504751 C86.2272274,29.1487393 85.9980918,28.9707335 85.5398206,28.9707335 L85.5398206,28.9707335 Z M57.9668089,27.1874386 L56.5040334,27.1874386 L56.5040334,28.2069266 L57.9602932,28.2069266 L58.4131347,28.2004537 L58.5409178,28.1964683 C58.9465788,28.1698989 59.1494092,28.0104827 59.1494092,27.7182197 C59.1494092,27.508928 59.0690489,27.3681415 58.9083282,27.2958604 C58.7476075,27.2235792 58.4337677,27.1874386 57.9668089,27.1874386 L57.9668089,27.1874386 Z M85.3182866,27.142128 L83.4743424,27.142128 L83.4743424,28.0968866 L85.3345759,28.0968866 C85.8362851,28.0968866 86.0871397,27.9447725 86.0871397,27.6405444 C86.0871397,27.3082668 85.8308554,27.142128 85.3182866,27.142128 L85.3182866,27.142128 Z M139.201349,20.7606008 L139.201349,21.6443728 L28,21.6443728 L28,20.7606008 L139.201349,20.7606008 Z M36.6509396,5.01739709 L35.9679707,6.00903103 L43.4981408,6.00903103 L43.2529725,7.66175428 L34.8472012,7.66175428 L33.2886311,9.97556682 L34.6020329,9.97556682 L34.7946651,8.65338822 L38.1219496,8.65338822 L37.9293173,9.97556682 L42.2722992,9.97556682 L42.0271308,11.6282901 L37.701661,11.6282901 L37.0362041,16.3950918 L37.0051114,16.5355112 C36.9307746,16.808894 36.7835307,17.0375414 36.5633795,17.2214535 C36.3065365,17.4360175 36.0088321,17.5432996 35.6702663,17.5432996 L35.6702663,17.5432996 L32.2028856,17.5432996 L33.7789678,15.9253705 L34.3743766,11.6282901 L29.7161783,11.6282901 L29.9613466,9.97556682 L31.5199167,7.66175428 L29.6111062,7.66175428 L29.8562745,6.00903103 L32.6406862,6.00903103 L33.0259507,5.45232426 L32.6581983,5.01739709 L36.6509396,5.01739709 Z M59.6617385,5.34794174 L59.4340822,6.98326789 L58.5935051,9.81899304 L59.3815461,9.81899304 L59.1538898,11.4717163 L58.1907285,16.2037239 L55.546413,16.2037239 L55.7565573,14.7249715 L56.3694781,14.7249715 L57.034935,11.4717163 L56.1418218,11.4717163 L56.3694781,9.81899304 L57.2100552,6.98326789 L56.29943,6.98326789 L54.793396,17.5259025 L52.2191285,17.5259025 L53.9528188,5.34794174 L59.6617385,5.34794174 Z M139.63915,11.2455542 L139.411494,12.8982774 L138.133116,12.8982774 L137.765363,15.5600317 L138.308236,15.5600317 L139.113789,14.8989424 L138.746037,17.4911083 L135.033488,17.4911083 L135.663921,12.8982774 L134.753295,12.8982774 L132.686877,17.4911083 L130.182657,17.4911083 L132.231564,12.8982774 L130.795578,12.8982774 L131.023234,11.2455542 L139.63915,11.2455542 Z M131.285915,5.34794174 L131.040746,7.03545915 L130.287729,9.64502217 L130.883138,9.64502217 L130.795578,11.1411716 L129.832417,15.5948259 L127.398245,15.5948259 L127.60839,14.1160735 L128.13375,14.1160735 L128.764183,11.1411716 L127.993654,11.1411716 L128.203799,9.64502217 L128.956816,7.05285624 L128.238823,7.05285624 L126.767813,17.4911083 L124.473738,17.4911083 L126.189916,5.34794174 L131.285915,5.34794174 Z M72.2528834,5.01739709 L72.65566,8.18366688 L75.632704,7.87051932 L75.3875356,9.610228 L72.8658042,9.8711843 L73.1109726,11.8892464 L75.2299274,10.6540532 L74.932223,12.811292 L73.3386289,13.7333376 L73.5837972,15.5948259 L74.21423,15.5948259 L74.9847591,14.9337366 L74.6345186,17.3693287 L70.9745057,17.3693287 L70.7118253,15.2468841 L67.7172693,16.9865928 L68.0324857,14.829354 L70.484169,13.4027929 L70.0989045,10.1669348 L68.6278945,10.3235086 L68.8730629,8.58379988 L69.8887602,8.47941736 L69.5560318,5.67848638 L68.995647,5.01739709 L72.2528834,5.01739709 Z M107.119322,12.2893794 L107.084298,17.2475491 L104.422471,17.2475491 L104.457495,12.2893794 L107.119322,12.2893794 Z M96.4720119,12.2893794 L95.1060741,17.2475491 L92.4442465,17.2475491 L93.8101844,12.2893794 L96.4720119,12.2893794 Z M99.8343204,11.9588347 L99.3790078,15.2642812 L103.371749,15.2642812 L104.124766,14.6031919 L103.757014,17.2475491 L96.1042594,17.2475491 L96.8397644,11.9588347 L99.8343204,11.9588347 Z M123.930865,5.33054465 L123.703208,6.93107663 L113.003362,6.93107663 L111.77752,15.62962 L122.477367,15.62962 L122.249711,17.230152 L108.677892,17.230152 L110.253974,6.07861938 L109.553493,5.33054465 L123.930865,5.33054465 Z M91.2008929,5.33054465 L90.9732366,6.91367955 L81.4466958,6.91367955 L80.2208541,15.62962 L90.2727556,15.62962 L90.0450993,17.230152 L76.9811298,17.230152 L78.5572119,6.07861938 L77.8567309,5.33054465 L91.2008929,5.33054465 Z M52.2366405,12.1154085 L51.5186476,17.2127549 L44.0760376,17.2127549 L44.7940305,12.1154085 L52.2366405,12.1154085 Z M66.8066441,5.05219126 L66.5439638,6.91367955 L68.6278945,6.91367955 L68.4002382,8.53160862 L66.2987954,8.53160862 L66.018603,10.5844649 L67.9974617,10.5844649 L67.0693245,17.1605637 L60.3096834,17.1605637 L61.2378206,10.5844649 L63.0940951,10.5844649 L63.7945761,5.71328056 L63.2517033,5.05219126 L66.8066441,5.05219126 Z M33.2711191,12.4459531 L30.977044,16.7604307 L28,16.7604307 L30.2940751,12.4459531 L33.2711191,12.4459531 Z M41.5718182,12.4459531 L42.6400517,16.7604307 L39.6630077,16.7604307 L38.5947742,12.4459531 L41.5718182,12.4459531 Z M49.3646687,13.628955 L47.2457138,13.628955 L46.9655215,15.6818113 L49.0844763,15.6818113 L49.3646687,13.628955 Z M65.21305,12.1675998 L63.5669198,12.1675998 L63.0765831,15.5948259 L64.7227133,15.5948259 L65.21305,12.1675998 Z M116.803471,7.33120963 L116.558303,7.90531349 L123.212872,7.90531349 L122.985216,9.54063965 L119.955635,9.54063965 L119.255155,10.6366561 L123.177848,10.6366561 L122.950191,12.2371881 L119.903099,12.2371881 L121.356597,15.229487 L118.95745,15.229487 L117.819169,12.9330716 L116.383183,15.2120899 L113.686331,15.2120899 L115.525094,12.2371881 L112.670634,12.2371881 L112.89829,10.6366561 L116.523279,10.6366561 L117.206248,9.54063965 L115.875334,9.54063965 L115.700214,9.97556682 L113.388627,9.97556682 L114.3693,7.33120963 L116.803471,7.33120963 Z M84.9841245,7.59216593 L85.9297738,9.26228626 L87.4883439,7.64435719 L90.3778278,7.64435719 L87.2256635,10.8976124 L87.1731274,10.9150095 L89.799931,14.9163395 L86.9104471,14.9163395 L85.5795333,12.6721153 L84.0034512,14.9163395 L81.0964553,14.9163395 L84.2661315,11.0367891 L84.1960835,11.0019949 L82.0946406,7.59216593 L84.9841245,7.59216593 Z M103.371749,11.6282901 L103.284189,14.6031919 L100.639874,14.6031919 L100.727434,11.6282901 L103.371749,11.6282901 Z M48.3139473,7.90531349 L48.2789232,9.92337556 L49.1720364,9.92337556 L49.7324212,7.97490184 L51.816352,7.97490184 L51.2734792,9.92337556 L52.8670734,9.92337556 L52.6394171,11.5413046 L44.5488622,11.5413046 L44.7765185,9.92337556 L46.0724083,9.92337556 L46.1074323,7.90531349 L48.3139473,7.90531349 Z M99.48408,5 L99.9569046,6.33957568 L102.583708,6.33957568 L103.196629,5.43492717 L102.811364,5 L106.804106,5 L105.910993,6.33957568 L107.959899,6.33957568 L107.259418,11.2977454 L93.9502805,11.2977454 L94.5456893,7.00066498 L93.9853046,6.33957568 L96.6296201,6.33957568 L96.1567955,5 L99.48408,5 Z M139.341445,8.91434453 L139.113789,10.5670678 L131.758739,10.5670678 L131.986396,8.91434453 L139.341445,8.91434453 Z M104.387447,7.99229893 L97.7328776,7.99229893 L97.5052213,9.64502217 L104.15979,9.64502217 L104.387447,7.99229893 Z M137.397611,5.03479417 L137.257515,6.06122229 L140.357143,6.06122229 L140.006902,8.53160862 L137.485171,8.53160862 L137.607755,7.69654845 L134.10535,7.69654845 L133.982766,8.53160862 L131.390987,8.53160862 L131.741227,6.06122229 L134.403055,6.06122229 L134.455591,5.69588347 L133.877694,5.03479417 L137.397611,5.03479417 Z M50.7130945,5.03479417 L50.5729983,5.93944269 L53.2173139,5.93944269 L53.0071696,7.45298924 L45.3544153,7.45298924 L45.5645596,5.93944269 L48.0162429,5.93944269 L48.0512669,5.69588347 L47.6134663,5.03479417 L50.7130945,5.03479417 Z M75.3349996,5.36533882 L75.6151919,7.3660038 L73.3211169,7.3660038 L72.9708764,5.36533882 L75.3349996,5.36533882 Z" id="形状结合" fill="#026E3A" fill-rule="nonzero"></path>
            </g>
            <g id="编组-10" transform="translate(28.000000, 5.000000)"></g>
        </g>
    </g>
</svg>