<?xml version="1.0" encoding="UTF-8"?>
<svg width="300px" height="80px" viewBox="0 0 300 80" version="1.1" xmlns="http://www.w3.org/2000/svg" xmlns:xlink="http://www.w3.org/1999/xlink">
    <title>long_logo_color-300 * 80-svg</title>
    <g id="页面-1" stroke="none" stroke-width="1" fill="none" fill-rule="evenodd">
        <g id="long_logo_color-300-*-80-svg">
            <rect id="矩形" x="0" y="0" width="300" height="80"></rect>
            <g id="编组-10" stroke-width="1" fill-rule="evenodd" transform="translate(22.000000, 9.000000)" fill="#026E3A">
                <path d="M236.48978,49.175315 C238.869391,49.175315 240.908703,49.6224236 242.607715,50.5166407 L242.607715,50.5166407 L244.455764,49.5106464 L244.455764,54.0040872 L244.132589,53.753698 C241.754377,51.9583145 239.194355,51.0606227 236.452521,51.0606227 C235.17081,51.0606227 234.172267,51.3922282 233.456894,52.0554392 C232.74152,52.7186502 232.383833,53.6414325 232.383833,54.8237862 C232.383833,57.1487506 233.794709,58.3112328 236.616461,58.3112328 C237.908108,58.3112328 238.953845,58.0429677 239.753672,57.5064374 L239.753672,57.5064374 L239.753672,56.9550036 L235.603015,54.5480693 L248.382867,54.5480693 L244.671866,56.9550036 L244.671866,60.2039923 L242.42142,59.1309318 L241.893273,59.3011332 C239.951042,59.8980713 237.946195,60.1965404 235.878732,60.1965404 C233.166273,60.1965404 230.892229,59.6898174 229.056601,58.6763714 C227.220972,57.6629254 226.303157,56.4060536 226.303157,54.9057561 C226.303157,53.3408762 227.305425,51.9945828 229.309962,50.8668757 C231.314499,49.7391686 233.707771,49.175315 236.48978,49.175315 Z M111.540332,49.175315 C113.795746,49.175315 115.795315,49.6025521 117.539038,50.4570262 L117.539038,50.4570262 L119.461605,49.3467067 L119.461605,54.1158644 L119.283886,53.8937412 C117.715128,52.0049955 115.404693,51.0606227 112.352579,51.0606227 C109.178108,51.0606227 107.590873,52.2504282 107.590873,54.6300392 C107.590873,55.8223286 108.019352,56.6842545 108.87631,57.2158169 C109.733268,57.7473792 111.120547,58.0131604 113.038145,58.0131604 C114.846451,58.0131604 116.352958,57.7200559 117.557668,57.133847 C118.762377,56.547638 119.334924,55.8297804 119.27531,54.9802742 C119.27531,54.9454991 119.267858,54.8983043 119.252954,54.8386898 C119.774581,55.1317943 120.035394,55.5466117 120.035394,56.0831419 C120.035394,57.3151743 119.281519,58.3099908 117.77377,59.0675914 C116.266021,59.825192 114.282598,60.2039923 111.823501,60.2039923 C108.996781,60.2039923 106.562524,59.6798817 104.520728,58.6316606 C102.478932,57.5834394 101.458034,56.3340195 101.458034,54.8834007 C101.458034,53.4079425 102.486384,52.0877304 104.543083,50.9227642 C106.599783,49.7577981 108.932199,49.175315 111.540332,49.175315 Z M214.896094,49.175315 C217.469452,49.175315 219.703752,49.7466204 221.598996,50.8892311 C223.494239,52.0318418 224.441861,53.3756513 224.441861,54.9206597 C224.441861,56.3563749 223.486787,57.5946172 221.57664,58.6353865 C219.666493,59.6761558 217.397418,60.1965404 214.769413,60.1965404 C212.191087,60.1965404 209.925737,59.668704 207.973363,58.613031 C206.020989,57.5573581 205.044802,56.3340195 205.044802,54.9430152 C205.044802,53.3681995 206.014779,52.0132123 207.954734,50.8780534 C209.894688,49.7428945 212.208475,49.175315 214.896094,49.175315 Z M49.3690621,49.5180983 L46.9323206,51.3735987 L51.1873035,57.3126904 L55.0324369,59.6898174 L42.2153255,59.6898174 L45.7474829,57.6033109 L45.2854708,56.9028409 L39.428349,56.9028409 L38.9737886,57.6033109 L42.0439339,59.6898174 L32.5428775,59.6898174 L35.5385047,57.3126904 L39.7264213,51.3735987 L37.3418425,49.5180983 L49.3690621,49.5180983 Z M196.268227,49.5180983 L192.542323,51.9026771 L192.542323,57.677829 L198.816746,57.677829 L203.384705,54.2425451 L203.384705,59.6898174 L183.555441,59.6898174 L187.281346,57.3350458 L187.281346,51.9026771 L183.555441,49.5180983 L196.268227,49.5180983 Z M177.856463,49.5180983 L175.419722,51.3735987 L179.674705,57.3126904 L183.519838,59.6898174 L170.702727,59.6898174 L174.234884,57.6033109 L173.772872,56.9028409 L167.91575,56.9028409 L167.46119,57.6033109 L170.531335,59.6898174 L161.030279,59.6898174 L164.025906,57.3126904 L168.213823,51.3735987 L165.829244,49.5180983 L177.856463,49.5180983 Z M160.547567,49.5180983 L160.89035,54.4362921 L156.993054,51.321436 L154.615927,51.321436 L154.615927,57.3126904 L158.349284,59.6898174 L145.629046,59.6898174 L149.362402,57.3126904 L149.362402,51.321436 L146.985275,51.321436 L143.087979,54.4362921 L143.430762,49.5180983 L160.547567,49.5180983 Z M137.292128,49.5180983 L134.855386,51.3735987 L139.110369,57.3126904 L142.955502,59.6898174 L130.138391,59.6898174 L133.670548,57.6033109 L133.208536,56.9028409 L127.351414,56.9028409 L126.896854,57.6033109 L129.966999,59.6898174 L120.465943,59.6898174 L123.46157,57.3126904 L127.649487,51.3735987 L125.264908,49.5180983 L137.292128,49.5180983 Z M89.9333979,49.5180983 L87.4966564,51.3735987 L91.7516393,57.3126904 L95.5967727,59.6898174 L82.7796614,59.6898174 L86.3118188,57.6033109 L85.8498066,56.9028409 L79.9926848,56.9028409 L79.5381245,57.6033109 L82.6082698,59.6898174 L73.1072134,59.6898174 L76.1028406,57.3126904 L80.2907572,51.3735987 L77.9061783,49.5180983 L89.9333979,49.5180983 Z M23.5427483,49.5180983 L23.9172276,49.5203493 C25.2653668,49.5368572 26.3390396,49.644158 27.1382461,49.8422519 C28.0101078,50.0583544 28.8633399,50.4545422 29.6979425,51.0308155 C31.3075332,52.1585226 32.1123286,53.4029746 32.1123286,54.7641717 C32.1123286,56.2197584 31.2851778,57.404596 29.6308762,58.3186846 C27.9765746,59.2327732 25.8304537,59.6898174 23.1925133,59.6898174 L23.1925133,59.6898174 L10.1742031,59.6898174 L13.9075594,57.3350458 L13.9075594,51.8877735 L10.1742031,49.5180983 L23.5427483,49.5180983 Z M72.6245018,49.5180983 L72.967285,54.4362921 L69.0699889,51.321436 L66.6928619,51.321436 L66.6928619,57.3126904 L70.4262181,59.6898174 L57.7059803,59.6898174 L61.4393366,57.3126904 L61.4393366,51.321436 L59.0622095,51.321436 L55.1649135,54.4362921 L55.5076967,49.5180983 L72.6245018,49.5180983 Z M214.747057,50.933942 C213.688901,50.933942 212.825733,51.2779671 212.157554,51.9660175 C211.489375,52.6540678 211.155286,53.5420751 211.155286,54.6300392 C211.155286,55.7130354 211.483165,56.5811711 212.138924,57.2344464 C212.794684,57.8877216 213.664061,58.2143593 214.747057,58.2143593 C215.835022,58.2143593 216.705641,57.8889636 217.358916,57.2381723 C218.012192,56.587381 218.338829,55.7180033 218.338829,54.6300392 C218.338829,53.5470429 218.003498,52.6602777 217.332835,51.9697434 C216.662172,51.2792091 215.800246,50.933942 214.747057,50.933942 Z M21.7096033,51.321436 L19.1610847,51.321436 L19.1610847,57.677829 L21.6574407,57.677829 C23.4160676,57.677829 24.5847596,57.485324 25.1635168,57.1003138 C25.7422739,56.7153037 26.0316525,55.9415575 26.0316525,54.7790754 C26.0316525,52.4739825 24.5909694,51.321436 21.7096033,51.321436 L21.7096033,51.321436 Z M170.702727,52.4690146 L168.906841,55.2261839 L172.617842,55.2261839 L170.702727,52.4690146 Z M82.7796614,52.4690146 L80.9837754,55.2261839 L84.6947763,55.2261839 L82.7796614,52.4690146 Z M42.2153255,52.4690146 L40.4194396,55.2261839 L44.1304404,55.2261839 L42.2153255,52.4690146 Z M130.138391,52.4690146 L128.342505,55.2261839 L132.053506,55.2261839 L130.138391,52.4690146 Z M254.355078,36.2879911 L254.355078,38.3228317 L0,38.3228317 L0,36.2879911 L254.355078,36.2879911 Z M19.7876234,0.0400559178 L18.2254426,2.32324323 L35.4494872,2.32324323 L34.8887044,6.12855542 L15.6618638,6.12855542 L12.0968872,11.4559925 L15.101081,11.4559925 L15.5416961,8.41174273 L23.1523205,8.41174273 L22.7117054,11.4559925 L32.645573,11.4559925 L32.0847901,15.2613047 L22.1909784,15.2613047 L20.6688536,26.2366261 L20.6219881,26.4647446 C20.4609634,27.1364823 20.1160819,27.6946615 19.5873438,28.1392822 C18.999857,28.6333052 18.3189064,28.8803167 17.544492,28.8803167 L17.544492,28.8803167 L9.61342026,28.8803167 L13.2184529,25.1551164 L14.5803541,15.2613047 L3.92547994,15.2613047 L4.48626279,11.4559925 L8.05123947,6.12855542 L3.68514443,6.12855542 L4.24592728,2.32324323 L10.6148182,2.32324323 L11.4960484,1.04145386 L10.6548741,0.0400559178 L19.7876234,0.0400559178 Z M72.4210993,0.801118355 L71.9003724,4.56637463 L69.9776883,11.0954892 L71.7802046,11.0954892 L71.2594777,14.9008014 L69.0564022,25.796011 L63.0079587,25.796011 L63.4886297,22.391258 L64.8905868,22.391258 L66.4127117,14.9008014 L64.3698599,14.9008014 L64.8905868,11.0954892 L66.8132708,4.56637463 L64.7303631,4.56637463 L61.2855542,28.8402608 L55.3973343,28.8402608 L59.3628701,0.801118355 L72.4210993,0.801118355 Z M255.356476,14.3800745 L254.835749,18.1853867 L251.911667,18.1853867 L251.070493,24.3139421 L252.312226,24.3139421 L254.154798,22.7918172 L253.313624,28.760149 L244.821769,28.760149 L246.263782,18.1853867 L244.180875,18.1853867 L239.454276,28.760149 L233.72628,28.760149 L238.412823,18.1853867 L235.128237,18.1853867 L235.648964,14.3800745 L255.356476,14.3800745 Z M236.249803,0.801118355 L235.68902,4.68654238 L233.966616,10.69493 L235.328517,10.69493 L235.128237,14.139739 L232.925162,24.3940539 L227.357389,24.3940539 L227.83806,20.9893009 L229.039738,20.9893009 L230.481751,14.139739 L228.71929,14.139739 L229.199961,10.69493 L230.922366,4.7265983 L229.280073,4.7265983 L225.915376,28.760149 L220.668051,28.760149 L224.593531,0.801118355 L236.249803,0.801118355 Z M101.221304,0.0400559178 L102.14259,7.33023295 L108.952096,6.60922643 L108.391313,10.6148182 L102.623261,11.215657 L103.184044,15.8621434 L108.03081,13.0181733 L107.34986,17.9851071 L103.704771,20.1080707 L104.265554,24.3940539 L105.707567,24.3940539 L107.470027,22.871929 L106.668909,28.4797575 L98.2972222,28.4797575 L97.6963834,23.5929356 L90.8468215,27.5985273 L91.567828,22.6315935 L97.1756565,19.3470083 L96.2944263,11.8966076 L92.9297292,12.2571108 L93.4905121,8.25151906 L95.8137553,8.01118355 L95.0526929,1.56218079 L93.7709035,0.0400559178 L101.221304,0.0400559178 Z M180.972636,16.7834295 L180.892525,28.1993661 L174.804025,28.1993661 L174.884137,16.7834295 L180.972636,16.7834295 Z M164.309375,16.0223671 L163.267921,23.6329915 L172.40067,23.6329915 L174.123075,22.1108666 L173.2819,28.1993661 L155.777464,28.1993661 L157.459813,16.0223671 L164.309375,16.0223671 Z M156.618638,16.7834295 L153.494277,28.1993661 L147.405777,28.1993661 L150.530139,16.7834295 L156.618638,16.7834295 Z M144.561807,0.761062438 L144.04108,4.40615095 L122.250661,4.40615095 L119.446747,24.4741658 L142.438844,24.4741658 L141.918117,28.1593102 L112.036402,28.1593102 L115.641435,2.4834669 L114.039198,0.761062438 L144.561807,0.761062438 Z M219.426318,0.761062438 L218.905591,4.44620687 L194.431425,4.44620687 L191.627511,24.4741658 L216.101676,24.4741658 L215.580949,28.1593102 L184.537613,28.1593102 L188.142646,2.4834669 L186.540409,0.761062438 L219.426318,0.761062438 Z M55.4373902,16.3828704 L53.7950976,28.1192543 L36.7713325,28.1192543 L38.4136251,16.3828704 L55.4373902,16.3828704 Z M88.7639138,0.120167753 L88.163075,4.40615095 L92.9297292,4.40615095 L92.4090023,8.13135131 L87.6022922,8.13135131 L86.9613975,12.8579496 L91.4877162,12.8579496 L89.3647525,27.9990865 L73.9031683,27.9990865 L76.0261319,12.8579496 L80.2720592,12.8579496 L81.8742959,1.64229263 L80.6325625,0.120167753 L88.7639138,0.120167753 Z M31.0433363,17.1439328 L33.4867473,27.0778004 L26.6772412,27.0778004 L24.2338303,17.1439328 L31.0433363,17.1439328 Z M12.0568312,17.1439328 L6.80950602,27.0778004 L0,27.0778004 L5.24732523,17.1439328 L12.0568312,17.1439328 Z M48.8682197,19.8677352 L44.0214536,19.8677352 L43.3805589,24.5943335 L48.227325,24.5943335 L48.8682197,19.8677352 Z M85.1188253,16.5030381 L81.353569,16.5030381 L80.2320033,24.3940539 L83.9972596,24.3940539 L85.1188253,16.5030381 Z M203.123559,5.36749298 L202.562776,6.68933827 L217.784025,6.68933827 L217.263298,10.4545945 L210.333624,10.4545945 L208.731387,12.9781174 L217.703913,12.9781174 L217.183186,16.6632618 L210.213456,16.6632618 L213.538098,23.5528796 L208.050437,23.5528796 L205.446802,18.2654985 L202.162217,23.5128237 L195.993606,23.5128237 L200.199477,16.6632618 L193.670362,16.6632618 L194.191089,12.9781174 L202.482664,12.9781174 L204.044845,10.4545945 L201.000595,10.4545945 L200.600036,11.4559925 L195.312655,11.4559925 L197.555786,5.36749298 L203.123559,5.36749298 Z M130.341956,5.96833175 L132.504976,9.81369985 L136.069953,6.0884995 L142.679179,6.0884995 L135.469114,13.5789561 L135.348946,13.619012 L141.357334,22.8318731 L134.748107,22.8318731 L131.703858,17.6646597 L128.098825,22.8318731 L121.449543,22.8318731 L128.699664,13.8994035 L128.53944,13.8192916 L123.73273,5.96833175 L130.341956,5.96833175 Z M172.40067,15.2613047 L172.20039,22.1108666 L166.151947,22.1108666 L166.352226,15.2613047 L172.40067,15.2613047 Z M46.4648646,6.68933827 L46.3847528,11.3358247 L48.4276046,11.3358247 L49.709394,6.84956194 L54.4760482,6.84956194 L53.2343147,11.3358247 L56.8794032,11.3358247 L56.3586763,15.0610251 L37.8528423,15.0610251 L38.3735692,11.3358247 L41.3377071,11.3358247 L41.417819,6.68933827 L46.4648646,6.68933827 Z M163.508256,0 L164.589766,3.08430567 L170.598154,3.08430567 L172.000111,1.00139794 L171.118881,0 L180.25163,0 L178.208778,3.08430567 L182.895321,3.08430567 L181.293084,14.5002422 L150.850586,14.5002422 L152.212488,4.60643054 L150.930698,3.08430567 L156.979142,3.08430567 L155.897632,0 L163.508256,0 Z M254.675525,9.0125815 L254.154798,12.8178937 L237.331313,12.8178937 L237.85204,9.0125815 L254.675525,9.0125815 Z M174.723913,6.88961786 L159.502665,6.88961786 L158.981938,10.69493 L174.203186,10.69493 L174.723913,6.88961786 Z M250.229318,0.0801118355 L249.908871,2.44341098 L256.998768,2.44341098 L256.19765,8.13135131 L250.429598,8.13135131 L250.709989,6.20866725 L242.698806,6.20866725 L242.418414,8.13135131 L236.490139,8.13135131 L237.291257,2.44341098 L243.379756,2.44341098 L243.499924,1.60223671 L242.178079,0.0801118355 L250.229318,0.0801118355 Z M51.9525253,0.0801118355 L51.632078,2.16301956 L57.6805216,2.16301956 L57.1998506,5.64788441 L39.6954145,5.64788441 L40.1760855,2.16301956 L45.783914,2.16301956 L45.8640258,1.60223671 L44.8626279,0.0801118355 L51.9525253,0.0801118355 Z M108.271146,0.841174273 L108.91204,5.44760482 L103.664715,5.44760482 L102.863597,0.841174273 L108.271146,0.841174273 Z" id="形状结合" fill-rule="nonzero"></path>
            </g>
        </g>
    </g>
</svg>