<?xml version="1.0" encoding="UTF-8"?>
<svg width="218px" height="46px" viewBox="0 0 218 46" version="1.1" xmlns="http://www.w3.org/2000/svg" xmlns:xlink="http://www.w3.org/1999/xlink">
    <title>long_logo_white-218 x 46-svg</title>
    <g id="页面-1" stroke="none" stroke-width="1" fill="none" fill-rule="evenodd">
        <g id="long_logo_white-218-x-46-svg">
            <g>
                <rect id="矩形" x="0" y="0" width="218" height="46"></rect>
                <path d="M42.5244056,22.3244211 C42.9889532,22.3244211 43.3974347,22.1762464 43.7498501,21.8798971 C44.1022655,21.5835478 44.3185204,21.2030993 44.3986148,20.7385517 L44.3986148,20.7385517 L45.3116911,14.1547912 L51.2466869,14.1547912 L51.5830834,11.8721004 L45.6240593,11.8721004 L45.8883708,10.0459479 L41.3229894,10.0459479 L41.0586779,11.8721004 L39.2565536,11.8721004 L41.3950744,8.67633346 L52.9286695,8.67633346 L53.2650661,6.39364275 L42.9328871,6.39364275 L43.8699917,5.02402832 L38.391534,5.02402832 L38.8961288,5.6247364 L38.3675057,6.39364275 L34.5470023,6.39364275 L34.2106057,8.67633346 L36.829693,8.67633346 L34.6911722,11.8721004 L34.3547757,14.1547912 L40.7463097,14.1547912 L39.9293467,20.089787 L37.7667976,22.3244211 L42.5244056,22.3244211 Z M52.0876782,21.2431465 L50.6219505,15.2841223 L46.5371356,15.2841223 L48.0028633,21.2431465 L52.0876782,21.2431465 Z M36.084815,21.2431465 L39.2325253,15.2841223 L35.1477103,15.2841223 L32,21.2431465 L36.084815,21.2431465 Z M66.3124456,8.38799358 L66.6007855,6.29752946 L62.9725087,6.29752946 L63.1647352,5.04805665 L58.911722,5.04805665 L59.5124301,5.96113293 L59.4643735,6.29752946 L56.1004082,6.29752946 L55.8120683,8.38799358 L66.3124456,8.38799358 Z M68.7633346,22.3003927 L70.8297704,7.73922885 L72.0792432,7.73922885 L70.9258837,11.6558455 L70.6135154,13.9385362 L71.8389599,13.9385362 L70.9258837,18.4318327 L70.0848923,18.4318327 L69.7965525,20.4742402 L73.4248293,20.4742402 L74.746387,13.9385362 L75.0587552,11.6558455 L73.9774807,11.6558455 L75.1308402,7.73922885 L75.4432084,5.48056646 L67.609975,5.48056646 L65.231171,22.3003927 L68.7633346,22.3003927 Z M65.8078508,14.0346495 L66.120219,11.8000155 L63.9336416,11.8000155 L64.6785196,9.10884327 L61.8191491,9.10884327 L61.0502428,11.8000155 L59.8247983,11.8000155 L59.872855,9.01272998 L56.8452862,9.01272998 L56.7972296,11.8000155 L55.0191337,11.8000155 L54.7067655,14.0346495 L65.8078508,14.0346495 Z M64.2700381,21.8678829 L65.2551994,14.8275842 L55.043162,14.8275842 L54.0580007,21.8678829 L64.2700381,21.8678829 Z M60.9301012,19.7533905 L58.0226741,19.7533905 L58.4071272,16.9180483 L61.3145544,16.9180483 L60.9301012,19.7533905 Z M95.9874248,22.0841378 L96.4679913,18.7201726 L95.410745,19.6332489 L94.5457254,19.6332489 L94.2093289,17.0622183 L96.3959063,15.7887171 L96.8043878,12.8092051 L93.8969607,14.515216 L93.5605641,11.7279305 L97.0206427,11.3675057 L97.3570392,8.96467333 L93.2722243,9.39718315 L92.7195728,5.02402832 L88.2503047,5.02402832 L89.0192111,5.93710461 L89.4757492,9.80566465 L88.0821064,9.94983459 L87.7457099,12.3526669 L89.7640891,12.136412 L90.2927122,16.6056801 L86.9287469,18.5760026 L86.4962371,21.5555147 L90.6050804,19.1526824 L90.9655052,22.0841378 L95.9874248,22.0841378 Z M85.6071892,21.7957979 L86.8806903,12.7130918 L84.1654898,12.7130918 L84.5499429,9.87774962 L87.4333417,9.87774962 L87.7457099,7.64311556 L84.8863395,7.64311556 L85.2467643,5.07208497 L80.3690147,5.07208497 L81.1138927,5.98516125 L80.1527598,12.7130918 L77.6057575,12.7130918 L76.3322564,21.7957979 L85.6071892,21.7957979 Z M97.3330109,8.26785196 L96.9485577,5.50459479 L93.7047341,5.50459479 L94.1853005,8.26785196 L97.3330109,8.26785196 Z M82.3873938,19.6332489 L80.1287315,19.6332489 L80.8015245,14.8996692 L83.0601869,14.8996692 L82.3873938,19.6332489 Z M117.132349,21.8919112 L117.444717,19.6813055 L103.65246,19.6813055 L105.334443,7.64311556 L118.40585,7.64311556 L118.718219,5.45653814 L100.408636,5.45653814 L101.369769,6.48975604 L99.2072201,21.8919112 L117.132349,21.8919112 Z M108.842578,18.6961442 L111.005127,15.5964905 L112.831279,18.6961442 L116.795953,18.6961442 L113.191704,13.1696299 L113.263789,13.1456016 L117.588887,8.65230513 L113.624214,8.65230513 L111.485693,10.8869392 L110.188164,8.58022016 L106.22349,8.58022016 L109.106889,13.2897715 L109.203003,13.3378282 L104.853876,18.6961442 L108.842578,18.6961442 Z M140.752191,13.698253 L141.713324,6.85018089 L138.90201,6.85018089 L140.127455,5 L134.648997,5 L135.17762,5.60070808 L134.336629,6.85018089 L130.73238,6.85018089 L130.083615,5 L125.518234,5 L126.166999,6.85018089 L122.538722,6.85018089 L123.307628,7.76325717 L122.490665,13.698253 L140.752191,13.698253 Z M136.499178,11.4155623 L127.368415,11.4155623 L127.680783,9.1328716 L136.811546,9.1328716 L136.499178,11.4155623 Z M135.297762,18.2636344 L135.417903,14.1547912 L131.789626,14.1547912 L131.669485,18.2636344 L135.297762,18.2636344 Z M135.946526,21.9159396 L136.451121,18.2636344 L135.417903,19.1767107 L129.939446,19.1767107 L130.564182,14.6113293 L126.455339,14.6113293 L125.446149,21.9159396 L135.946526,21.9159396 Z M124.076535,21.9159396 L125.950744,15.0678674 L122.298439,15.0678674 L120.42423,21.9159396 L124.076535,21.9159396 Z M140.511908,21.9159396 L140.559964,15.0678674 L136.907659,15.0678674 L136.859603,21.9159396 L140.511908,21.9159396 Z M161.320436,21.8919112 L161.632804,19.6813055 L146.951498,19.6813055 L148.633481,7.66714388 L163.314787,7.66714388 L163.627155,5.45653814 L143.899901,5.45653814 L144.861034,6.48975604 L142.698485,21.8919112 L161.320436,21.8919112 Z M160.094991,19.1286541 L158.10064,14.9957825 L162.281569,14.9957825 L162.593937,12.7851767 L157.211592,12.7851767 L158.172725,11.2713924 L162.329625,11.2713924 L162.641993,9.01272998 L153.511231,9.01272998 L153.847627,8.21979531 L150.50769,8.21979531 L149.162104,11.8721004 L152.333843,11.8721004 L152.574126,11.2713924 L154.400279,11.2713924 L153.463174,12.7851767 L148.489311,12.7851767 L148.176943,14.9957825 L152.09356,14.9957825 L149.570586,19.1046257 L153.270947,19.1046257 L155.24127,15.9569154 L156.803111,19.1286541 L160.094991,19.1286541 Z M177.419412,9.87774962 L177.587611,8.7243901 L182.393275,8.7243901 L182.225077,9.87774962 L185.685155,9.87774962 L186.165722,6.46572772 L181.912709,6.46572772 L182.104935,5.04805665 L177.275242,5.04805665 L178.068177,5.96113293 L177.996092,6.46572772 L174.343787,6.46572772 L173.86322,9.87774962 L177.419412,9.87774962 Z M167.519743,22.2523361 L169.538122,7.83534214 L170.523283,7.83534214 L169.490066,11.4155623 L169.201726,13.4819981 L170.258972,13.4819981 L169.393952,17.5908414 L168.673103,17.5908414 L168.384763,19.6332489 L171.7247,19.6332489 L173.046257,13.4819981 L173.166399,11.4155623 L172.349436,11.4155623 L173.382654,7.81131382 L173.71905,5.48056646 L166.726808,5.48056646 L164.372033,22.2523361 L167.519743,22.2523361 Z M184.459711,12.6890634 L184.772079,10.4063727 L174.680183,10.4063727 L174.367815,12.6890634 L184.459711,12.6890634 Z M175.641316,22.2523361 L178.476658,15.9088588 L179.726131,15.9088588 L178.861112,22.2523361 L183.955116,22.2523361 L184.459711,18.6721159 L183.354408,19.5851922 L182.60953,19.5851922 L183.114125,15.9088588 L184.868192,15.9088588 L185.180561,13.626168 L173.358626,13.626168 L173.046257,15.9088588 L175.01658,15.9088588 L172.205266,22.2523361 L175.641316,22.2523361 Z" id="东部战区总医院" fill="#026E3A" fill-rule="nonzero"></path>
                <line x1="32" y1="27.3783784" x2="184.579853" y2="27.3783784" id="路径-5" stroke="#026E3A" stroke-width="1.22063882"></line>
                <path d="M45.3442803,40.6019656 L43.1047537,39.1759996 L43.1047537,35.5820289 L44.5307197,35.5820289 L46.8685888,37.450536 L46.6629636,34.5002615 L36.3951143,34.5002615 L36.1894891,37.450536 L38.5273581,35.5820289 L39.9533242,35.5820289 L39.9533242,39.1759996 L37.7137976,40.6019656 L45.3442803,40.6019656 Z M55.5899776,40.6019656 L53.3504511,39.1849398 L53.3504511,38.2596265 L54.8345286,38.2596265 C55.5050455,38.2596265 55.9326863,38.3907498 56.117451,38.6529964 C56.4124784,39.0672269 56.7447568,39.7168833 57.1142861,40.6019656 L57.1142861,40.6019656 L61.4413554,40.6019656 L59.961748,39.7168833 C59.6726807,39.0880874 59.367968,38.6343709 59.0476099,38.3557339 C58.7272519,38.0770969 58.2675752,37.8632765 57.6685801,37.7142727 C59.4357647,37.5086475 60.3193571,37.0184251 60.3193571,36.2436056 C60.3193571,35.8412954 60.0958514,35.4874115 59.6488401,35.1819537 C59.2018288,34.876496 58.6192241,34.6790661 57.901026,34.5896638 L57.901026,34.5896638 L56.4705899,34.4957914 L55.3530617,34.5002615 L47.959495,34.5002615 L50.1990215,35.9262275 L50.1990215,39.1849398 L47.959495,40.6019656 L55.5899776,40.6019656 Z M55.3485915,37.052696 L53.3504511,37.052696 L53.3504511,35.6446104 L55.3575318,35.6446104 C55.9982479,35.6446104 56.4288688,35.6945267 56.6493944,35.7943592 C56.86992,35.8941917 56.9801827,36.0886416 56.9801827,36.3777089 C56.9801827,36.8217402 56.6434342,37.0437558 55.9699372,37.0437558 L55.9699372,37.0437558 L55.3485915,37.052696 Z M67.4046846,40.6019656 L65.5629981,39.350334 L65.835675,38.9301434 L69.3491837,38.9301434 L69.6263307,39.350334 L67.5074972,40.6019656 L75.1960914,40.6019656 L72.8895131,39.1759996 L70.3370787,35.6133196 L71.7988056,34.5002615 L64.5840434,34.5002615 L66.0144795,35.6133196 L63.5022761,39.1759996 L61.7052907,40.6019656 L67.4046846,40.6019656 Z M68.6563162,37.924368 L66.4302,37.924368 L67.5074972,36.2704262 L68.6563162,37.924368 Z M81.7762962,40.6019656 L79.5322995,39.1759996 L79.5322995,37.133158 L83.3765966,40.6019656 L86.5324963,40.6019656 L86.5324963,35.9217574 L88.7720228,34.5002615 L82.5183349,34.5002615 L84.7623316,35.9217574 L84.7623316,37.7947347 L80.9627356,34.5002615 L75.5226083,34.5002615 L77.7621348,35.9217574 L77.7621348,39.1759996 L75.5226083,40.6019656 L81.7762962,40.6019656 Z M95.803709,40.9104034 C97.0374602,40.9104034 98.02014,40.7144634 98.7517485,40.3225835 C99.4833569,39.9307037 99.8491612,39.4039754 99.8491612,38.7423986 C99.8491612,38.00334 99.3872495,37.4132851 98.4634262,36.972234 C97.9121123,36.7099873 96.8228948,36.5133024 95.1957737,36.3821791 L95.1957737,36.3821791 L93.8994409,36.2793665 C93.1663424,36.219765 92.6671798,36.1512232 92.4019531,36.0737413 C92.1367264,35.9962593 92.0041131,35.8815264 92.0041131,35.7295426 C92.0041131,35.4047144 92.5494668,35.2423003 93.6401744,35.2423003 C95.4490801,35.2423003 97.1536831,35.7638134 98.7539835,36.8068398 L98.7539835,36.8068398 L98.7539835,34.2275847 L97.0419303,34.755058 L96.7871338,34.6656557 C95.8692707,34.3467877 94.8322045,34.1873536 93.6759353,34.1873536 C92.474965,34.1873536 91.5325162,34.3870187 90.8485889,34.7863488 C90.1646616,35.1856788 89.822698,35.7369928 89.822698,36.4402905 C89.822698,37.1882894 90.3322909,37.766424 91.3514766,38.1746943 C91.9921928,38.4309808 93.0873704,38.6172355 94.6370096,38.7334584 L94.6370096,38.7334584 L95.9691032,38.836271 C96.5859788,38.8839522 96.9756236,38.9338685 97.1380377,38.9860198 C97.3004518,39.0381711 97.3816589,39.1402387 97.3816589,39.2922225 C97.3816589,39.6170507 96.7752135,39.7794648 95.5623229,39.7794648 C94.4090338,39.7794648 93.3548322,39.6036404 92.3997181,39.2519915 C91.444604,38.9003426 90.69437,38.4116103 90.1490162,37.7857945 L90.1490162,37.7857945 L90.1490162,40.8433517 L91.7359063,40.2532968 C93.1246214,40.6913679 94.4805556,40.9104034 95.803709,40.9104034 Z M108.780645,40.6019656 L106.545589,39.1759996 L106.545589,38.5948849 L109.670198,38.5948849 C110.897989,38.5948849 111.859808,38.4265107 112.555656,38.0897622 C113.251503,37.7530137 113.599427,37.289612 113.599427,36.6995571 C113.599427,36.0558608 113.189667,35.5283875 112.370146,35.1171371 C111.550625,34.7058867 110.500149,34.5002615 109.218716,34.5002615 L109.218716,34.5002615 L101.150163,34.5002615 L103.389689,35.9083471 L103.389689,39.1759996 L101.150163,40.6019656 L108.780645,40.6019656 Z M108.870048,37.450536 L106.545589,37.450536 L106.545589,35.6446104 L108.896868,35.6446104 C109.793871,35.6446104 110.242372,35.9530482 110.242372,36.5699238 C110.242372,36.9007121 110.14254,37.1301779 109.942875,37.2583212 C109.74321,37.3864644 109.385601,37.450536 108.870048,37.450536 L108.870048,37.450536 Z M120.608763,40.9059333 C122.185222,40.9059333 123.546372,40.5937704 124.692211,39.9694446 C125.83805,39.3451189 126.410969,38.6023351 126.410969,37.7410934 C126.410969,36.81429 125.84252,36.0081796 124.705621,35.3227623 C123.568722,34.637345 122.228434,34.2946363 120.684755,34.2946363 C119.072534,34.2946363 117.684564,34.6351099 116.520844,35.3160571 C115.357125,35.9970043 114.775265,36.8098199 114.775265,37.7545037 C114.775265,38.5889248 115.36085,39.3227683 116.53202,39.9560343 C117.703189,40.5893003 119.062104,40.9059333 120.608763,40.9059333 Z M120.595352,39.7168833 C119.945696,39.7168833 119.424183,39.5209433 119.030813,39.1290634 C118.637443,38.7371835 118.440758,38.2164154 118.440758,37.566759 C118.440758,36.9141225 118.641168,36.381434 119.041988,35.9686936 C119.442808,35.5559532 119.960596,35.349583 120.595352,35.349583 C121.227128,35.349583 121.744171,35.5566982 122.146481,35.9709287 C122.548792,36.3851591 122.749947,36.9171026 122.749947,37.566759 C122.749947,38.2193954 122.554007,38.7409086 122.162127,39.1312985 C121.770247,39.5216883 121.247989,39.7168833 120.595352,39.7168833 Z M135.311163,40.6019656 L133.071636,39.1849398 L133.071636,38.2596265 L134.555713,38.2596265 C135.22623,38.2596265 135.653871,38.3907498 135.838636,38.6529964 C136.133663,39.0672269 136.465942,39.7168833 136.835471,40.6019656 L136.835471,40.6019656 L141.16254,40.6019656 L139.682933,39.7168833 C139.393866,39.0880874 139.089153,38.6343709 138.768795,38.3557339 C138.448437,38.0770969 137.98876,37.8632765 137.389765,37.7142727 C139.15695,37.5086475 140.040542,37.0184251 140.040542,36.2436056 C140.040542,35.8412954 139.817036,35.4874115 139.370025,35.1819537 C138.923014,34.876496 138.340409,34.6790661 137.622211,34.5896638 L137.622211,34.5896638 L136.191775,34.4957914 L135.074247,34.5002615 L127.68068,34.5002615 L129.920206,35.9262275 L129.920206,39.1849398 L127.68068,40.6019656 L135.311163,40.6019656 Z M135.069776,37.052696 L133.071636,37.052696 L133.071636,35.6446104 L135.078717,35.6446104 C135.719433,35.6446104 136.150054,35.6945267 136.370579,35.7943592 C136.591105,35.8941917 136.701368,36.0886416 136.701368,36.3777089 C136.701368,36.8217402 136.364619,37.0437558 135.691122,37.0437558 L135.691122,37.0437558 L135.069776,37.052696 Z M151.251784,40.6019656 L149.012257,39.1759996 L149.012257,35.5820289 L150.438223,35.5820289 L152.776092,37.450536 L152.570467,34.5002615 L142.302618,34.5002615 L142.096993,37.450536 L144.434862,35.5820289 L145.860828,35.5820289 L145.860828,39.1759996 L143.621301,40.6019656 L151.251784,40.6019656 Z M165.940773,40.6019656 L165.940773,37.6427509 L163.473271,39.3950351 L159.168552,39.3950351 L159.168552,38.045061 L161.533242,38.045061 L163.214004,38.876502 L163.214004,36.1229125 L161.533242,36.8381306 L159.168552,36.8381306 L159.168552,35.5060369 L163.473271,35.5060369 L165.761969,37.1376281 L165.761969,34.5002615 L153.777596,34.5002615 L156.017123,35.9172873 L156.017123,39.1894099 L153.777596,40.6019656 L165.940773,40.6019656 Z M175.176225,40.6019656 L172.936699,39.1849398 L172.936699,38.2596265 L174.420776,38.2596265 C175.091293,38.2596265 175.518934,38.3907498 175.703698,38.6529964 C175.998726,39.0672269 176.331004,39.7168833 176.700534,40.6019656 L176.700534,40.6019656 L181.027603,40.6019656 L179.547996,39.7168833 C179.258928,39.0880874 178.954216,38.6343709 178.633857,38.3557339 C178.313499,38.0770969 177.853823,37.8632765 177.254828,37.7142727 C179.022012,37.5086475 179.905605,37.0184251 179.905605,36.2436056 C179.905605,35.8412954 179.682099,35.4874115 179.235088,35.1819537 C178.788076,34.876496 178.205472,34.6790661 177.487273,34.5896638 L177.487273,34.5896638 L176.056837,34.4957914 L174.939309,34.5002615 L167.545742,34.5002615 L169.785269,35.9262275 L169.785269,39.1849398 L167.545742,40.6019656 L175.176225,40.6019656 Z M174.934839,37.052696 L172.936699,37.052696 L172.936699,35.6446104 L174.943779,35.6446104 C175.584495,35.6446104 176.015116,35.6945267 176.235642,35.7943592 C176.456167,35.8941917 176.56643,36.0886416 176.56643,36.3777089 C176.56643,36.8217402 176.229682,37.0437558 175.556185,37.0437558 L175.556185,37.0437558 L174.934839,37.052696 Z" id="TRANSPORTER" fill="#026E3A" fill-rule="nonzero"></path>
            </g>
            <g id="编组-10" transform="translate(32.000000, 5.000000)"></g>
        </g>
    </g>
</svg>