<?xml version="1.0" encoding="UTF-8"?>
<svg width="120px" height="30px" viewBox="0 0 120 30" version="1.1" xmlns="http://www.w3.org/2000/svg" xmlns:xlink="http://www.w3.org/1999/xlink">
    <title>long_logo_white-120×30-svg
</title>
    <g id="页面-1" stroke="none" stroke-width="1" fill="none" fill-rule="evenodd">
        <g id="long_logo_white-120×30-svg--">
            <rect id="矩形" x="0" y="0" width="120" height="30"></rect>
            <g id="编组-10" stroke-width="1" fill-rule="evenodd" transform="translate(15.000000, 4.000000)" fill="#026E3A">
                <path d="M12.581519,17.3684211 C13.3285982,17.3684211 13.9807112,17.4931942 14.5378579,17.7427405 L14.7423364,17.8421691 L15.3950559,17.4868581 L15.3950559,19.0739139 L15.1755819,18.9078645 C14.3654825,18.3254883 13.4964083,18.0343002 12.5683594,18.0343002 C12.1156668,18.0343002 11.7629877,18.1514212 11.5103221,18.3856633 C11.2576565,18.6199054 11.1313237,18.9458265 11.1313237,19.3634266 C11.1313237,20.1845898 11.6296365,20.5951714 12.6262619,20.5951714 C13.017292,20.5951714 13.3445112,20.5255595 13.6079194,20.3863356 L13.7343059,20.3109226 L13.7343059,20.1161595 L12.268319,19.266045 L16.7820848,19.266045 L15.4713819,20.1161595 L15.4713819,21.2636825 L14.676538,20.8846841 L14.3560867,20.9845364 C13.7119613,21.1688792 13.0484992,21.2610506 12.3657005,21.2610506 C11.4076767,21.2610506 10.6044984,21.0820791 9.95616546,20.7241362 C9.30783253,20.3661932 8.98366606,19.9222738 8.98366606,19.3923778 C8.98366606,18.8396718 9.33766111,18.3641692 10.0456512,17.9658699 C10.7536413,17.5675707 11.5989306,17.3684211 12.581519,17.3684211 Z M22.9347263,17.48949 L21.7371966,18.3264448 L21.7371966,19.6950502 L21.7434273,19.8164414 C21.7683501,20.0493407 21.8680413,20.2229408 22.0425009,20.3372419 C22.246037,20.4705932 22.5715195,20.5372689 23.0189481,20.5372689 C23.4804138,20.5372689 23.8159853,20.4701546 24.0256627,20.335926 C24.2053861,20.2208729 24.3080852,20.0474876 24.33376,19.81577 L24.3401787,19.6950502 L24.3401787,18.3264448 L23.142649,17.48949 L26.6747037,17.48949 L25.356105,18.3264448 L25.356105,19.8634939 L25.3483229,20.0174295 C25.3068185,20.4157505 25.0992966,20.716679 24.725757,20.9202152 C24.3055249,21.1491934 23.6602626,21.2636825 22.7899699,21.2636825 C21.9319596,21.2636825 21.2327427,21.1338405 20.692319,20.8741564 C20.2059377,20.6404407 19.938428,20.3441903 19.8897899,19.9854051 L19.8816835,19.8634939 L19.8816835,18.3264448 L18.5630849,17.48949 L22.9347263,17.48949 Z M34.1880547,17.48949 L33.3274125,18.1448414 L34.8302465,20.2424923 L36.1883241,21.0820791 L31.6613987,21.0820791 L32.9089351,20.3451377 L32.7457552,20.097736 L30.6770556,20.097736 L30.5165076,20.3451377 L31.6008642,21.0820791 L28.2451491,21.0820791 L29.3031863,20.2424923 L30.7823329,18.1448414 L29.9401142,17.48949 L34.1880547,17.48949 Z M43.0015809,17.4868581 L43.8437996,17.5421287 L44.0485787,17.5737484 C44.3787888,17.635282 44.6535578,17.7409858 44.8728856,17.8908598 C45.1360789,18.0707086 45.2676756,18.27907 45.2676756,18.515944 C45.2676756,18.9721458 44.7474301,19.2607812 43.7069391,19.3818501 C44.0596182,19.4695812 44.3302687,19.5954754 44.5188905,19.7595326 C44.6760755,19.8962469 44.8268633,20.1045474 44.9712541,20.384434 L45.0571209,20.5609563 L45.9282909,21.0820791 L43.3805793,21.0820791 L43.2886765,20.8672274 C43.1075565,20.4544973 42.9425504,20.1436068 42.7936582,19.9345561 C42.6984699,19.7994502 42.493796,19.7234531 42.1796364,19.7065649 L42.0382933,19.702946 L41.1644914,19.702946 L41.1644914,20.2477562 L42.48309,21.0820791 L37.9903797,21.0820791 L39.3089783,20.2477562 L39.3089783,18.3290767 L37.9903797,17.48949 L42.3435976,17.48949 L43.0015809,17.4868581 Z M52.7231241,17.48949 L52.9469191,17.4918265 C53.3803824,17.5011726 53.7290867,17.5385567 53.993032,17.6039791 C54.3009682,17.6803052 54.6023246,17.8202363 54.8971012,18.0237725 C55.4655988,18.4220717 55.7498476,18.8616046 55.7498476,19.3423711 C55.7498476,19.8564754 55.457703,20.2749529 54.8734138,20.5978034 C54.3540456,20.8847816 53.6974269,21.0442139 52.9035578,21.0761004 L52.5994233,21.0820791 L48.0014356,21.0820791 L49.3200342,20.2503881 L49.3200342,18.3264448 L48.0014356,17.48949 L52.7231241,17.48949 Z M62.5525766,17.48949 L61.2366099,18.3264448 L61.2366099,20.2424923 L62.5525766,21.0820791 L58.1230327,21.0820791 L59.4416313,20.2424923 L59.4416313,18.3264448 L58.1230327,17.48949 L62.5525766,17.48949 Z M70.3738639,17.48949 L69.5132217,18.1448414 L71.0160557,20.2424923 L72.3741333,21.0820791 L67.8472078,21.0820791 L69.0947443,20.3451377 L68.9315644,20.097736 L66.8628647,20.097736 L66.7023168,20.3451377 L67.7866734,21.0820791 L64.4309583,21.0820791 L65.4889955,20.2424923 L66.9681421,18.1448414 L66.1259234,17.48949 L70.3738639,17.48949 Z M77.3266132,17.48949 L79.5637566,19.4292249 L79.5637566,18.3264448 L78.242526,17.48949 L81.9246009,17.48949 L80.6060022,18.3264448 L80.6060022,21.0820791 L78.7478572,21.0820791 L76.4843945,19.0396988 L76.4843945,20.2424923 L77.8056251,21.0820791 L74.1235502,21.0820791 L75.4421489,20.2424923 L75.4421489,18.3264448 L74.1235502,17.48949 L77.3266132,17.48949 Z M52.0756685,18.1264179 L51.1755473,18.1264179 L51.1755473,20.3714571 L52.057245,20.3714571 C52.6783813,20.3714571 53.0911562,20.3034655 53.2955697,20.1674822 C53.4999832,20.031499 53.6021899,19.7582166 53.6021899,19.347635 C53.6021899,18.5334902 53.0933494,18.1264179 52.0756685,18.1264179 Z M31.6613987,18.5317356 L31.0271027,19.505551 L32.3378056,19.505551 L31.6613987,18.5317356 Z M67.8472078,18.5317356 L67.2129119,19.505551 L68.5236147,19.505551 L67.8472078,18.5317356 Z M42.3462295,18.1632649 L41.1644914,18.1632649 L41.1644914,18.992324 L42.3409656,18.992324 L42.7068044,18.9870601 L42.8316425,18.9822186 C43.1449617,18.9563975 43.3016213,18.827292 43.3016213,18.594902 C43.3016213,18.4247037 43.2367003,18.3102146 43.1068583,18.2514347 C42.9770162,18.1926549 42.7234733,18.1632649 42.3462295,18.1632649 Z M89.8366606,12.8166969 L89.8366606,13.5353902 L0,13.5353902 L0,12.8166969 L89.8366606,12.8166969 Z M6.98886777,0.0141475056 L6.43711505,0.820555325 L12.5205425,0.820555325 L12.3224774,2.16456836 L5.53167469,2.16456836 L4.27254669,4.0461866 L5.33360961,4.0461866 L5.48923218,2.97097618 L8.17725824,2.97097618 L8.02163568,4.0461866 L11.5302171,4.0461866 L11.332152,5.39019964 L7.83771811,5.39019964 L7.30011289,9.26661617 L7.26985295,9.39924904 C7.2082851,9.61342655 7.0910442,9.79321777 6.91813024,9.93862269 C6.74521629,10.0840276 6.54937813,10.1688471 6.33061577,10.1930813 L6.19660746,10.2003515 L3.39540135,10.2003515 L4.66867685,8.88463352 L5.14969204,5.39019964 L1.38645555,5.39019964 L1.58452063,4.0461866 L2.84364863,2.16456836 L1.30157052,2.16456836 L1.49963559,0.820555325 L3.74908899,0.820555325 L4.06033411,0.367835146 L3.76323649,0.0141475056 L6.98886777,0.0141475056 Z M25.5786901,0.282950112 L25.3947726,1.61281564 L24.7156923,3.91885905 L25.3523301,3.91885905 L25.1684125,5.26287209 L24.3902997,9.11099361 L22.2540263,9.11099361 L22.4237964,7.90845564 L22.9189591,7.90845564 L23.4565643,5.26287209 L22.7350415,5.26287209 L22.9189591,3.91885905 L23.5980394,1.61281564 L22.8623691,1.61281564 L21.6456836,10.186204 L19.5660003,10.186204 L20.9666033,0.282950112 L25.5786901,0.282950112 Z M83.4419881,0.282950112 L83.243923,1.65525816 L82.6355803,3.777384 L83.1165955,3.777384 L83.0458579,4.99406948 L82.2677451,8.61583092 L80.3012418,8.61583092 L80.4710119,7.41329294 L80.8954371,7.41329294 L81.4047473,4.99406948 L80.782257,4.99406948 L80.9520271,3.777384 L81.5603698,1.66940566 L80.9803221,1.66940566 L79.7919316,10.157909 L77.9386084,10.157909 L79.3250639,0.282950112 L83.4419881,0.282950112 Z M90.1903483,5.07895451 L90.0064307,6.42296755 L88.9736628,6.42296755 L88.6765652,8.5875359 L89.1151378,8.5875359 L89.7659231,8.04993069 L89.4688255,10.157909 L86.4695543,10.157909 L86.9788645,6.42296755 L86.2431942,6.42296755 L84.5737885,10.157909 L82.5506952,10.157909 L84.2059534,6.42296755 L83.0458579,6.42296755 L83.2297755,5.07895451 L90.1903483,5.07895451 Z M35.7507467,0.0141475056 L36.0761393,2.58899353 L38.4812153,2.33433843 L38.2831502,3.74908899 L36.2459094,3.96130157 L36.4439744,5.60241222 L38.1558226,4.59793932 L37.915315,6.35223002 L36.627892,7.10204782 L36.8259571,8.61583092 L37.3352673,8.61583092 L37.9577575,8.0782257 L37.6748074,10.0588765 L34.7179788,10.0588765 L34.5057662,8.3328808 L32.0865427,9.74763136 L32.3411978,7.99334067 L34.3218486,6.83324521 L34.0106035,4.20180917 L32.822213,4.32913672 L33.0202781,2.91438616 L33.8408334,2.82950112 L33.5720308,0.551752719 L33.1193106,0.0141475056 L35.7507467,0.0141475056 Z M58.033068,5.65900224 L57.6652329,8.34702831 L60.8908641,8.34702831 L61.4992069,7.8094231 L61.2021093,9.95984395 L55.0196493,9.95984395 L55.6138445,5.65900224 L58.033068,5.65900224 Z M55.3167469,5.92780485 L54.2132415,9.95984395 L52.0628206,9.95984395 L53.1663261,5.92780485 L55.3167469,5.92780485 Z M63.9184303,5.92780485 L63.8901353,9.95984395 L61.7397145,9.95984395 L61.7680095,5.92780485 L63.9184303,5.92780485 Z M77.5000357,0.268802607 L77.3161182,1.57037312 L68.6719922,1.57037312 L67.6816668,8.64412593 L76.3257928,8.64412593 L76.1418752,9.94569644 L65.1775583,9.94569644 L66.4508338,0.877145348 L65.8849336,0.268802607 L77.5000357,0.268802607 Z M51.0583477,0.268802607 L50.8744302,1.55622562 L43.1781871,1.55622562 L42.1878617,8.64412593 L50.3085299,8.64412593 L50.1246124,9.94569644 L39.5705732,9.94569644 L40.8438487,0.877145348 L40.2779485,0.268802607 L51.0583477,0.268802607 Z M19.5801478,5.78632979 L19.0001,9.93154894 L12.9874101,9.93154894 L13.5674579,5.78632979 L19.5801478,5.78632979 Z M31.3508724,0.0424425168 L31.1386598,1.55622562 L32.822213,1.55622562 L32.6382954,2.87194364 L30.9405948,2.87194364 L30.7142347,4.5413493 L32.3129028,4.5413493 L31.563085,9.88910642 L26.1021478,9.88910642 L26.8519656,4.5413493 L28.3516012,4.5413493 L28.9175015,0.58004773 L28.4789288,0.0424425168 L31.3508724,0.0424425168 Z M10.9643168,6.0551324 L11.8273147,9.56371379 L9.42223874,9.56371379 L8.55924089,6.0551324 L10.9643168,6.0551324 Z M4.25839919,6.0551324 L2.40507595,9.56371379 L1.17950094e-12,9.56371379 L1.85332323,6.0551324 L4.25839919,6.0551324 Z M17.2599568,7.01716278 L15.5481087,7.01716278 L15.3217486,8.68656844 L17.0335968,8.68656844 L17.2599568,7.01716278 Z M30.0634494,5.82877231 L28.7335839,5.82877231 L28.3374537,8.61583092 L29.6673193,8.61583092 L30.0634494,5.82877231 Z M71.7420009,1.89576575 L71.5439359,2.36263344 L76.919988,2.36263344 L76.7360704,3.69249896 L74.288552,3.69249896 L73.7226517,4.58379182 L76.891693,4.58379182 L76.7077754,5.88536233 L74.2461094,5.88536233 L75.4203524,8.3187333 L73.4821441,8.3187333 L72.5625563,6.45126256 L71.4024608,8.30458579 L69.2237449,8.30458579 L70.709233,5.88536233 L68.4031896,5.88536233 L68.5871072,4.58379182 L71.5156409,4.58379182 L72.0673936,3.69249896 L70.9921831,3.69249896 L70.8507081,4.0461866 L68.9832373,4.0461866 L69.7754977,1.89576575 L71.7420009,1.89576575 Z M46.0359833,2.10797834 L46.7999486,3.46613887 L48.0590766,2.15042085 L50.393415,2.15042085 L47.846864,4.7960044 L47.8044215,4.81015191 L49.9265473,8.0640782 L47.5922089,8.0640782 L46.5169984,6.23904997 L45.2437229,8.0640782 L42.895237,8.0640782 L45.4559355,4.90918445 L45.3993455,4.88088944 L43.7016448,2.10797834 L46.0359833,2.10797834 Z M60.8908641,5.39019964 L60.8201266,7.8094231 L58.6838533,7.8094231 L58.7545908,5.39019964 L60.8908641,5.39019964 Z M16.4111065,2.36263344 L16.3828115,4.00374409 L17.1043343,4.00374409 L17.5570545,2.41922346 L19.2406076,2.41922346 L18.802035,4.00374409 L20.089458,4.00374409 L19.9055404,5.31946211 L13.3693928,5.31946211 L13.5533104,4.00374409 L14.6002258,4.00374409 L14.6285208,2.36263344 L16.4111065,2.36263344 Z M57.7501179,0 L58.1321005,1.08935793 L60.2542264,1.08935793 L60.7493891,0.35368764 L60.438144,0 L63.6637752,0 L62.9422525,1.08935793 L64.5975106,1.08935793 L64.0316104,5.12139703 L53.2795061,5.12139703 L53.7605213,1.62696315 L53.3078011,1.08935793 L55.4440745,1.08935793 L55.0620918,0 L57.7501179,0 Z M89.9498407,3.18318876 L89.7659231,4.52720179 L83.8239707,4.52720179 L84.0078883,3.18318876 L89.9498407,3.18318876 Z M61.7114195,2.43337096 L56.3353673,2.43337096 L56.1514498,3.777384 L61.5275019,3.777384 L61.7114195,2.43337096 Z M88.3794675,0.0282950112 L88.2662875,0.862997842 L90.770396,0.862997842 L90.4874459,2.87194364 L88.4502051,2.87194364 L88.5492376,2.19286337 L85.7197365,2.19286337 L85.6207039,2.87194364 L83.5268731,2.87194364 L83.8098232,0.862997842 L85.9602441,0.862997842 L86.0026866,0.565900224 L85.5358189,0.0282950112 L88.3794675,0.0282950112 Z M18.3493148,0.0282950112 L18.2361347,0.763965303 L20.3724081,0.763965303 L20.202638,1.99479829 L14.0201781,1.99479829 L14.1899481,0.763965303 L16.1705989,0.763965303 L16.1988939,0.565900224 L15.8452063,0.0282950112 L18.3493148,0.0282950112 Z M38.2407077,0.297097618 L38.4670678,1.92406076 L36.6137445,1.92406076 L36.3307944,0.297097618 L38.2407077,0.297097618 Z" id="形状结合" fill-rule="nonzero"></path>
            </g>
        </g>
    </g>
</svg>