<?xml version="1.0" standalone="no"?>
<!DOCTYPE svg PUBLIC "-//W3C//DTD SVG 1.1//EN" "http://www.w3.org/Graphics/SVG/1.1/DTD/svg11.dtd" >
<svg xmlns="http://www.w3.org/2000/svg">
<metadata>Generated by IcoMoon</metadata>
<defs>
<font id="icomoon" horiz-adv-x="1024">
<font-face units-per-em="1024" ascent="960" descent="-64" />
<missing-glyph horiz-adv-x="1024" />
<glyph unicode="&#x20;" horiz-adv-x="512" d="" />
<glyph unicode="&#xe900;" glyph-name="progress-bar" horiz-adv-x="2511" d="M2456.32 448c0-37.888-30.72-68.576-68.576-68.576h-2264.48c-37.888 0-68.576 30.72-68.576 68.576v0c0 37.888 30.72 68.576 68.576 68.576h2264.448c37.888 0 68.608-30.688 68.608-68.576v0z" />
<glyph unicode="&#xe901;" glyph-name="sucess" d="M512 957.6c-281.472 0-509.6-228.128-509.6-509.6 0-281.44 228.128-509.6 509.6-509.6s509.6 228.192 509.6 509.6c0 281.472-228.128 509.6-509.6 509.6zM434.368 203.104l-245.696 240.192 83.392 84.384 161.12-161.248 326.944 326.4 75.168-89.44-400.928-400.288z" />
<glyph unicode="&#xe902;" glyph-name="studio" horiz-adv-x="3840" d="M1658.176 579.168l111.328 4.672c-3.424-12.064-2.976-21.28 1.312-27.552 6.944-10.272 21.408-15.424 43.36-15.424 16.416 0 30.176 2.656 41.504 7.872 11.328 5.248 18.656 11.328 21.888 18.208 3.136 6.592 1.664 12.384-4.288 17.568-6.016 5.216-23.232 10.080-51.776 14.688-46.624 7.744-77.664 17.888-93.056 30.624-15.488 12.768-18.592 29.088-9.248 48.832 6.144 12.992 17.504 25.312 34.016 36.8 16.512 11.552 37.408 20.64 62.752 27.232 25.28 6.624 57.312 9.952 95.872 9.952 47.456 0 80.736-6.048 100-18.048 19.104-12.032 24.864-31.136 17.152-57.312l-110.016-4.384c2.432 11.392 0.384 19.712-6.4 24.832-6.72 5.184-18.144 7.776-34.4 7.776-13.344 0-24.256-1.888-32.864-5.76-8.576-3.84-14.112-8.544-16.768-14.080-1.984-4-0.768-7.616 3.2-10.848 3.808-3.328 15.2-6.432 34.048-9.28 46.656-7.392 79.008-14.848 97.152-22.368 18.016-7.552 29.376-16.832 34.016-28 4.576-11.104 3.584-23.68-2.88-37.408-7.712-16.192-21.408-31.168-41.024-44.832-19.648-13.696-42.912-24.064-69.888-31.072-26.976-7.104-58.368-10.624-94.336-10.624-63.104 0-102.88 8.32-119.296 24.832-16.448 16.544-20.256 37.6-11.36 63.104zM3667.936 785.248c-70.432-2.624-140.736-5.184-210.88-7.52l-110.56-303.68c38.048-1.152 76-2.432 113.824-3.712l39.552 108.8h62.752c46.24 0 83.968 9.28 113.44 28 29.216 18.72 49.952 44.64 62.080 77.856 11.616 32.32 10.464 57.184-3.872 74.688-12.256 14.88-34.432 23.392-66.336 25.568zM3625.44 682.080c-3.808-10.656-11.52-19.36-23.008-26.144-11.392-6.784-28.16-10.272-50.24-10.272h-28.064l26.048 70.976 33.28 2.432c21.408 0 34.752-3.616 39.84-10.752 5.216-7.232 5.856-15.968 2.144-26.24zM3337.504 773.92c-95.936-2.88-191.104-5.472-285.792-7.776l-102.528-281.728c38.112-0.832 76.096-1.664 113.92-2.592l85.312 234.624 51.808 3.072c20.928 0 34.208-2.848 39.712-8.544 5.408-5.632 6.272-13.888 2.464-24.448-2.688-7.232-7.392-13.568-14.208-19.040-6.848-5.568-14.24-9.024-22.4-10.368-16.032-2.944-26.688-4.512-31.936-4.512h-7.936l-26.208-71.296c4.096-4.32 7.456-12.128 10.208-23.808l19.264-78.464c43.84-1.152 87.424-2.4 130.944-3.68l-16.832 76.992c-0.992 4.768-3.808 11.552-8.704 20.416-4.64 8.8-8.736 14.528-11.904 17.248-4.864 4.096-13.344 8.096-25.536 12.16 18.336 3.424 33.376 7.776 45.024 13.024 18.368 8.192 34.368 18.944 47.84 32.16 13.664 13.248 23.808 28.992 30.368 47.2 7.712 20.928 8.416 38.72 2.208 53.312-4.864 11.744-13.408 20.288-25.088 26.048zM2735.904 759.712l-211.296-268.064c37.824-0.544 75.52-0.96 113.12-1.504l148.832 210.56-4.16-189.344-0.416-23.648c39.264-0.736 78.528-1.472 117.568-2.272l-16.608 276.992c-48.768-0.928-97.856-1.856-147.040-2.72zM1566.016 754.112l-54.656-150.112-61.088 151.136c-43.488 0.48-86.848 0.928-130.112 1.44l-96.864-266.176c36.032 0.544 72.096 0.992 108.32 1.472l53.056 145.792 58.624-144.576c45.248 0.448 90.624 0.8 136.224 1.12l94.272 259.264c-36 0.128-71.904 0.416-107.776 0.64zM1009.888 761.472l-220.096-279.36c38.848 0.928 77.824 1.792 116.928 2.624l152.544 215.968-4.096-189.312-0.544-23.712c39.008 0.672 78.112 1.376 117.408 2.016l-16.128 269.152c-48.928 0.768-97.504 1.632-146.016 2.624zM816.672 765.504c-99.552 2.304-198.24 4.992-295.84 7.872l-109.888-301.952c38.528 1.28 77.28 2.432 116.192 3.616l89.248 244.48h50.304c20.928 0 34.144-2.848 39.68-8.544 5.568-5.632 6.4-13.888 2.496-24.448-2.624-7.232-7.328-13.568-14.176-19.040-6.784-5.568-14.272-9.024-22.336-10.368-16.128-2.944-26.784-4.512-31.968-4.512h-8l-26.144-71.296c4.032-4.32 7.392-12.128 10.176-23.808l19.52-79.424c42.912 1.184 86.016 2.304 129.312 3.328l-15.52 70.944c-0.928 4.768-3.776 11.552-8.608 20.416-4.736 8.8-8.8 14.528-12.064 17.248-4.704 4.096-13.216 8.096-25.376 12.16 18.272 3.424 33.312 7.776 45.024 13.024 18.304 8.192 34.304 18.944 47.84 32.16 13.6 13.248 23.744 28.992 30.4 47.2 7.552 20.928 8.352 38.72 2.208 53.312-2.944 6.944-7.168 12.8-12.48 17.632zM156.256 785.92h-32.704l-29.536-81.152h116.928l-88.736-243.712c38.528 1.504 77.28 2.976 116.192 4.384l87.168 239.328h116.896l25.568 70.272c-105.184 3.232-209.152 6.848-311.776 10.88zM2581.344 727.968l18.208 29.632c-35.936-0.48-72-0.992-108.192-1.376l-16.224-28.256-72.768-125.952 7.68 153.312 9.952 201.76-241.12-355.264 7.872 51.808 15.104 100.064c-35.744-0.256-71.648-0.416-107.52-0.512l-13.984-126.784-40.448-367.264 273.376 405.024-8.416-170.272c44.224-0.32 88.32-0.736 132.32-1.216l144.16 235.296zM1920 417.76c698.752 0 1346.88-37.728 1880.864-102.144-508 90.944-1164.224 145.728-1880.864 145.728-716.608 0-1372.864-54.784-1880.896-145.728 533.984 64.416 1182.144 102.144 1880.896 102.144zM888.8 23.616l56.864 11.616c4.64-35.616 23.968-53.376 58.016-53.376 25.536 0.736 39.040 11.168 40.608 31.328 0.768 13.92-8.128 24.768-26.688 32.48-19.36 6.944-36.352 11.584-51.040 13.92-47.2 10.048-70.016 34.784-68.448 74.272 4.64 42.528 35.968 65.376 93.984 68.448 61.088 1.536 96.672-22.432 106.752-71.936l-56.864-10.464c-3.872 24.768-19.744 37.12-47.584 37.12-22.432-0.768-34.432-8.896-35.968-24.352-1.568-13.92 13.536-24.352 45.248-31.328 24.768-5.408 44.864-12.416 60.352-20.896 27.072-15.488 40.992-37.12 41.792-64.992-2.336-49.472-35.968-75.008-100.96-76.576-65.024-0.704-103.712 27.52-116.064 84.736zM1470.592 151.232h-82.4v-207.68h-59.168v207.68h-83.552v47.584h225.12v-47.584zM1618.4 52.608v146.208h58.016v-146.208c0.768-42.528 20.096-64.192 58.016-64.96 36.352 0 54.528 21.664 54.528 64.96v146.208h59.168v-143.872c0-77.376-39.072-116.032-117.184-116.032-74.24 0-111.776 37.888-112.544 113.696zM2086.496-56.448h-83.552v255.264h80.064c92.032-0.768 138.848-42.56 140.416-125.344 3.072-89.696-42.56-132.992-136.928-129.92zM2081.856 151.232h-19.712v-162.432h19.712c53.376 0 80.064 27.84 80.064 83.552-1.568 51.84-28.256 78.112-80.064 78.88zM2429.248-56.448h-59.2v255.264h59.2v-255.264zM2832.352 70.016c-4.64-82.784-46.816-126.464-126.464-131.104-80.48 4.64-123.008 48.352-127.648 131.104 3.872 85.088 46.432 129.184 127.648 132.288 78.912-4.64 121.024-48.736 126.464-132.288zM2768.544 70.016c-1.568 53.376-22.848 81.216-63.84 83.552-41.792-2.336-63.808-30.176-66.144-83.552 1.568-52.608 23.232-80.064 64.96-82.4 42.592 0.8 64.256 28.256 65.024 82.4z" />
<glyph unicode="&#xe903;" glyph-name="dashboard" d="M473.024 863.744c-254.912 0-461.664-206.752-461.664-461.728 0-255.040 206.752-461.76 461.664-461.76 139.744 0 264.832 62.144 349.504 160.192l-349.504 301.6v461.696zM1012.672 493.952c0 255.104-206.656 461.792-461.6 461.792v-461.792h461.6zM551.040 428.928l349.376-301.536c69.92 80.928 112.256 186.304 112.256 301.536h-461.632z" />
<glyph unicode="&#xe904;" glyph-name="task" d="M222.688 579.904l-53.44-71.2 356.192-267.104 498.592 664.96-71.264 53.44-445.152-593.76-284.928 213.664zM933.024 514.688v-488.064h-842.144v842.432h488l-0.064 90.944h-578.848v-1024h1024v578.784l-90.944-0.096z" />
<glyph unicode="&#xe905;" glyph-name="connection" d="M832.512 383.872h-640.416v128.128h640.416v-128.128zM1024 640.128v64.032h-447.68v-64.032h384.224v-384.224h-384.224v-64.032h447.68zM64.032 255.808v384.32h320.224v64.032h-384.256v-512.288h384.224v64.032l-320.192-0.096z" />
<glyph unicode="&#xe906;" glyph-name="arrow-right" d="M1019.84 440.8l-449.344 461.056v-299.552h-566.336v-299.584h566.336v-308.576z" />
<glyph unicode="&#xe907;" glyph-name="arrow-left" d="M4.16 455.2l449.344-461.056v299.552h566.336v299.584h-566.336v308.576z" />
<glyph unicode="&#xe908;" glyph-name="equal" d="M0 768h1024v-256h-1024v256zM0 384h1024v-256h-1024v256z" />
<glyph unicode="&#xe909;" glyph-name="package" d="M882.784 787.872h-185.376v61.792c0 33.984-27.808 61.792-61.792 61.792h-247.168c-33.984 0-61.792-27.808-61.792-61.792v-61.792h-185.44c-67.968 0-123.584-55.616-123.584-123.584v-556.16c0-67.968 55.616-123.584 123.584-123.584h741.536c67.968 0 123.584 55.616 123.584 123.584v556.16c0.032 67.968-55.584 123.584-123.552 123.584v0zM388.416 818.784c0 16.992 13.92 30.912 30.912 30.912h185.376c16.992 0 30.912-13.888 30.912-30.912v-30.912h-247.168v30.912h-0.032zM944.576 108.128c0-33.984-27.808-61.792-61.792-61.792h-741.568c-33.984 0-61.792 27.808-61.792 61.792v339.872h313.6c-2.304-10.048-4.64-20.096-4.64-30.912 0-67.968 55.616-123.584 123.584-123.584s123.584 55.616 123.584 123.584c0 10.816-1.536 20.864-4.64 30.912h313.6v-339.872h0.064zM450.208 417.088c0 11.584 3.104 21.632 8.512 30.912h106.592c5.408-9.28 8.512-19.296 8.512-30.912 0-33.984-27.808-61.792-61.792-61.792s-61.824 27.808-61.824 61.792v0zM944.576 509.792h-865.152v154.496c0 33.984 27.808 61.792 61.792 61.792h741.536c33.984 0 61.792-27.808 61.792-61.792v-154.496h0.032z" />
<glyph unicode="&#xe90a;" glyph-name="function" d="M438.56 504.448c0-41.856-34.272-76.128-76.128-76.128h-270.624c-41.856 0-76.128 34.272-76.128 76.128v282.176c0 41.856 34.272 76.128 76.128 76.128h270.624c41.856 0 76.128-34.272 76.128-76.128v-282.176zM438.56 21.408c0-41.856-34.272-76.128-76.128-76.128h-270.624c-41.856 0-76.128 34.272-76.128 76.128v282.112c0 41.92 34.272 76.192 76.128 76.192h270.624c41.856 0 76.128-34.272 76.128-76.128v-282.176zM933.152 21.408c0-41.856-34.272-76.128-76.128-76.128h-270.624c-41.856 0-76.128 34.272-76.128 76.128v282.112c0 41.856 34.272 76.128 76.128 76.128h270.624c41.92 0 76.128-34.272 76.128-76.128v-282.112zM965.248 729.472h-46.88c-4.416 9.536-10.688 29.344-18.72 43.456l33.12 32.192c10.464 10.432 10.464 26.88 0.032 37.312l-37.824 37.568c-10.432 10.432-27.36 10.336-37.824-0.128l-31.264-33.152c-14.112 8-33.92 14.24-43.424 18.656v46.88c0 14.784-15.648 26.752-30.4 26.752h-53.472c-14.752 0-30.432-11.968-30.432-26.752v-46.88c-9.536-4.416-29.312-10.688-43.456-18.688l-32.192 33.12c-10.432 10.432-26.912 10.432-37.312 0l-37.568-37.824c-10.432-10.432-10.336-27.36 0.128-37.824l33.184-31.264c-8.032-14.112-14.24-33.92-18.656-43.456h-46.88c-14.784 0-26.752-15.648-26.752-30.4v-53.472c0-14.752 11.968-30.432 26.752-30.432h46.88c4.416-9.536 10.688-29.312 18.688-43.456l-33.12-32.192c-10.464-10.464-10.464-26.912-0.032-37.344l37.792-37.568c10.432-10.432 27.36-10.336 37.824 0.128l31.264 33.184c14.112-8 33.92-14.24 43.456-18.656v-46.88c0-14.784 15.648-26.752 30.4-26.752h53.472c14.752 0 30.432 11.968 30.432 26.752v46.88c9.536 4.416 29.312 10.688 43.456 18.72l32.192-33.12c10.464-10.464 26.912-10.464 37.344-0.032l37.568 37.792c10.432 10.432 10.336 27.36-0.128 37.824l-33.184 31.264c8 14.112 14.24 33.888 18.656 43.424h46.88c14.784 0 26.752 15.648 26.752 30.4v53.536c0 14.752-11.968 30.432-26.752 30.432v0 0zM725.312 552.064c-66.432 0-120.288 53.856-120.288 120.288s53.856 120.288 120.288 120.288c66.432 0 120.288-53.856 120.288-120.288 0-66.464-53.856-120.288-120.288-120.288v0 0z" />
<glyph unicode="&#xe90b;" glyph-name="folder-open" d="M907.296 72.096c0-34.976-28.352-63.2-63.264-63.2h-790.464l110.688 521.664c0 34.944 28.192 63.232 63.104 63.232h727.36c34.912 0 63.168-28.32 63.168-63.232l-110.592-458.464zM180 641.248h711.456v62.112c0 34.944-28.384 63.232-63.2 63.232h-379.456v57.312c0 34.88-28.32 63.2-63.2 63.2h-316.256c-34.912 0-63.2-28.352-63.2-63.2v-751.84l110.592 505.888c-0.032 34.976 28.352 63.296 63.264 63.296v0 0z" />
<glyph unicode="&#xe90c;" glyph-name="close-sign" d="M139.232 77.472l745.536-1.28-53.44 743.616-692.096-742.336z" />
<glyph unicode="&#xe90d;" glyph-name="open-sign" d="M14.016 716l497.984-536 497.984 536h-995.968z" />
<glyph unicode="&#xe90e;" glyph-name="folder-close" d="M28.8 566.272v-467.136c0-32.192 26.528-58.496 59.168-58.496h847.968c32.64 0 59.168 26.208 59.168 58.496v474.88h-966.304v-7.744zM936.032 767.744h-412.608v12.768c0 41.312-33.024 74.88-73.504 74.88h-347.584c-40.48 0-73.504-33.568-73.504-74.88v-142.592h966.4v71.36c-0.032 32.256-26.56 58.464-59.2 58.464v0z" />
<glyph unicode="&#xe90f;" glyph-name="trash" d="M479.808 662.496c0 19.488 15.968 35.168 35.168 35.168v0c19.2 0 35.168-15.968 35.168-35.168v-533.408c0-19.488-15.968-35.168-35.168-35.168v0c-19.488 0-35.168 15.968-35.168 35.168v533.408zM313.984 662.496c0 19.488 15.68 35.168 35.168 35.168v0c19.488 0 35.168-15.968 35.168-35.168v-533.408c0-19.488-15.968-35.168-35.168-35.168v0c-19.488 0-35.168 15.968-35.168 35.168v533.408zM645.344 662.496c0 19.488 15.968 35.168 35.168 35.168v0c19.488 0 35.168-15.968 35.168-35.168v-533.408c0-19.488-15.968-35.168-35.168-35.168v0c-19.2 0-35.168 15.968-35.168 35.168v533.408zM936.96 835.36h-189.088v44.352c0 34.368-30.848 61.408-70.336 61.408h-325.408c-39.488 0-70.336-27.040-70.336-61.408v-44.096h-194.752c-19.488 0-35.168-15.68-35.168-35.168s15.68-35.168 35.168-35.168h74.112v-741.696c0-37.856 31.648-68.704 70.336-68.704h567.232c38.688 0 70.336 30.848 70.336 68.704v741.44h67.904c19.488 0 35.168 15.68 35.168 35.168 0 19.456-15.712 35.168-35.168 35.168v0zM352.128 870.528h325.408v-35.168h-325.408v35.168zM761.408 24.928c0 0-454.976-1.632-493.664-1.632s-36.512 39.776-36.512 39.776v668.128c0 40.576 34.368 33.824 34.368 33.824h491.488c0 0 41.376 2.432 41.376-33.824s0.544-637.568 0.544-671.648c0-33.792-37.6-34.624-37.6-34.624v0z" />
<glyph unicode="&#xe910;" glyph-name="cube" d="M962.624 640.576c-3.84 0-7.488-0.736-10.816-2.112l-4.864-2.528-374.080-199.296c-16.128-10.24-26.72-27.392-26.72-46.912v-407.072c0-13.984 12.032-25.28 27.072-25.28 4.64 0 9.056 1.12 12.928 3.072 0.32 0.224 0.768 0.416 1.12 0.608l373.184 203.36c17.568 9.856 29.28 27.904 29.28 48.416v402.56c0 13.92-12.16 25.184-27.104 25.184v0zM934.848 749.12l-387.52 179.008c0 0-22.72 10.496-35.36 10.496-12.608 0-35.232-10.496-35.232-10.496l-387.84-179.008c0 0-17.024-7.2-17.024-20.768 0-14.368 17.696-25.184 17.696-25.184l395.552-214.304c8.064-3.68 17.216-5.792 26.848-5.792 9.728 0 19.008 2.112 27.168 5.92l5.408 2.88 390.048 211.456c0 0 16 8.832 16 25.088 0.064 14.176-15.744 20.704-15.744 20.704v0zM451.136 436.672l-8.512 4.48-370.464 197.312c-3.2 1.376-6.944 2.112-10.816 2.112-14.912 0-27.072-11.264-27.072-25.184v-402.56c0-20.576 11.712-38.56 29.28-48.416l0.448-0.32 372.672-203.040c4.096-2.368 8.96-3.68 14.144-3.68 14.912 0 27.072 11.296 27.072 25.28v407.072c0 19.552-10.624 36.704-26.752 46.944v0z" />
<glyph unicode="&#xe911;" glyph-name="reduce" d="M422.4 940.96c54.624 0 106.848-10.688 156.672-32.032s92.704-50.016 128.672-85.952c35.968-35.936 64.608-78.848 85.952-128.672s32-102.048 32.032-156.672c0-46.912-7.648-91.84-22.912-134.784-15.296-42.944-37.056-81.92-65.312-116.928l254.56-254.208c8.64-8.64 12.928-19.264 12.928-31.872 0-12.832-4.256-23.52-12.768-32.032s-19.2-12.768-32.032-12.768c-12.608 0-23.232 4.32-31.872 12.928l-254.208 254.56c-35.040-28.224-74.016-50.016-116.928-65.312-42.944-15.296-87.872-22.944-134.784-22.912-54.624 0-106.848 10.688-156.672 32.032s-92.704 50.016-128.672 85.952c-35.968 35.936-64.608 78.848-85.952 128.672s-32 102.048-32.032 156.672c-0.032 54.624 10.656 106.848 32.032 156.672s50.016 92.736 85.952 128.672c35.936 35.936 78.816 64.608 128.672 85.952s102.080 32.032 156.672 32.032v0zM422.4 851.328c-42.496 0-83.104-8.288-121.856-24.864s-72.128-38.88-100.128-66.88c-28-28-50.304-61.376-66.88-100.128s-24.864-79.36-24.864-121.856c0-42.496 8.288-83.104 24.864-121.856s38.88-72.128 66.88-100.128c28-28 61.376-50.304 100.128-66.88s79.36-24.864 121.856-24.864c42.496 0 83.104 8.288 121.856 24.864s72.128 38.88 100.128 66.88c28 28 50.304 61.376 66.88 100.128s24.864 79.36 24.864 121.856c0 42.496-8.288 83.104-24.864 121.856s-38.88 72.128-66.88 100.128c-28 28-61.376 50.304-100.128 66.88s-79.392 24.864-121.856 24.864v0zM287.936 582.432h268.896c12.384 0 22.944-4.384 31.712-13.152s13.152-19.328 13.152-31.712-4.384-22.944-13.152-31.712c-8.768-8.768-19.328-13.152-31.712-13.152h-268.896c-12.384 0-22.944 4.384-31.712 13.152s-13.152 19.328-13.152 31.712 4.384 22.944 13.152 31.712c8.768 8.768 19.328 13.152 31.712 13.152v0z" />
<glyph unicode="&#xe912;" glyph-name="maximize" d="M633.12-64.32h377.664v377.632h-125.888v-251.744h-251.744l-0.032-125.888zM390.88-64.32h-377.664v377.632h125.888v-251.744h251.744l0.032-125.888zM390.88 960.32h-377.664v-377.632h125.888v251.744h251.744l0.032 125.888zM633.12 960.32h377.664v-377.632h-125.888v251.744h-251.744l-0.032 125.888z" />
<glyph unicode="&#xe913;" glyph-name="enlarge" d="M995.008 39.168l-230.176 230.176c55.264 71.072 88.16 160.384 88.16 257.376 0 231.776-187.872 419.648-419.744 419.648-231.776 0-419.648-187.872-419.648-419.648 0-231.84 187.872-419.712 419.648-419.712 97.024 0 186.336 32.896 257.408 88.16l230.176-230.176c10.208-10.208 23.648-15.392 37.088-15.392s26.88 5.152 37.088 15.392c20.544 20.544 20.544 53.728 0 74.176v0zM118.528 526.752c0 173.568 141.152 314.72 314.72 314.72 173.664 0 314.816-141.152 314.816-314.72 0-173.632-141.152-314.784-314.816-314.784-173.568 0-314.72 141.12-314.72 314.784v0zM587.712 571.616h-109.6v109.6c0 24.832-20.064 44.864-44.864 44.96-24.736-0.096-44.864-20.16-44.864-44.96v-109.6h-109.632c-24.832 0-44.864-20.064-44.864-44.768 0-24.832 20.064-44.96 44.864-44.96h109.6v-109.6c0-24.8 20.16-44.864 44.864-44.96 24.832 0.096 44.864 20.16 44.864 44.96v109.6h109.6c24.832 0 44.96 20.16 44.864 44.96 0.064 24.704-20 44.768-44.832 44.768v0z" />
<glyph unicode="&#xe914;" glyph-name="hand" d="M862.336 748.384c-18.24 0-35.36-4.896-50.080-13.472v63.552c0 55.232-44.928 100.128-100.128 100.128-20.64 0-39.744-6.272-55.712-16.96-13.728 39.008-50.88 67.040-94.496 67.040s-80.8-28.032-94.496-67.040c-15.936 10.72-35.104 16.96-55.712 16.96-55.232 0-100.128-44.928-100.128-100.128v-369.152l-67.392 116.8c-13.056 23.776-34.4 40.704-60.032 47.712-24.992 6.816-50.976 3.2-73.216-10.112-45.408-27.232-62.752-88.832-38.56-137.28 1.504-3.040 33.44-68.48 133.184-267.872 46.976-93.888 98.496-161.024 153.152-199.488 42.912-30.208 72.544-31.744 78.048-31.744h250.336c42.624 0 82.208 13.856 117.76 41.152 33.408 25.696 62.4 62.848 86.112 110.368 46.752 93.536 71.488 222.912 71.488 374.208v175.264c0 55.232-44.928 100.128-100.128 100.128v-0.064zM912.416 473.024c0-143.552-22.88-265.184-66.208-351.776-28.256-56.48-78.816-123.872-159.136-123.872h-249.856c-1.952 0.16-23.040 2.496-54.816 26.272-31.68 23.744-80.352 73.696-132.096 177.248-101.504 202.976-132.672 266.912-132.992 267.52-0.064 0.096-0.064 0.16-0.096 0.192-12.576 25.184-3.648 58.176 19.488 72.064 10.4 6.272 22.592 7.904 34.304 4.768 12.48-3.392 22.944-11.808 29.376-23.648 0.096-0.16 0.192-0.352 0.288-0.512l78.144-135.424c15.968-29.184 33.952-41.472 53.44-36.512 19.52 4.96 29.376 24.48 29.376 57.92v391.2c0 27.584 22.496 50.080 50.080 50.080s50.080-22.496 50.080-50.080v-325.44c0-13.824 11.2-25.024 25.024-25.024s25.024 11.2 25.024 25.024v375.52c0 27.584 22.496 50.080 50.080 50.080s50.080-22.496 50.080-50.080v-375.52c0-13.824 11.2-25.024 25.024-25.024s25.024 11.2 25.024 25.024v325.44c0 27.584 22.496 50.080 50.080 50.080s50.080-22.496 50.080-50.080v-375.52c0-13.824 11.2-25.024 25.024-25.024s25.024 11.2 25.024 25.024v225.312c0 27.584 22.496 50.080 50.080 50.080s50.080-22.496 50.080-50.080v-175.232z" />
<glyph unicode="&#xe915;" glyph-name="dblink" d="M3.936 613.088v-92.096c0-89.984 222.112-163.456 494.112-163.456 8.48 0 16.736 0.288 25.088 0.416 23.136 46.464 58.368 85.728 101.728 113.664-40.544-2.816-82.912-4.416-126.816-4.416-272 0-494.112 55.904-494.112 145.888zM852.032 507.712c37.664-9.792 72.256-26.976 102.208-50.016 24.896 19.488 38.72 40.864 38.72 63.264v92.096c0.032-44.224-53.888-80.16-140.928-105.344zM498.048 139.808c-272 0-494.112 55.904-494.112 146.4v-92.096c0-89.984 222.112-163.456 494.112-163.456 25.344 0 50.048 0.832 74.368 2.048-28.832 30.24-51.136 66.688-64.608 107.2-3.264 0-6.464-0.096-9.76-0.096zM498.048 902.688c-272 0-494.112-72.928-494.112-163.456v-54.816c0-89.984 222.112-163.456 494.112-163.456 272.8 0 494.912 73.472 494.912 163.456v54.816c0.032 90.528-222.080 163.456-494.912 163.456zM495.52 194.144c-1.504 11.936-2.56 24-2.56 36.352 0 25.216 3.584 49.504 9.696 72.8-1.536 0-3.040-0.064-4.608-0.064-272 0-494.112 56.448-494.112 146.4v-92.096c0-89.696 220.736-162.944 491.584-163.392zM992.992 421.792v27.84c0-7.648-2.144-14.944-5.248-22.080 1.792-1.888 3.488-3.84 5.248-5.76zM783.232 466.976c-130.784 0-236.832-106.048-236.832-236.832s106.048-236.832 236.832-236.832c130.816 0 236.832 106.048 236.832 236.832 0 130.816-106.048 236.832-236.832 236.832zM811.392 132.704l-69.312-69.312c-15.296-15.296-38.944-16.48-52.832-2.592l-75.392 75.392c-13.856 13.856-12.704 37.536 2.592 52.832l69.28 69.28c7.648 7.648 19.488 8.224 26.432 1.312l25.12-25.12-13.856-13.856-12.576 12.576-69.312-69.312 75.392-75.392 69.28 69.312-12.576 12.576 13.856 13.856 25.12-25.12c7.008-6.976 6.432-18.784-1.216-26.432zM833.024 305.088l25.152-25.152-124.736-124.736-25.152 25.152 124.736 124.736zM949.984 271.296l-69.312-69.312c-7.648-7.648-19.488-8.256-26.432-1.312l-25.12 25.12 13.856 13.856 12.576-12.576 69.28 69.28-75.36 75.392-69.312-69.312 12.576-12.576-13.856-13.856-25.12 25.12c-6.912 6.912-6.368 18.752 1.312 26.432l69.28 69.312c15.296 15.296 38.976 16.448 52.832 2.592l75.392-75.392c13.888-13.824 12.704-37.472-2.592-52.768z" />
<glyph unicode="&#xe916;" glyph-name="dimensions" d="M1020.8 540.448l-277.568 231.296v-184.96h-304.352l-201.504 201.536 134.272 135.36-368.448 33.792 33.504-371.424 134.56 135.648 201.28-201.248v-304.352h-184.96l231.296-277.568 231.296 277.568h-184.96v278.016h278.016v-184.96z" />
<glyph unicode="&#xe917;" glyph-name="minimize" d="M920.288 39.744h-272.192v-90.72h362.912v362.912h-90.72v-272.192zM920.288 947.008h-272.192v-90.72h206.848l-342.944-344.096-342.912 344.096h206.848v90.72h-362.944v-362.912h90.72v272.192h63.232l-62.24-62.528 343.968-345.12-343.904-345.024 63.296-63.584 343.936 345.056 343.904-345.088 63.296 63.584-343.872 345.056 343.968 345.12-62.24 62.528h63.232v-272.192h90.72v362.912h-90.72zM103.712 311.904h-90.72v-362.912h362.912v90.72h-272.192v272.192z" />
<glyph unicode="&#xe918;" glyph-name="table" d="M45.152-65.536h933.664v93.376h-933.664v-93.376zM138.528 214.592h-93.376v-93.376h93.376v93.376zM138.528 401.312h-93.376v-93.376h93.376v93.376zM138.528 588.064h-93.376v-93.376h93.376v93.376zM138.528 774.784h-93.376v-93.376h93.376v93.376zM45.152 961.536v-93.376h933.664v93.376h-933.664zM231.904 494.688h746.944v93.376h-746.944v-93.376zM231.904 307.936h746.944v93.376h-746.944v-93.376zM231.904 681.408h746.944v93.376h-746.944v-93.376zM231.904 121.216h746.944v93.376h-746.944v-93.376z" />
<glyph unicode="&#xe919;" glyph-name="database" d="M511.584-3.872c-281.92 0-512.096 76.16-512.096 169.376v95.456c0-93.792 230.176-151.744 512.096-151.744 282.72 0 512.928 57.92 512.928 151.744v-95.456c0-93.248-230.208-169.376-512.928-169.376v0 0zM511.584 165.504c-281.92 0-512.096 76.128-512.096 169.376v95.456c0-93.248 230.176-151.744 512.096-151.744 282.72 0 512.928 58.496 512.928 151.744v-95.456c0-93.248-230.208-169.376-512.928-169.376v0 0zM511.584 334.88c-281.92 0-512.096 76.16-512.096 169.376v95.456c0-93.248 230.176-151.168 512.096-151.168 282.72 0 512.928 57.92 512.928 151.168v-95.456c0-93.216-230.208-169.376-512.928-169.376v0 0zM511.584 504.288c-281.92 0-512.096 76.128-512.096 169.376v56.832c0 93.792 230.176 169.376 512.096 169.376 282.72 0 512.928-75.584 512.928-169.376v-56.832c0-93.248-230.208-169.376-512.928-169.376v0z" />
<glyph unicode="&#xe91a;" glyph-name="field" d="M1018.88 172.832h-1013.76v550.336h1013.76v-550.336zM92 259.712h840v376.576h-840v-376.576zM220.768 590.816h86.88v-285.6h-86.88v285.6z" />
<glyph unicode="&#xe91b;" glyph-name="configure" d="M959.872 554.688h-87.52c-8.256 17.792-19.968 54.752-34.912 81.12l61.824 60.064c19.52 19.52 19.552 50.24 0.032 69.728l-70.56 70.144c-19.488 19.488-51.072 19.264-70.592-0.224l-58.368-61.92c-26.304 14.944-63.296 26.56-81.088 34.816v87.488c0 27.584-29.216 49.92-56.768 49.92h-99.808c-27.552 0-56.8-22.336-56.8-49.92v-87.52c-17.792-8.256-54.752-19.936-81.088-34.88l-60.096 61.792c-19.52 19.52-50.24 19.52-69.728 0.032l-70.112-70.592c-19.456-19.456-19.296-51.072 0.224-70.592l61.92-58.368c-14.976-26.336-26.56-63.328-34.816-81.088h-87.488c-27.616 0-49.952-29.216-49.952-56.768v-99.808c0-27.552 22.336-56.8 49.952-56.8h87.52c8.256-17.792 19.968-54.72 34.912-81.088l-61.824-60.096c-19.52-19.52-19.52-50.208-0.032-69.696l70.56-70.144c19.456-19.456 51.072-19.264 70.592 0.256l58.368 61.92c26.336-14.944 63.296-26.56 81.088-34.816v-87.52c0-27.584 29.216-49.92 56.768-49.92h99.808c27.552 0 56.768 22.336 56.768 49.952v87.52c17.792 8.256 54.752 19.968 81.12 34.912l60.096-61.824c19.52-19.52 50.208-19.52 69.696-0.032l70.144 70.56c19.456 19.488 19.264 51.072-0.256 70.592l-61.92 58.368c14.944 26.336 26.56 63.296 34.816 81.056h87.52c27.584 0 49.92 29.248 49.92 56.768v99.808c0.032 27.552-22.304 56.8-49.92 56.8v0 0zM512 223.52c-124 0-224.544 100.512-224.544 224.512s100.512 224.544 224.544 224.544c124.032 0 224.544-100.512 224.544-224.544 0-124-100.512-224.512-224.544-224.512v0 0z" />
<glyph unicode="&#xe91c;" glyph-name="infor" d="M512 834.56c213.152 0 386.56-173.408 386.56-386.56s-173.408-386.56-386.56-386.56c-213.152 0-386.56 173.408-386.56 386.56s173.408 386.56 386.56 386.56zM512 946.432c-275.264 0-498.432-223.168-498.432-498.432s223.168-498.432 498.432-498.432c275.264 0 498.432 223.168 498.432 498.432s-223.168 498.432-498.432 498.432v0 0zM579.232 148.672h-134.464c-0.8 0-1.44 0.64-1.44 1.44v409.12c0 0.8 0.64 1.44 1.44 1.44h134.464c0.8 0 1.44-0.64 1.44-1.44v-409.12c0-0.8-0.64-1.44-1.44-1.44v0zM575.872 681.056c0-36.601-29.671-66.272-66.272-66.272s-66.272 29.671-66.272 66.272c0 36.601 29.671 66.272 66.272 66.272s66.272-29.671 66.272-66.272z" />
<glyph unicode="&#xe91d;" glyph-name="project" d="M472.128 559.68c0-46.528-38.112-84.64-84.64-84.64h-300.928c-46.528 0-84.64 38.112-84.64 84.64v313.76c0 46.528 38.112 84.64 84.64 84.64h300.928c46.528 0 84.64-38.112 84.64-84.64v-313.76zM472.128 22.56c0-46.528-38.112-84.64-84.64-84.64h-300.928c-46.528 0-84.64 38.112-84.64 84.64v313.696c0 46.592 38.112 84.704 84.64 84.704h300.928c46.528 0 84.64-38.112 84.64-84.64v-313.76zM1022.080 559.68c0-46.528-38.112-84.64-84.64-84.64h-300.928c-46.528 0-84.64 38.112-84.64 84.64v313.76c0 46.528 38.112 84.64 84.64 84.64h300.928c46.528 0 84.64-38.112 84.64-84.64v-313.76zM1022.080 22.56c0-46.528-38.112-84.64-84.64-84.64h-300.928c-46.528 0-84.64 38.112-84.64 84.64v313.696c0 46.528 38.112 84.64 84.64 84.64h300.928c46.592 0 84.64-38.112 84.64-84.64v-313.696z" />
<glyph unicode="&#xe91e;" glyph-name="relational-database" d="M777.664-30.784v0c-39.2-39.2-106.112-35.936-149.376 7.328v0l-195.904 195.904c-21.632 21.632-23.232 55.136-3.68 74.688v0 0l71.040 71.040 39.168-39.168-35.52-35.52 195.904-195.904 213.088 213.088-195.904 195.904-35.52-35.52-39.168 39.168 71.040 71.040c19.616 19.616 53.056 17.984 74.688-3.68v0l195.904-195.904c43.264-43.264 46.592-110.144 7.328-149.376v0l-213.088-213.088zM335.68 624.32l35.52 35.52 352.64-352.64-71.040-71.040-352.64 352.64 35.52 35.52zM524.224 577.792l-39.168 39.168 35.52 35.52-195.904 195.904-213.088-213.088 195.904-195.904 35.52 35.52 39.168-39.168-71.008-71.008c-19.552-19.552-53.056-17.952-74.688 3.68v0 0l-195.904 195.904c-43.264 43.264-46.528 110.208-7.328 149.376v0l213.088 213.088c39.264 39.232 106.112 35.936 149.376-7.328v0l195.904-195.904c21.632-21.632 23.296-55.072 3.68-74.688v0l-71.072-71.072z" />
<glyph unicode="&#xe91f;" glyph-name="remove" d="M875.936-19.904l-363.936 363.936-363.936-363.936-103.968 103.968 363.936 363.936-363.936 363.936 103.968 103.968 363.936-363.936 363.936 363.936 103.968-103.968-363.936-363.936 363.936-363.936-103.968-103.968z" />
<glyph unicode="&#xe920;" glyph-name="instance" d="M5.344 954.656v-1013.344h1013.344v1013.344h-1013.344zM718.72 825.696h168.576v-168.576h-168.576v168.576zM427.744 825.696h168.576v-168.576h-168.576v168.576zM133.568 825.696h168.576v-168.576h-168.576v168.576zM132.032 533.504h171.584v-171.584h-171.584v171.584zM304.512 65.472h-171.808v171.808h171.808v-171.808zM427.712 531.648h168.576v-168.576h-168.576v168.576zM597.088 66.72h-168.576v168.576h168.576v-168.576zM718.688 532h168.576v-168.576h-168.576v168.576zM888.096 67.072h-168.576v168.576h168.576v-168.576z" />
<glyph unicode="&#xe921;" glyph-name="repo" d="M543.424 18.24c58.72 16.416 112.928 72.32 150.848 155.776-46.56 12.672-97.28 20.32-150.848 23.040v-178.816zM317.824 175.552c38.048-84.352 92.512-140.768 151.488-157.312v179.040c-53.696-2.208-104.672-9.568-151.488-21.728v0zM764.928 149.536c-12.416-28.32-26.912-54.464-43.072-78.144 29.376 17.088 56.416 37.248 80.736 60.416-12.064 6.336-24.608 12.288-37.664 17.728v0zM207.968 134.144c24.96-24.192 52.672-45.024 82.784-62.624-16.672 24.48-31.552 51.36-44.224 80.48-12.928-5.312-25.888-11.264-38.56-17.856v0zM790.4 219.264c22.368-9.184 43.2-19.264 62.112-30.016 46.432 63.392 74.4 137.632 81.12 215.904h-112.672c-2.88-65.696-13.216-128.192-30.56-185.888v0zM79.008 405.312c6.592-77.216 33.888-150.592 79.296-213.472 20.32 11.264 41.408 21.344 63.136 30.016-16.96 57.056-27.040 118.624-29.76 183.456h-112.672zM543.424 271.168c62.624-2.848 121.984-12.16 176.864-27.68 14.88 50.080 23.68 104.288 26.528 161.728h-203.36v-134.048h-0.032zM265.792 405.312c2.72-56.8 11.52-110.496 26.016-160.032 54.976 15.008 114.624 23.808 177.504 26.144v133.888h-203.52zM746.816 479.296c-2.72 57.568-11.776 112.16-26.656 162.368-56.032-15.776-115.392-25.088-176.736-27.936v-134.432h203.392zM933.632 479.424c-6.72 78.272-34.688 152.8-81.376 216.192-19.936-11.264-40.64-21.344-61.984-30.144 17.472-57.696 27.68-120.192 30.528-186.048h112.832zM469.312 479.424v134.016c-61.184 2.464-120.704 11.392-177.248 26.656-14.624-49.536-23.424-103.616-26.144-160.8l203.36 0.128zM191.68 479.424c2.848 64.96 12.928 126.784 29.888 183.84-21.856 8.672-42.944 18.784-63.136 29.888-45.536-63.008-72.832-136.48-79.552-213.728h112.8zM318.080 709.856c48.256-12.544 98.976-19.936 151.232-22.24v178.784c-59.008-16.448-113.344-72.576-151.232-156.544v0zM543.424 687.872c52.256 2.72 102.848 10.496 150.464 23.424-37.888 83.168-91.968 138.784-150.464 155.104v-178.528zM208.096 750.72c13.184-6.72 25.888-12.672 38.56-17.856 12.672 29.12 27.424 55.872 44.096 80.192-30.112-17.44-57.696-38.272-82.656-62.336v0zM721.824 813.216c16.16-23.68 30.656-49.824 43.072-78.144 12.416 5.184 24.832 11.136 37.504 17.856-24.288 23.040-51.2 43.2-80.576 60.288v0zM1021.216 448c0-281.248-227.968-509.216-509.216-509.216s-509.216 227.968-509.216 509.216c0 281.248 227.968 509.216 509.216 509.216s509.216-227.968 509.216-509.216v0z" />
<glyph unicode="&#xe922;" glyph-name="search" d="M1011.968 24.992l-290.752 292.672c118.208 156.128 106.176 379.488-36.192 521.856-155.616 155.584-407.872 155.584-563.488 0-155.584-155.552-155.584-407.84 0-563.456 142.304-142.304 365.504-154.432 521.632-36.416l290.816-292.704c9.568-9.536 25.088-9.536 34.656 0l43.36 43.36c9.568 9.6 9.568 25.12-0.032 34.688v0zM195.36 347.712c-114.272 114.272-114.272 299.52 0 413.76 114.272 114.272 299.488 114.272 413.76 0 114.272-114.24 114.272-299.488 0-413.76-114.272-114.24-299.488-114.24-413.76 0v0z" />
<glyph unicode="&#xe923;" glyph-name="edit" d="M848.48 959.552c80.704 0 146.112-65.408 146.112-146.112 0-32.896-10.88-63.232-29.216-87.68l-58.464-58.464-204.576 204.576 58.464 58.464c24.448 18.336 54.784 29.216 87.68 29.216zM117.856 287.36l-58.464-263.040 263.040 58.464 540.672 540.672-204.576 204.576-540.672-540.672zM712.96 627.488l-409.152-409.152-50.368 50.368 409.12 409.184 50.4-50.4zM32 0h896v-64h-896v64z" />
<glyph unicode="&#xe924;" glyph-name="create" d="M1024 384h-448v-448h-128v448h-448v128h448v448h128v-448h448v-128z" />
<glyph unicode="&#xe925;" glyph-name="refresh" d="M700.448 175.776c-57.152-40.544-124-60.864-192.32-59.904-9.024 0.096-18.016 0.576-26.88 1.344-3.616 0.352-7.232 0.96-10.88 1.408-6.976 0.928-13.984 1.888-20.768 3.2-4.224 0.8-8.32 1.888-12.448 2.88-6.656 1.6-13.28 3.168-19.808 5.152-3.136 0.992-6.176 2.112-9.28 3.168-7.488 2.56-14.976 5.184-22.24 8.256-1.632 0.672-3.232 1.44-4.864 2.208-8.48 3.776-16.896 7.744-24.992 12.224-0.384 0.192-0.736 0.384-1.12 0.576-27.488 15.296-52.672 34.368-74.72 56.672-0.32 0.352-0.704 0.768-1.056 1.152-6.848 6.976-13.376 14.24-19.616 21.824-1.312 1.6-2.56 3.36-3.872 5.024-44.896 56.864-71.968 128.864-71.968 207.168h76.16c1.952 0 3.872 1.056 4.864 2.912s0.832 4.032-0.256 5.664l-128.096 194.432c-0.992 1.504-2.688 2.496-4.608 2.496s-3.648-0.992-4.608-2.496l-128.032-194.432c-1.088-1.632-1.248-3.808-0.256-5.664s2.912-2.912 4.864-2.912h76.192c0-92.064 28.352-177.408 76.512-247.968 0.576-0.992 1.024-2.016 1.664-3.008 4.992-7.232 10.528-13.888 15.872-20.704 1.984-2.592 3.872-5.248 5.92-7.776 7.872-9.696 16.256-18.784 24.864-27.68 0.832-0.896 1.568-1.76 2.4-2.56 28.896-29.312 61.568-53.984 97.12-73.728 0.928-0.544 1.824-1.12 2.848-1.664 10.24-5.568 20.768-10.592 31.424-15.36 2.656-1.152 5.248-2.464 7.968-3.584 9.12-3.84 18.496-7.2 27.936-10.368 4.448-1.536 8.896-3.104 13.408-4.512 8.256-2.464 16.672-4.544 25.184-6.592 5.632-1.344 11.232-2.784 16.992-3.872 2.4-0.48 4.64-1.248 6.976-1.6 8-1.44 16.096-2.24 24.096-3.232 2.88-0.352 5.76-0.832 8.64-1.152 14.432-1.44 28.8-2.4 43.136-2.4 87.84 0 173.568 27.2 247.104 79.36 23.424 16.672 29.152 49.376 12.736 73.12-16.416 23.84-48.8 29.6-72.192 12.928zM944.224 448.16c-0.032 91.776-28.224 176.928-76.128 247.36-0.704 1.216-1.184 2.432-1.952 3.552-5.952 8.608-12.448 16.64-18.912 24.672-0.736 0.992-1.44 2.016-2.24 2.976-43.872 53.888-98.912 95.488-161.312 122.688-1.728 0.768-3.424 1.6-5.152 2.368-9.952 4.16-20.16 7.808-30.432 11.296-3.712 1.248-7.328 2.592-11.104 3.712-8.96 2.752-18.016 4.96-27.168 7.104-5.056 1.184-10.112 2.496-15.2 3.488-2.528 0.48-4.928 1.248-7.424 1.696-6.816 1.184-13.664 1.696-20.512 2.624-4.768 0.608-9.376 1.344-14.144 1.824-11.488 1.088-22.88 1.536-34.272 1.728-2.080 0-4.096 0.32-6.176 0.32-0.384 0-0.736-0.096-1.12-0.128-87.744-0.064-173.28-26.88-246.72-78.976-23.52-16.608-29.248-49.344-12.8-73.12 16.416-23.776 48.8-29.536 72.224-12.864 56.736 40.224 122.912 60.576 190.752 59.968 9.76-0.064 19.36-0.544 28.864-1.44 2.912-0.32 5.824-0.768 8.736-1.152 7.808-0.96 15.552-2.080 23.168-3.616 3.36-0.672 6.688-1.536 9.984-2.304 7.488-1.696 14.976-3.552 22.272-5.792 2.304-0.736 4.576-1.568 6.912-2.336 8.352-2.784 16.544-5.76 24.64-9.152 0.832-0.352 1.664-0.768 2.464-1.12 48.352-21.056 90.72-53.44 123.808-93.984 0.192-0.224 0.416-0.544 0.608-0.8 46.56-57.376 74.592-130.752 74.624-210.624h-76.192c-1.952 0-3.872-1.056-4.864-2.912s-0.832-4.032 0.256-5.664l128.064-194.4c0.992-1.504 2.688-2.496 4.608-2.496s3.616 0.992 4.608 2.496l128 194.4c1.088 1.632 1.248 3.808 0.256 5.664s-2.912 2.912-4.864 2.912l-76.16 0.032z" />
</font>
</defs>
</svg>
